<?xml version="1.0" encoding="UTF-8"?>
<svg width="48px" height="48px" viewBox="0 0 48 48" version="1.1" xmlns="http://www.w3.org/2000/svg" xmlns:xlink="http://www.w3.org/1999/xlink">
    <title>icon/icon-calendar</title>
    <g id="icon/icon-calendar" stroke="none" stroke-width="1" fill="none" fill-rule="evenodd">
        <path d="M15.6952876,21.6568009 L19.4542206,21.6568009 L19.4542206,17.8978679 L15.6952876,17.8978679 L15.6952876,21.6568009 Z M32.7551572,9.06898721 C33.3155258,9.06898721 33.7691104,9.4412941 33.7691104,9.90031002 L33.7689493,11.3429872 L36.6369746,11.3436457 C38.5736681,11.3436457 40.1503042,13.1173199 40.1503042,15.2979639 L40.150238,31.5328188 L40.150238,31.5328188 C40.150238,33.7068772 38.5821951,35.4772452 36.6519584,35.4857835 L36.6519894,35.4857901 L24.1822927,35.4856592 C23.4313299,40.0738721 19.4384836,43.5860768 14.6411304,43.5860768 C9.31123809,43.5860768 4.97494931,39.2495181 4.97494931,33.9188162 C4.97494931,30.1936943 7.09269776,26.9538265 10.1873415,25.3402503 C10.1820594,25.2981138 10.179508,25.2548805 10.179508,25.2110274 L10.179508,15.3431868 L10.1797448,15.3200945 C10.1795872,15.3127366 10.179508,15.3053594 10.179508,15.2979639 C10.179508,13.1173199 11.7548216,11.3436457 13.6921433,11.3436457 L16.5599493,11.3429872 L16.5606687,9.90031002 C16.5606687,9.4412941 17.0142532,9.06898721 17.5746219,9.06898721 C18.1349905,9.06898721 18.5885751,9.4412941 18.5885751,9.90031002 L18.5879493,11.3429872 L31.7409493,11.3429872 L31.741204,9.90031002 C31.741204,9.4412941 32.1944579,9.06898721 32.7551572,9.06898721 Z M14.6411304,26.1901698 C10.2238853,26.1901698 6.9061515,29.5010315 6.9061515,33.9188162 C6.9061515,38.336601 10.2238853,41.6461698 14.6411304,41.6461698 C19.059185,41.6461698 22.3761515,38.336601 22.3761515,33.9188162 C22.3761515,33.6899798 22.3662317,33.4646514 22.3481515,33.2401327 C22.002738,29.1283627 18.7731395,26.1909794 14.6411304,26.1901698 Z M16.5599493,13.3709872 L13.6921433,13.3718827 L13.6921433,13.3718827 C12.8867993,13.3718827 12.2074143,14.2539261 12.2074143,15.2979639 L12.2071564,15.3190419 C12.207328,15.3270685 12.2074143,15.3351171 12.2074143,15.3431868 L12.2070361,24.5619437 C12.9849586,24.3593876 13.8006919,24.2515557 14.6411304,24.2515557 C17.7066742,24.2520535 20.4868783,25.7217908 22.2703167,28.0071113 L22.2706103,25.5165672 C22.2706103,25.2362176 22.497072,25.0094253 22.7774216,25.0094253 L27.5503078,25.0094253 C27.8306574,25.0094253 28.0574497,25.2362176 28.0574497,25.5165672 L28.0574497,30.2904452 C28.0574497,30.5704642 27.8306574,30.7975871 27.5503078,30.7975871 L23.7879082,30.797052 C24.0404164,31.5293098 24.2065819,32.3012729 24.2735797,33.1011577 C24.2838708,33.2194455 24.2919841,33.3381999 24.2978515,33.4574892 L36.6379333,33.4575776 L36.6379333,33.4575776 C37.4429467,33.4575776 38.1223317,32.576526 38.1223317,31.5328188 L38.1223978,15.2979639 L38.1223978,15.2979639 C38.1223978,14.2539261 37.442021,13.3718827 36.6370077,13.3718827 L33.7689493,13.3709872 L33.7691104,14.8153571 C33.7691104,15.274373 33.3155258,15.6464089 32.7551572,15.6464089 C32.1944579,15.6464089 31.741204,15.274373 31.741204,14.8153571 L31.7409493,13.3709872 L18.5879493,13.3709872 L18.5885751,14.8153571 C18.5885751,15.274373 18.1349905,15.6464089 17.5746219,15.6464089 C17.0142532,15.6464089 16.5606687,15.274373 16.5606687,14.8153571 L16.5599493,13.3709872 Z M35.1415672,25.0094253 C35.4219169,25.0094253 35.6483785,25.2362176 35.6483785,25.5165672 L35.6483785,30.2904452 C35.6483785,30.5704642 35.4219169,30.7975871 35.1415672,30.7975871 L30.368681,30.7975871 C30.0883314,30.7975871 29.8618698,30.5704642 29.8618698,30.2904452 L29.8618698,25.5165672 C29.8618698,25.2362176 30.0883314,25.0094253 30.368681,25.0094253 L35.1415672,25.0094253 Z M34.6347559,26.0233785 L30.8758229,26.0233785 L30.8758229,29.7836339 L34.6347559,29.7836339 L34.6347559,26.0233785 Z M27.0434965,26.0233785 L23.2845635,26.0233785 L23.2846922,29.6062369 C23.314266,29.6648449 23.3432587,29.7237929 23.3716624,29.7830733 L27.0434965,29.7836339 L27.0434965,26.0233785 Z M19.9610319,16.8835841 C20.2413815,16.8835841 20.4685044,17.110707 20.4685044,17.390726 L20.4685044,22.1636122 C20.4685044,22.4436312 20.2413815,22.6707541 19.9610319,22.6707541 L15.1881457,22.6707541 C14.9077961,22.6707541 14.6810038,22.4436312 14.6810038,22.1636122 L14.6810038,17.390726 C14.6810038,17.110707 14.9077961,16.8835841 15.1881457,16.8835841 L19.9610319,16.8835841 Z M27.5503078,16.8835841 C27.8306574,16.8835841 28.0574497,17.110707 28.0574497,17.390726 L28.0574497,22.1636122 C28.0574497,22.4436312 27.8306574,22.6707541 27.5503078,22.6707541 L22.7774216,22.6707541 C22.497072,22.6707541 22.2706103,22.4436312 22.2706103,22.1636122 L22.2706103,17.390726 C22.2706103,17.110707 22.497072,16.8835841 22.7774216,16.8835841 L27.5503078,16.8835841 Z M35.1415672,16.8835841 C35.4219169,16.8835841 35.6483785,17.110707 35.6483785,17.390726 L35.6483785,22.1636122 C35.6483785,22.4436312 35.4219169,22.6707541 35.1415672,22.6707541 L30.368681,22.6707541 C30.0883314,22.6707541 29.8618698,22.4436312 29.8618698,22.1636122 L29.8618698,17.390726 C29.8618698,17.110707 30.0883314,16.8835841 30.368681,16.8835841 L35.1415672,16.8835841 Z M27.0434965,17.8978679 L23.2845635,17.8978679 L23.2845635,21.6568009 L27.0434965,21.6568009 L27.0434965,17.8978679 Z M34.6347559,17.8978679 L30.8758229,17.8978679 L30.8758229,21.6568009 L34.6347559,21.6568009 L34.6347559,17.8978679 Z M14.6423047,29.1368714 C14.9228549,29.1368977 15.1488801,29.3640778 15.1484661,29.6443665 L15.1484837,32.2097816 C15.7688879,32.3801158 16.1603806,32.8616857 16.308127,33.4115404 L20.5789632,33.4118727 C20.8398636,33.4118727 21.0511714,33.638665 21.0511714,33.918684 C21.0511714,34.1990336 20.8398636,34.4258259 20.5789632,34.4258259 L16.3087004,34.4256086 C16.238983,34.6847549 16.1155768,34.9224467 15.9451056,35.1205838 C15.6280592,35.4898651 15.1648873,35.6931847 14.6418765,35.6931847 C13.5042786,35.6931847 12.9088663,34.8005621 12.9088663,33.9188493 C12.9088663,33.4652648 13.0616039,33.0384589 13.3379863,32.7167842 C13.5479694,32.4729329 13.8216402,32.30129 14.133991,32.2129276 L14.1355848,29.6435557 C14.1346376,29.3631948 14.3597535,29.1352132 14.6423047,29.1368714 Z" id="Fill-1" fill="#FFFFFF"></path>
    </g>
</svg>