<?xml version="1.0" encoding="UTF-8"?>
<svg width="48px" height="48px" viewBox="0 0 48 48" version="1.1" xmlns="http://www.w3.org/2000/svg" xmlns:xlink="http://www.w3.org/1999/xlink">
    <title>icon/social-linkedin</title>
    <g id="icon/social-linkedin" stroke="none" stroke-width="1" fill="none" fill-rule="evenodd">
        <path d="M41.6,38 L33.82032,38 L33.82032,26.75072 C33.82032,23.8062368 32.6033864,21.79612 29.9273752,21.79612 C27.8805272,21.79612 26.7422392,23.1525904 26.2124176,24.4598832 C26.0137344,24.929116 26.0447792,25.5827624 26.0447792,26.2364088 L26.0447792,38 L18.3375352,38 C18.3375352,38 18.4368768,18.0729976 18.3375352,16.2616376 L26.0447792,16.2616376 L26.0447792,19.6733048 C26.5000944,18.1815968 28.9629352,16.0526352 32.8931328,16.0526352 C37.769144,16.0526352 41.6,19.179484 41.6,25.9126592 L41.6,38 L41.6,38 Z M10.543368,13.5425496 L10.4936968,13.5425496 C8.01016,13.5425496 6.4,11.8807712 6.4,9.7743488 C6.4,7.6269448 8.0577608,6 10.5909688,6 C13.1221072,6 14.6784568,7.6228472 14.728128,9.7682016 C14.728128,11.874624 13.1221072,13.5425496 10.543368,13.5425496 L10.543368,13.5425496 L10.543368,13.5425496 Z M7.2878648,16.2616376 L14.148636,16.2616376 L14.148636,38 L7.2878648,38 L7.2878648,16.2616376 L7.2878648,16.2616376 Z" id="LinkedIn" fill="#293A4D" fill-rule="nonzero"></path>
    </g>
</svg>