<?xml version="1.0" encoding="UTF-8"?>
<svg width="48px" height="48px" viewBox="0 0 48 48" version="1.1" xmlns="http://www.w3.org/2000/svg" xmlns:xlink="http://www.w3.org/1999/xlink">
    <title>icon/social-instagram</title>
    <g id="icon/social-instagram" stroke="none" stroke-width="1" fill="none" fill-rule="evenodd">
        <path d="M24.0000384,4.8 C18.7855928,4.8 18.1317488,4.8221024 16.0838648,4.9155416 C14.0402488,5.0087512 12.644532,5.3333496 11.4232704,5.8080136 C10.1607008,6.2986064 9.0899632,6.9551176 8.0225024,8.0225024 C6.9551176,9.0899632 6.2986064,10.1607008 5.8080136,11.4232704 C5.3333496,12.644532 5.0087512,14.0402488 4.9155416,16.0838648 C4.8221024,18.1317488 4.8,18.7855928 4.8,24.0000384 C4.8,29.2144072 4.8221024,29.8682512 4.9155416,31.9161352 C5.0087512,33.9597512 5.3333496,35.355468 5.8080136,36.5767296 C6.2986064,37.8392992 6.9551176,38.9100368 8.0225024,39.9774976 C9.0899632,41.0448824 10.1607008,41.7013936 11.4232704,42.1920632 C12.644532,42.6666504 14.0402488,42.9912488 16.0838648,43.0844584 C18.1317488,43.1778976 18.7855928,43.2 24.0000384,43.2 C29.2144072,43.2 29.8682512,43.1778976 31.9161352,43.0844584 C33.9597512,42.9912488 35.355468,42.6666504 36.5767296,42.1920632 C37.8392992,41.7013936 38.9100368,41.0448824 39.9774976,39.9774976 C41.0448824,38.9100368 41.7013936,37.8392992 42.1920632,36.5767296 C42.6666504,35.355468 42.9912488,33.9597512 43.0844584,31.9161352 C43.1778976,29.8682512 43.2,29.2144072 43.2,24.0000384 C43.2,18.7855928 43.1778976,18.1317488 43.0844584,16.0838648 C42.9912488,14.0402488 42.6666504,12.644532 42.1920632,11.4232704 C41.7013936,10.1607008 41.0448824,9.0899632 39.9774976,8.0225024 C38.9100368,6.9551176 37.8392992,6.2986064 36.5767296,5.8080136 C35.355468,5.3333496 33.9597512,5.0087512 31.9161352,4.9155416 C29.8682512,4.8221024 29.2144072,4.8 24.0000384,4.8 Z M24.0000384,8.2594536 C29.126608,8.2594536 29.7338848,8.2790408 31.758448,8.3714128 C33.6304288,8.4567728 34.6470544,8.7695568 35.3236104,9.0324968 C36.2198168,9.3807976 36.8594096,9.7968528 37.53124,10.46876 C38.2031472,11.1405904 38.6192024,11.7801832 38.9675032,12.6763896 C39.2304432,13.3529456 39.5432272,14.3695712 39.6285872,16.241552 C39.7209592,18.2661152 39.7405464,18.873392 39.7405464,24.0000384 C39.7405464,29.126608 39.7209592,29.7338848 39.6285872,31.758448 C39.5432272,33.6304288 39.2304432,34.6470544 38.9675032,35.3236104 C38.6192024,36.2198168 38.2031472,36.8594096 37.53124,37.53124 C36.8594096,38.2031472 36.2198168,38.6192024 35.3236104,38.9675032 C34.6470544,39.2304432 33.6304288,39.5432272 31.758448,39.6285872 C29.7341896,39.7209592 29.1269888,39.7405464 24.0000384,39.7405464 C18.8730112,39.7405464 18.2658864,39.7209592 16.241552,39.6285872 C14.3695712,39.5432272 13.3529456,39.2304432 12.6763896,38.9675032 C11.7801832,38.6192024 11.1405904,38.2031472 10.46876,37.53124 C9.7969288,36.8594096 9.3807976,36.2198168 9.0324968,35.3236104 C8.7695568,34.6470544 8.4567728,33.6304288 8.3714128,31.758448 C8.2790408,29.7338848 8.2594536,29.126608 8.2594536,24.0000384 C8.2594536,18.873392 8.2790408,18.2661152 8.3714128,16.241552 C8.4567728,14.3695712 8.7695568,13.3529456 9.0324968,12.6763896 C9.3807976,11.7801832 9.7968528,11.1405904 10.46876,10.46876 C11.1405904,9.7968528 11.7801832,9.3807976 12.6763896,9.0324968 C13.3529456,8.7695568 14.3695712,8.4567728 16.241552,8.3714128 C18.2661152,8.2790408 18.873392,8.2594536 24.0000384,8.2594536 Z M24.0000384,14.1405464 C18.5547392,14.1405464 14.1405464,18.5547392 14.1405464,24.0000384 C14.1405464,29.4452608 18.5547392,33.8594536 24.0000384,33.8594536 C29.4452608,33.8594536 33.8594536,29.4452608 33.8594536,24.0000384 C33.8594536,18.5547392 29.4452608,14.1405464 24.0000384,14.1405464 Z M24.0000384,30.4 C20.4653608,30.4 17.6,27.5346392 17.6,24.0000384 C17.6,20.4653608 20.4653608,17.6 24.0000384,17.6 C27.5346392,17.6 30.4,20.4653608 30.4,24.0000384 C30.4,27.5346392 27.5346392,30.4 24.0000384,30.4 Z M36.5530272,13.7510144 C36.5530272,15.023492 35.5214632,16.0549792 34.2489856,16.0549792 C32.976584,16.0549792 31.9450208,15.023492 31.9450208,13.7510144 C31.9450208,12.4785368 32.976584,11.4469728 34.2489856,11.4469728 C35.5214632,11.4469728 36.5530272,12.4785368 36.5530272,13.7510144 Z" id="Instagram" fill="#ffffff" fill-rule="nonzero"></path>
    </g>
</svg>