<?xml version="1.0" encoding="UTF-8"?>
<svg width="48px" height="48px" viewBox="0 0 48 48" version="1.1" xmlns="http://www.w3.org/2000/svg" xmlns:xlink="http://www.w3.org/1999/xlink">
    <title>icon/social-twitter</title>
    <g id="icon/social-twitter" stroke="none" stroke-width="1" fill="none" fill-rule="evenodd">
        <path d="M43.2,11.7882264 C41.7890472,12.4307696 40.2699064,12.8652944 38.6763864,13.059444 C40.3037152,12.0609608 41.5523856,10.4777176 42.1406584,8.5916936 C40.6170104,9.5162152 38.9333336,10.1888048 37.1347072,10.549368 C35.7012152,8.9799928 33.6524032,8 31.3849624,8 C27.0371544,8 23.5097728,11.6171904 23.5097728,16.0780064 C23.5097728,16.711304 23.5773904,17.3261104 23.7126256,17.917804 C17.1649936,17.5803536 11.3611552,14.3676416 7.4731464,9.474612 C6.7947176,10.6718672 6.4070432,12.0609608 6.4070432,13.5401952 C6.4070432,16.3414952 7.7977112,18.8145904 9.9118856,20.2637776 C8.6226448,20.2244856 7.4055288,19.856988 6.34168,19.2560488 L6.34168,19.3554352 C6.34168,23.270784 9.0576512,26.536656 12.66392,27.2762728 C12.0035216,27.4658 11.3070608,27.5605632 10.5880616,27.5605632 C10.0809296,27.5605632 9.585068,27.5120264 9.1049832,27.4172624 C10.1079768,30.625352 13.0155312,32.96208 16.4640256,33.0244856 C13.7683392,35.192488 10.3694312,36.4845072 6.6797672,36.4845072 C6.0441624,36.4845072 5.4153192,36.4475264 4.8,36.3735648 C8.2868112,38.6617552 12.429512,40 16.876492,40 C31.3691848,40 39.2917064,27.692308 39.2917064,17.016396 C39.2917064,16.6650776 39.2849448,16.3137592 39.2714208,15.9693752 C40.8108472,14.8299024 42.14742,13.4084504 43.2,11.7882264" id="Twitter" fill="#293A4D" fill-rule="nonzero"></path>
    </g>
</svg>