<?xml version="1.0" encoding="UTF-8"?>
<svg width="48px" height="48px" viewBox="0 0 48 48" version="1.1" xmlns="http://www.w3.org/2000/svg" xmlns:xlink="http://www.w3.org/1999/xlink">
    <title>icon/icon-lock</title>
    <g id="icon/icon-lock" stroke="none" stroke-width="1" fill="none" fill-rule="evenodd">
        <path d="M15.9344759,18.6570255 L15.9344759,14.2053294 C15.9344759,10.1224098 19.5445546,6.81254947 24,6.81254947 C28.4544659,6.81254947 32.0655241,10.1255888 32.0655241,14.2053294 L32.0655241,18.6570255 L33.7017242,18.6570255 C35.2277846,18.6570255 36.4649009,19.9725273 36.4649009,21.5876255 L36.4649009,36.2568505 C36.4649009,37.8753762 35.2286282,39.1874505 33.7017242,39.1874505 L14.2982758,39.1874505 C12.7722154,39.1874505 11.5350991,37.8719487 11.5350991,36.2568505 L11.5350991,21.5876255 C11.5350991,19.9690998 12.7713718,18.6570255 14.2982758,18.6570255 L15.9344759,18.6570255 Z M14.4680169,21.5899433 L14.4680169,36.2545327 L33.5319831,36.2545327 L33.5319831,21.5899433 L14.4680169,21.5899433 Z M29.1326063,18.6570255 L29.1326063,14.2053294 C29.1326063,11.8038642 26.8875618,9.74546733 24,9.74546733 C21.1104742,9.74546733 18.8673937,11.8016253 18.8673937,14.2053294 L18.8673937,18.6570255 L29.1326063,18.6570255 Z M22.5335411,26.3640001 C22.5335411,25.5542531 23.1844506,24.8978235 24,24.8978235 C24.8099029,24.8978235 25.4664589,25.5485157 25.4664589,26.3640001 L25.4664589,30.7639415 C25.4664589,31.5736885 24.8155494,32.2301181 24,32.2301181 C23.1900971,32.2301181 22.5335411,31.5794259 22.5335411,30.7639415 L22.5335411,26.3640001 Z" id="Shape" fill="#ffffff" fill-rule="nonzero"></path>
    </g>
</svg>