<?xml version="1.0" encoding="UTF-8"?>
<svg width="14px" height="15px" viewBox="0 0 14 15" version="1.1" xmlns="http://www.w3.org/2000/svg" xmlns:xlink="http://www.w3.org/1999/xlink">
    <title>Path 2</title>
    <g id="Symbols" stroke="none" stroke-width="1" fill="none" fill-rule="evenodd">
        <g id="button/external/yellow" transform="translate(-87.000000, -18.000000)" fill="#293A4D" fill-rule="nonzero" stroke="#293A4D" stroke-width="0.35">
            <path d="M93.0536497,20.9630193 C93.3892388,20.9630193 93.661212,21.2429916 93.661212,21.5884511 C93.661212,21.9339105 93.3892388,22.2138828 93.0536497,22.2138828 L93.0536497,22.2138828 L89.1805129,22.2138828 C88.9609209,22.2138828 88.7754714,22.4047867 88.7754714,22.6308374 L88.7754714,22.6308374 L88.7754714,30.2921907 C88.7754714,30.5182413 88.9609209,30.7091452 89.1805129,30.7091452 L89.1805129,30.7091452 L96.9267864,30.7091452 C97.1463785,30.7091452 97.331828,30.5182413 97.331828,30.2921907 L97.331828,30.2921907 L97.331828,26.3051382 C97.331828,25.9596787 97.6038011,25.6797064 97.9393903,25.6797064 C98.2749794,25.6797064 98.5469526,25.9598289 98.5469526,26.3051382 L98.5469526,26.3051382 L98.5469526,30.2921907 C98.5469526,31.2118638 97.8201832,31.9600088 96.9267864,31.9600088 L96.9267864,31.9600088 L89.1805129,31.9600088 C88.2871162,31.9600088 87.5603468,31.2118638 87.5603468,30.2921907 L87.5603468,30.2921907 L87.5603468,22.6308374 C87.5603468,21.7111643 88.2871162,20.9630193 89.1805129,20.9630193 L89.1805129,20.9630193 Z M100.040908,18.9092753 C100.376497,18.9092753 100.64847,19.1892476 100.64847,19.5347071 L100.64847,19.5347071 L100.64847,23.8430369 C100.64847,24.1884963 100.376497,24.4684687 100.040908,24.4684687 C99.7053188,24.4684687 99.4333457,24.1884963 99.4333457,23.8430369 L99.4333457,23.8430369 L99.4333457,21.1139073 L93.5383572,27.1824281 C93.4197337,27.3045405 93.2641954,27.3656718 93.108803,27.3656718 C92.9534107,27.3656718 92.7978724,27.3045405 92.6792489,27.1824281 C92.441856,26.9382032 92.441856,26.5421265 92.6792489,26.2979017 L92.6792489,26.2979017 L98.6416471,20.1601388 L95.8555274,20.1601388 C95.5199383,20.1601388 95.2479651,19.8801665 95.2479651,19.5347071 C95.2479651,19.1892476 95.5199383,18.9092753 95.8555274,18.9092753 L95.8555274,18.9092753 Z" id="Path-2"></path>
        </g>
    </g>
</svg>