<?xml version="1.0" encoding="UTF-8"?>
<svg width="48px" height="48px" viewBox="0 0 48 48" version="1.1" xmlns="http://www.w3.org/2000/svg" xmlns:xlink="http://www.w3.org/1999/xlink">
    <title>icon/icon-buy</title>
    <g id="icon/icon-buy" stroke="none" stroke-width="1" fill="none" fill-rule="evenodd">
        <path d="M46.5116065,18.4263289 L41.9052668,13.8199892 C41.6749498,13.5896722 41.352506,13.451482 40.9839989,13.451482 C40.6615551,13.451482 40.2930479,13.5896722 40.0627309,13.8199892 C38.7729558,15.1097643 36.5158493,15.1097643 35.2260742,13.8199892 C34.5811866,13.1751016 34.2126795,12.2998971 34.2126795,11.4246925 C34.2126795,10.5034246 34.5811866,9.67428344 35.2260742,8.98333248 C35.4563912,8.75301549 35.5945814,8.43057171 35.5945814,8.06206453 C35.5945814,7.73962075 35.4563912,7.37111357 35.2260742,7.14079659 L30.5736711,2.48839346 C30.3433541,2.25807647 30.0209103,2.11988628 29.6524031,2.11988628 C29.3299593,2.11988628 28.9614522,2.25807647 28.7311352,2.48839346 L3.48839346,27.7311352 C2.98169609,28.2378326 2.98169609,29.0669737 3.48839346,29.5736711 L8.14079659,34.2260742 C8.64749396,34.7327716 9.47663511,34.7327716 9.98333248,34.2260742 C11.319171,32.8902357 13.4841507,32.8902357 14.8199892,34.2260742 C16.1558277,35.5619127 16.1558277,37.7268924 14.8199892,39.0627309 C14.3132918,39.5694283 14.3132918,40.3985694 14.8199892,40.9052668 L19.4263289,45.5116065 C19.6566459,45.7419235 20.0251531,45.8801137 20.3475969,45.8801137 C20.6700407,45.8801137 20.9924844,45.7419235 21.2688648,45.5116065 L46.5116065,20.2688648 C47.0183039,19.7621674 47.0183039,18.9330263 46.5116065,18.4263289 Z M20.3475969,42.7478027 L17.4456028,39.8458087 C18.044427,38.8784773 18.4129342,37.7729558 18.4129342,36.6213709 C18.4129342,35.009152 17.7680466,33.4890598 16.6625251,32.3835383 C14.6357356,30.3567488 11.5034246,30.0803684 9.20025472,31.5543972 L6.29826069,28.6524031 L29.6524031,5.2521973 L32.5543972,8.15419133 C31.955573,9.12152267 31.5870658,10.2270442 31.5870658,11.3786291 C31.5870658,12.990848 32.2319534,14.5109402 33.3374749,15.6164617 C34.4890598,16.7680466 35.9630886,17.3668708 37.5753075,17.3668708 C38.7268924,17.3668708 39.8784773,17.044427 40.7997453,16.3995394 L43.7017393,19.3015335 L20.3475969,42.7478027 Z M25.1582972,16.67446 C25.5558131,17.0719759 25.6116457,17.6606439 25.2830028,17.9892868 C24.9908758,18.2814139 24.4932968,18.2697578 24.107142,17.9843729 L23.9681759,17.8645812 L22.6600884,16.5564938 C22.2625725,16.1589779 22.20674,15.5703098 22.5353829,15.2416669 C22.8275099,14.9495399 23.3250889,14.9611959 23.7112436,15.2465808 L23.8502097,15.3663725 L25.1582972,16.67446 Z M29.3907152,20.9068779 C29.7882311,21.3043938 29.8440637,21.8930619 29.5154208,22.2217048 C29.2232937,22.5138318 28.7257148,22.5021758 28.33956,22.2167909 L28.2005939,22.0969992 L26.8925064,20.7889117 C26.4949905,20.3913958 26.4391579,19.8027278 26.7678008,19.4740849 C27.0599279,19.1819578 27.5575069,19.1936139 27.9436616,19.4789988 L28.0826277,19.5987904 L29.3907152,20.9068779 Z M33.3811647,24.8973274 C33.7786806,25.2948433 33.8345132,25.8835114 33.5058703,26.2121543 C33.2137432,26.5042813 32.7161642,26.4926252 32.3300095,26.2072404 L32.1910434,26.0874487 L30.8829559,24.7793612 C30.48544,24.3818453 30.4296074,23.7931773 30.7582503,23.4645343 C31.0503774,23.1724073 31.5479563,23.1840634 31.9341111,23.4694483 L32.0730772,23.5892399 L33.3811647,24.8973274 Z" id="Shape" fill="#83B81A" fill-rule="nonzero" transform="translate(25.000000, 24.000000) scale(1, -1) rotate(-90.000000) translate(-25.000000, -24.000000) "></path>
    </g>
</svg>