<?xml version="1.0" encoding="UTF-8"?>
<svg width="48px" height="48px" viewBox="0 0 48 48" version="1.1" xmlns="http://www.w3.org/2000/svg" xmlns:xlink="http://www.w3.org/1999/xlink">
    <title>icon/icon-search</title>
    <g id="icon/icon-search" stroke="none" stroke-width="1" fill="none" fill-rule="evenodd">
        <path d="M34.7002223,12.8142675 C30.4041563,8.3647705 23.4452394,8.4015432 19.1491734,12.8878129 C15.3146681,16.8592647 14.888612,23.000306 17.871005,27.449803 L10.6635553,34.9882069 C9.88245239,35.7972064 9.88245239,37.084251 10.6635553,37.8932504 L10.6635553,37.8932504 C11.4446582,38.7022499 12.687322,38.7022499 13.4684249,37.8932504 L20.6758745,30.3548464 C24.9364359,33.4437534 30.8657171,32.9657083 34.7002223,28.9942565 C38.9962884,24.5079868 38.9962884,17.2637644 34.7002223,12.8142675 Z M31.7533341,25.9421222 C29.0904832,28.7368476 24.7589125,28.7368476 22.0960616,25.9788949 C19.4332108,23.2209422 19.4332108,18.7346725 22.0960616,15.9399472 C24.7589125,13.1452218 29.0904832,13.1452218 31.7533341,15.9031745 C34.4161849,18.6611271 34.4161849,23.1473968 31.7533341,25.9421222 Z" id="Shape" fill="#ffffff" fill-rule="nonzero"></path>
    </g>
</svg>