<?xml version="1.0" encoding="UTF-8"?>
<svg width="48px" height="48px" viewBox="0 0 48 48" version="1.1" xmlns="http://www.w3.org/2000/svg" xmlns:xlink="http://www.w3.org/1999/xlink">
    <title>icon/icon-transport</title>
    <g id="icon/icon-transport" stroke="none" stroke-width="1" fill="none" fill-rule="evenodd">
        <path d="M41.8388378,32.8884147 C42.3801069,32.8884147 42.8193978,33.3277055 42.8193978,33.8689747 C42.8193978,34.4102438 42.3801069,34.8495347 41.8388378,34.8495347 L6.1611622,34.8495347 C5.61989308,34.8495347 5.1806022,34.4102438 5.1806022,33.8689747 C5.1806022,33.3277055 5.61989308,32.8884147 6.1611622,32.8884147 L41.8388378,32.8884147 Z M41.8388378,15.1504653 C42.3801069,15.1504653 42.8193978,15.5887757 42.8193978,16.1310253 L42.8193978,30.2069641 C42.8193978,30.7482333 42.3801069,31.1875241 41.8388378,31.1875241 L41.8226022,31.1864653 L16.7737631,31.1871319 C16.2638719,31.1871319 15.710836,31.2008598 15.1342668,31.2145876 C14.4723888,31.229296 13.7918801,31.2459655 13.1143132,31.2459655 C10.5226931,31.2459655 7.95754812,31.0125922 6.54063892,29.6280415 C5.85522748,28.958319 5.50810924,28.0973874 5.50810924,27.0668188 C5.50810924,22.5003509 12.457338,15.1510537 16.7737631,15.1510537 L41.8388378,15.1504653 L41.8388378,15.1504653 Z M40.8576022,17.1114653 L16.7737631,17.1121737 C15.714663,17.1121737 14.3445273,17.8178749 12.9829162,18.8874686 L16.124044,18.8880524 C17.4399555,18.8880524 18.5107271,19.9588239 18.5107271,21.2737549 C18.5107271,22.5886858 17.4399555,23.6584768 16.124044,23.6584768 L8.70696205,23.6590882 C7.94757879,24.8954743 7.46922924,26.1017356 7.46922924,27.0668188 C7.46922924,27.5629822 7.60944932,27.9306922 7.91048124,28.2248602 C9.10872556,29.3946682 12.5622579,29.3132818 15.0881804,29.2534676 C15.6804387,29.2397398 16.250144,29.2260119 16.7737631,29.2260119 L40.8576022,29.2254653 L40.8576022,23.6584653 L22.7306651,23.6584768 C21.4147536,23.6584768 20.3449626,22.5886858 20.3449626,21.2737549 C20.3449626,19.9588239 21.4147536,18.8880524 22.7306651,18.8880524 L40.8576022,18.8874653 L40.8576022,17.1114653 Z M40.8576022,19.8684653 L22.7306651,19.8686124 C21.9560227,19.8686124 21.3255226,20.4991125 21.3255226,21.2737549 C21.3255226,22.0483973 21.9560227,22.6779168 22.7306651,22.6779168 L40.8576022,22.6774653 L40.8576022,19.8684653 Z M16.124044,19.8686124 L11.8430589,19.8688093 C10.937332,20.7172154 10.0771391,21.689506 9.363055,22.678104 L16.124044,22.6779168 C16.899667,22.6779168 17.5301671,22.0483973 17.5301671,21.2737549 C17.5301671,20.4991125 16.899667,19.8686124 16.124044,19.8686124 Z" id="Fill-20" fill="#583096"></path>
    </g>
</svg>