<svg width="182" height="127" viewBox="0 0 182 127" xmlns="http://www.w3.org/2000/svg"><path d="M593.853792,285.5 C617.363086,285.5 635.340781,267.983271 635.340781,245.856877 C635.340781,230.644981 627.50435,219.581784 611.370521,212.667286 L635.340781,161.5 L593.853792,161.5 L566.195799,207.596654 C553.749703,228.340149 552.366803,234.332714 552.366803,245.856877 C552.366803,267.983271 570.344498,285.5 593.853792,285.5 Z M689.273866,285.5 C711.861227,285.5 730.299889,267.983271 730.299889,245.856877 C730.299889,230.644981 722.463457,219.581784 706.790595,212.667286 L730.760855,161.5 L689.273866,161.5 L661.615874,207.596654 C651.935576,223.730483 647.325911,236.17658 647.325911,245.856877 C647.325911,267.983271 665.764573,285.5 689.273866,285.5 Z" transform="rotate(180 366.374 143.489)" stroke="#F7DDCF" stroke-width="1.4" fill="none" opacity=".68" stroke-linecap="square"/></svg>