<svg width="48" height="48" viewBox="0 0 48 48" xmlns="http://www.w3.org/2000/svg"><g transform="translate(10.847 6.304)" fill="#583096"><path d="M23.785868,0 L2.52066038,0 C1.14575472,0 0,1.14575472 0,2.52066038 L0,32.8704299 C0,34.2453355 1.14575472,35.3910902 2.52066038,35.3910902 L23.785868,35.3910902 C25.1607737,35.3910902 26.3065284,34.2453355 26.3065284,32.8704299 L26.3065284,2.52066038 C26.3065284,1.14575472 25.1607737,0 23.785868,0 Z M24.2091149,32.222192 C24.2091149,32.7047886 23.8142631,33.0996404 23.3316664,33.0996404 L2.97486196,33.0996404 C2.4922653,33.0996404 2.09741349,32.7047886 2.09741349,32.222192 L2.09741349,3.16889826 C2.09741349,2.68630161 2.4922653,2.2914498 2.97486196,2.2914498 L23.3316664,2.2914498 C23.8142631,2.2914498 24.2091149,2.68630161 24.2091149,3.16889826 L24.2091149,32.222192 Z M13.1845638,5.89712701 C8.92235621,5.89712701 5.60802029,9.22205244 5.60802029,13.4384298 C5.60802029,17.6548072 8.92235621,20.9579281 13.1845638,20.9579281 C17.4467713,20.9579281 20.6985081,17.7006374 20.6985081,13.48426 C20.6985081,9.26788262 17.4467713,5.89712701 13.1845638,5.89712701 Z M18.2717147,10.092826 L15.9343751,10.092826 C15.7510543,9.13039206 15.430243,8.30544866 15.1094317,7.66382602 C16.392677,8.07629772 17.5384317,8.9470713 18.2717147,10.092826 Z M10.8930543,13.255109 C10.8930543,12.2468449 10.9847147,11.3916938 11.1680355,10.5667504 L15.2010921,10.5667504 C15.3385826,11.3916938 15.430243,12.2010147 15.4760732,13.255109 L10.8930543,13.255109 Z M15.4760732,13.8464991 C15.4760732,14.8547633 15.3844128,15.4764467 15.2010921,16.3013901 L11.1680355,16.3013901 C11.0305449,15.4764467 10.9388845,14.9005935 10.8930543,13.8464991 L15.4760732,13.8464991 Z M13.1845638,7.34301469 C13.4595449,7.34301469 13.6886958,7.34301469 13.963677,7.38884488 C14.4219789,7.89297696 14.8344506,8.85541092 15.1094317,10.092826 L11.2596958,10.092826 C11.534677,8.85541092 11.9471487,7.89297696 12.4054506,7.38884488 C12.6346015,7.34301469 12.9095826,7.34301469 13.1845638,7.34301469 Z M11.2596958,7.61799583 C10.8930543,8.25961847 10.6180732,9.08456187 10.4347524,10.0469958 L8.05158263,10.0469958 C8.83069584,8.9470713 9.93062037,8.07629772 11.2596958,7.61799583 Z M7.82243168,10.5667504 L10.3430921,10.5667504 C10.2056015,11.3916938 10.1139411,12.2468449 10.1139411,13.255109 L7.04331847,13.255109 C7.08914866,12.2468449 7.36412979,11.3916938 7.82243168,10.5667504 Z M7.04331847,13.8464991 L10.1139411,13.8464991 C10.1139411,14.8547633 10.2056015,15.4306166 10.3430921,16.3013901 L7.82243168,16.3013901 C7.36412979,15.4306166 7.08914866,14.8547633 7.04331847,13.8464991 Z M8.05158263,16.8298638 L10.4347524,16.8298638 C10.6180732,17.7922977 10.9388845,18.6172411 11.2596958,19.2588638 C9.93062037,18.8463921 8.83069584,17.9756185 8.05158263,16.8298638 Z M13.1845638,19.5796751 C12.9095826,19.5796751 12.6804317,19.5796751 12.4054506,19.5338449 C11.9471487,19.0297128 11.534677,18.0672789 11.2596958,16.8298638 L15.1094317,16.8298638 C14.8344506,18.0672789 14.4219789,19.0297128 13.963677,19.5338449 C13.6886958,19.5796751 13.4595449,19.5796751 13.1845638,19.5796751 Z M15.0636015,19.2588638 C15.430243,18.6172411 15.7052242,17.7922977 15.8885449,16.8298638 L18.2717147,16.8298638 C17.5384317,17.9756185 16.392677,18.8463921 15.0636015,19.2588638 Z M18.5466959,16.25556 L16.0260355,16.25556 C16.163526,15.4306166 16.2551864,14.8089331 16.2551864,13.8006689 L19.3258091,13.8006689 C19.2799789,14.8547633 19.0049977,15.4306166 18.5466959,16.25556 Z M16.2551864,13.255109 C16.2551864,12.2468449 16.163526,11.437524 16.0260355,10.5667504 L18.5466959,10.5667504 C19.0049977,11.3916938 19.2799789,12.2468449 19.3258091,13.255109 L16.2551864,13.255109 Z"/><path d="M18.9152817 27.6989214C19.2604597 27.6989214 19.5402817 27.9787435 19.5402817 28.3239214 19.5402817 28.6377196 19.3090238 28.8975046 19.0076396 28.9421448L18.9152817 28.9489214 7.38145352 28.9489214C7.03627555 28.9489214 6.75645352 28.6690994 6.75645352 28.3239214 6.75645352 28.0101233 6.9877114 27.7503383 7.2890956 27.705698L7.38145352 27.6989214 18.9152817 27.6989214ZM20.2599841 24.5705451C20.6051621 24.5705451 20.8849841 24.8503672 20.8849841 25.1955451 20.8849841 25.5093433 20.6537262 25.7691283 20.352342 25.8137685L20.2599841 25.8205451 5.98909264 25.8205451C5.64391467 25.8205451 5.36409264 25.5407231 5.36409264 25.1955451 5.36409264 24.881747 5.59535052 24.621962 5.89673472 24.5773217L5.98909264 24.5705451 20.2599841 24.5705451Z"/></g></svg>