<?xml version="1.0" encoding="UTF-8"?>
<svg width="16px" height="16px" viewBox="0 0 16 16" version="1.1" xmlns="http://www.w3.org/2000/svg" xmlns:xlink="http://www.w3.org/1999/xlink">
    <title>Path 3</title>
    <g id="Symbols" stroke="none" stroke-width="1" fill="none" fill-rule="evenodd">
        <g id="button/download/yellow" transform="translate(-89.000000, -16.000000)" fill="#293A4D" fill-rule="nonzero">
            <path d="M103.290566,26.2858595 C103.77934,26.2858595 104.154067,26.6605863 104.170359,27.1330678 L104.170359,27.1330678 L104.170359,30.6033634 C104.170359,31.0758449 103.77934,31.4668641 103.306859,31.4668641 L103.306859,31.4668641 L90.5498566,31.4668641 C90.077375,31.4668641 89.6863558,31.0758449 89.6863558,30.6033634 L89.6863558,30.6033634 L89.6863558,27.1330678 C89.6863558,26.6605863 90.0610825,26.2858595 90.5335641,26.2858595 C91.0060456,26.2858595 91.3970649,26.6768787 91.3970649,27.1493603 L91.3970649,27.1493603 L91.3970649,29.7561551 L102.427065,29.7561551 L102.427065,27.1493603 C102.427065,26.6768787 102.818084,26.2858595 103.290566,26.2858595 Z M96.9202113,15.9890201 C97.3926929,15.9890201 97.7837121,16.3800393 97.7837121,16.8525209 L97.7837121,16.8525209 L97.7837121,24.281886 L100.243875,21.805431 C100.586016,21.4632892 101.123668,21.4632892 101.46581,21.805431 C101.807952,22.1475728 101.807952,22.6852242 101.46581,23.027366 L101.46581,23.027366 L97.5230326,26.9701431 C97.3601079,27.1330678 97.1483058,27.2145301 96.9202113,27.2145301 C96.7084092,27.2145301 96.4803147,27.1330678 96.31739,26.9701431 L96.31739,26.9701431 L92.3583204,23.027366 C92.0161786,22.6852242 92.0161786,22.1475728 92.3583204,21.805431 C92.7004622,21.4632892 93.2381137,21.4632892 93.5802555,21.805431 L93.5802555,21.805431 L96.0567105,24.2981785 L96.0567105,16.8525209 C96.0567105,16.3800393 96.4477297,15.9890201 96.9202113,15.9890201 Z" id="Path-3" transform="translate(96.928358, 23.727942) scale(-1, 1) translate(-96.928358, -23.727942) "></path>
        </g>
    </g>
</svg>