<?xml version="1.0" encoding="UTF-8"?>
<svg width="48px" height="48px" viewBox="0 0 48 48" version="1.1" xmlns="http://www.w3.org/2000/svg" xmlns:xlink="http://www.w3.org/1999/xlink">
    <title>icon/icon-map</title>
    <g id="icon/icon-map" stroke="none" stroke-width="1" fill="none" fill-rule="evenodd">
        <path d="M20.0968196,7.19229328 C19.9055661,7.11287759 19.7035284,7.10624901 19.5115316,7.14518042 L19.3697421,7.18249606 L19.3352309,7.19569989 L10.3848841,11.1762368 C9.95667541,11.3094121 9.63532831,11.7003044 9.57465318,12.1408735 L9.56429364,12.2892845 L9.56429364,37.2120721 C9.56429364,37.9108082 10.2690397,38.4721111 10.9759428,38.3450857 L11.1171441,38.3103397 L19.7010381,34.464048 L28.3620425,39.4600743 C28.496726,39.5019393 28.6384587,39.5186853 28.7870454,39.5072037 L28.9379097,39.4861978 L29.0933,39.4456827 L38.043666,35.4651399 C38.4718737,35.3319386 38.7932063,34.941066 38.853879,34.5004914 L38.8642381,34.3520777 L38.8642381,9.42929008 C38.8642381,8.73054419 38.1594829,8.16924464 37.4525866,8.29629216 L37.3113869,8.33104286 L28.7296381,12.176048 L20.0968196,7.19229328 Z M20.0591771,9.00519206 L20.083978,9.00613884 L28.3887153,14.0102045 L36.6646546,10.3821439 L36.9197165,10.3002081 C37.0592968,10.2627814 37.1816864,10.2595039 37.2186057,10.3936791 L37.2299552,10.4756549 L37.2299552,33.2132114 C37.2296722,33.3593866 37.1359689,33.5078957 36.9849978,33.5910763 L28.5369719,37.2642093 L28.4741703,37.2788743 L28.3445531,37.2926499 L20.0398157,32.6007077 L11.7638882,36.2287647 C11.5468785,36.2947039 11.2689983,36.1197709 11.2099263,35.9050907 L11.1985765,35.8231152 L11.1985765,13.0855584 C11.1988594,12.9393975 11.2925675,12.7908834 11.4435361,12.7077079 L19.9079512,9.02973337 L19.9570751,9.01770653 L20.0591771,9.00519206 Z M19.6125974,8.62541749 L19.6128381,8.77684796 L11.1985757,12.6655819 L11.1985757,36.6486276 L19.7290381,32.705648 L28.6022381,37.713448 L28.6011516,37.7723146 L28.6596381,37.747048 L28.8159331,37.8356576 L28.8164381,37.677048 L37.2299544,33.98051 L37.2299544,10.0040069 L28.6988381,13.752448 L19.8284381,8.74604796 L19.8273794,8.67752906 L19.7612381,8.70824796 L19.6125974,8.62541749 Z M36.5304381,11.075648 L36.5304381,33.523248 L29.3022381,36.699848 L29.3022381,14.252248 L36.5304381,11.075648 Z M20.3128381,9.82404796 L28.1164381,14.227048 L28.1164381,36.635448 L20.3128381,32.232448 L20.3128381,9.82404796 Z M19.1284381,9.77084796 L19.1284381,32.212848 L11.8988381,35.553248 L11.8988381,13.112648 L19.1284381,9.77084796 Z" id="Shape" fill="#FFFFFF" fill-rule="nonzero"></path>
    </g>
</svg>