<svg width="26" height="18" viewBox="0 0 26 18" xmlns="http://www.w3.org/2000/svg"><path d="M26.0006321,117.05 C29.2236804,117.05 31.6883644,114.648513 31.6883644,111.615056 C31.6883644,109.529554 30.614015,108.012825 28.4021191,107.06487 L31.6883644,100.05 L26.0006321,100.05 L22.2088105,106.369703 C20.5024908,109.213569 20.3128997,110.03513 20.3128997,111.615056 C20.3128997,114.648513 22.7775837,117.05 26.0006321,117.05 Z M39.0824165,117.05 C42.1790707,117.05 44.7069518,114.648513 44.7069518,111.615056 C44.7069518,109.529554 43.6326023,108.012825 41.4839035,107.06487 L44.7701488,100.05 L39.0824165,100.05 L35.2905949,106.369703 C33.9634574,108.581599 33.3314871,110.287918 33.3314871,111.615056 C33.3314871,114.648513 35.8593681,117.05 39.0824165,117.05 Z" transform="translate(-19.38 -100.022)" fill="#F6A924"/></svg>