<?xml version="1.0" encoding="UTF-8"?>
<svg width="48px" height="48px" viewBox="0 0 48 48" version="1.1" xmlns="http://www.w3.org/2000/svg" xmlns:xlink="http://www.w3.org/1999/xlink">
    <title>icon/icon-cart</title>
    <g id="icon/icon-cart" stroke="none" stroke-width="1" fill="none" fill-rule="evenodd">
        <path d="M37.2134669,17.8630186 C37.0963816,16.3280978 35.8294621,15.1349794 34.2902829,15.1101171 L31.4522402,15.1101171 L31.4522402,13.506623 C31.4522402,9.36082959 28.0914106,6 23.9456172,6 C19.7998238,6 16.4389942,9.36082959 16.4389942,13.506623 L16.4389942,15.1101171 L13.6009514,15.1101171 C12.0667953,15.1343225 10.8017855,16.3195016 10.6777674,17.8488284 L9.55674056,37.0198069 C9.48436751,37.7880039 9.74111636,38.5508637 10.2632391,39.1189766 C10.7853619,39.6870894 11.5238889,40.0071722 12.2954518,39.999878 L35.7093042,39.999878 C36.4701289,40.0057416 37.1987984,39.6933202 37.7189945,39.138085 C38.2391906,38.5828498 38.5035176,37.835389 38.4480155,37.0765678 L38.4480155,37.0765678 L37.2134669,17.8630186 Z M19.3337977,13.506623 C19.3337977,10.9282373 21.4239924,8.83804282 24.002378,8.83804282 C26.5807637,8.83804282 28.6709583,10.9282373 28.6709583,13.506623 L28.6709583,15.1101171 L19.3337977,15.1101171 L19.3337977,13.506623 Z M12.3805931,37.1617091 L13.7144731,17.9197794 L16.5525159,17.9197794 L16.5525159,21.211909 C16.5525159,21.9956128 17.1878334,22.6309303 17.9715372,22.6309303 C18.7552411,22.6309303 19.3905586,21.9956128 19.3905586,21.211909 L19.3905586,17.9765403 L28.7277191,17.9765403 L28.7277191,21.211909 C28.7277191,21.9956128 29.3630366,22.6309303 30.1467405,22.6309303 C30.9304444,22.6309303 31.5657619,21.9956128 31.5657619,21.211909 L31.5657619,18.0191109 L34.4038046,18.0191109 L35.6099727,37.1617091 L12.3805931,37.1617091 Z" id="Panier" fill="#293A4D" fill-rule="nonzero"></path>
    </g>
</svg>