<?xml version="1.0" encoding="UTF-8"?>
<svg width="48px" height="48px" viewBox="0 0 48 48" version="1.1" xmlns="http://www.w3.org/2000/svg" xmlns:xlink="http://www.w3.org/1999/xlink">
    <title>icon/icon-stand</title>
    <g id="icon/icon-stand" stroke="none" stroke-width="1" fill="none" fill-rule="evenodd">
        <path d="M9.67550942,6.88886995 C9.42740167,7.94406189 8.45442297,9.81874332 7.82158138,11.711754 C7.50516059,12.6582594 7.26228547,13.6338838 7.31464792,14.6663091 C7.36701084,15.6987343 7.82851572,16.8441769 8.77751334,17.5774173 C9.03972392,17.7599727 9.36714645,17.8834322 9.63205796,17.9974279 L9.63205796,25.0150816 L8.70509395,25.0150816 C7.97707832,25.015128 7.31472072,25.6774485 7.31464792,26.4054725 C7.31464653,30.4614669 7.31464792,34.5394398 7.31464792,38.5857433 C7.37906791,39.269254 8.01855079,39.8487612 8.70509395,39.8457937 L9.63205796,39.8457937 L9.63205796,40.77269 C9.62167153,41.5072519 10.2878406,42.18288 11.022504,42.18288 C11.7571674,42.18288 12.4233392,41.5072519 12.41295,40.77269 L12.41295,39.8457937 L35.58705,39.8457937 L35.58705,40.77269 C35.5766636,41.5072519 36.2428326,42.18288 36.977496,42.18288 C37.7121594,42.18288 38.3783308,41.5072519 38.367942,40.77269 L38.367942,39.8457937 L39.2949061,39.8457937 C40.0229217,39.845701 40.6852793,39.1833804 40.6853521,38.4554028 L40.6853521,26.4054725 C40.6852793,25.6774485 40.0229217,25.015128 39.2949061,25.0150816 L38.367942,25.0150816 L38.367942,17.9974279 C38.6958027,17.8827738 38.9524431,17.7334039 39.2224867,17.5774173 C40.1714843,16.8441769 40.6329892,15.6987343 40.6853521,14.6663091 C40.7377145,13.6338838 40.4948394,12.6582594 40.1784186,11.711754 C39.545577,9.81874332 38.5725983,7.94406189 38.3244906,6.88886995 C38.1826611,6.28666092 37.5962014,5.82004118 36.977496,5.81712 C27.8771593,5.81712 18.6748793,5.81712 10.8776661,5.81712 C10.3085879,5.88026858 9.80327505,6.33076152 9.67550942,6.88886995 Z M11.9929195,8.59787851 L36.0070805,8.59787851 C36.4825631,9.97481337 37.112904,11.353909 37.5278809,12.5952221 C37.7895383,13.3779139 37.9274168,14.0688435 37.90446,14.5214786 C37.8848232,14.9086885 37.8022149,15.0883367 37.6002999,15.2746016 C36.7058291,15.721297 36.1836378,15.5946057 35.4132442,15.0428729 C34.6087524,14.466718 33.7514698,13.3260327 33.1103181,12.1172793 C32.8334474,11.599766 32.202811,11.2979196 31.6260678,11.4068566 C31.049325,11.5157889 30.5722478,12.0268617 30.5032319,12.6097074 C30.257022,14.8860192 28.9114977,15.5820863 27.7513073,15.5497817 C26.3842994,15.5117136 25.3702293,14.3404626 25.3904458,13.2469614 C25.3903095,13.2322164 25.3907189,13.2182596 25.3904458,13.2035146 C25.3802402,12.4820702 24.7215535,11.8326586 24.0000002,11.8326586 C23.2784465,11.8326586 22.6197575,12.4820702 22.6095542,13.2035146 C22.6092811,13.218306 22.6096905,13.2322627 22.6095542,13.2469614 C22.6297707,14.3404626 21.6157006,15.5117368 20.2486927,15.5497817 C19.0885023,15.5821002 17.742978,14.8860192 17.4967681,12.6097074 C17.4277522,12.0268617 16.950675,11.5157889 16.3739322,11.4068566 C15.797189,11.2979196 15.1665526,11.599766 14.8896819,12.1172793 C14.2485302,13.3260327 13.3912476,14.466718 12.5867558,15.0428729 C11.8163622,15.5946057 11.2941709,15.721297 10.3997001,15.2746016 C10.1977851,15.0883367 10.1151787,14.9086885 10.09554,14.5214786 C10.0725832,14.0688435 10.2104617,13.3779139 10.4721191,12.5952221 C10.887096,11.353909 11.5174369,9.97481337 11.9929195,8.59787851 Z M15.8021624,15.738059 C16.8855373,17.398613 18.6025017,18.3788001 20.3355956,18.3305403 C21.7954842,18.2898755 23.0824962,17.6459585 24.0000002,16.6794639 C24.9175038,17.6459585 26.2045158,18.289908 27.6644044,18.3305403 C29.3974983,18.3788001 31.1144627,17.398613 32.1978381,15.738059 C32.6683351,16.3136806 33.1803421,16.8648617 33.7910574,17.3022371 C34.3157266,17.6779941 34.9261896,17.9674139 35.58705,18.1277776 L35.58705,25.0150816 L12.41295,25.0150816 L12.41295,18.1277776 C13.0738104,17.9674139 13.6842734,17.6779941 14.2089426,17.3022371 C14.8196579,16.8648617 15.3316649,16.3136806 15.8021624,15.738059 Z M10.09554,27.795817 L37.90446,27.795817 L37.90446,29.6721693 L10.09554,29.6721693 L10.09554,27.795817 Z M10.09554,32.452951 L37.90446,32.452951 L37.90446,37.065012 L10.09554,37.065012 L10.09554,32.452951 Z" id="Shape" fill="#215AD6" fill-rule="nonzero"></path>
    </g>
</svg>