<?xml version="1.0" encoding="UTF-8"?>
<svg width="48px" height="48px" viewBox="0 0 48 48" version="1.1" xmlns="http://www.w3.org/2000/svg" xmlns:xlink="http://www.w3.org/1999/xlink">
    <title>icon/icon-accreditation</title>
    <g id="icon/icon-accreditation" stroke="none" stroke-width="1" fill="none" fill-rule="evenodd">
        <path d="M5.32818444,11.489853 C5.32818444,10.196493 6.38082444,9.14385303 7.67418444,9.14385303 L40.4273598,9.14385303 C41.7207198,9.14385303 42.7733598,10.196493 42.7733598,11.489853 L42.7733598,36.5267967 C42.7733598,37.8205647 41.7207198,38.8727967 40.4273598,38.8727967 L7.67418444,38.8727967 C6.38082444,38.8727967 5.32818444,37.8205647 5.32818444,36.5267967 L5.32818444,11.489853 Z M7.02952941,6.49198232 C4.57336941,6.49198232 2.57539341,8.48995832 2.57539341,10.9461183 L2.57539341,37.0538817 C2.57539341,39.5100417 4.57336941,41.5080177 7.02952941,41.5080177 L40.9708703,41.5080177 C43.4266223,41.5080177 45.4246066,39.5100417 45.4246066,37.0538817 L45.4246066,10.9461183 C45.4246066,8.48995832 43.4266223,6.49198232 40.9708703,6.49198232 L7.02952941,6.49198232 Z M38.4787426,29.7396882 C39.0597346,29.7396882 39.5330146,29.2668162 39.5330146,28.6854162 C39.5330146,28.1044242 39.0597346,27.6315522 38.4787426,27.6315522 L9.57887859,27.6315522 C8.99788659,27.6315522 8.52501459,28.1044242 8.52501459,28.6854162 C8.52501459,29.2668162 8.99788659,29.7396882 9.57887859,29.7396882 L38.4787426,29.7396882 Z M14.6790826,31.8816882 C14.0976826,31.8816882 13.6248106,32.3545602 13.6248106,32.9355522 C13.6248106,33.5165442 14.0976826,33.9894162 14.6790826,33.9894162 L33.3789466,33.9894162 C33.9599386,33.9894162 34.4328106,33.5165442 34.4328106,32.9355522 C34.4328106,32.3545602 33.9599386,31.8816882 33.3789466,31.8816882 L14.6790826,31.8816882 Z M22.5902434,23.2993214 C22.7905714,23.5339214 23.0826994,23.6681534 23.3911474,23.6681534 C23.4148114,23.6681534 23.4388834,23.6673374 23.4503074,23.6657054 C23.7767074,23.6477534 24.0810754,23.4747614 24.2638594,23.2034414 L29.5768354,15.3412814 C29.9016034,14.8598414 29.7747154,14.2033694 29.2932754,13.8773774 C28.8118354,13.5526094 28.1549554,13.6799054 27.8301874,14.1613454 L23.2924114,20.8770254 L21.6771394,18.9892094 C21.4943554,18.7754174 21.2389474,18.6452654 20.9586514,18.6236414 C20.6771314,18.6020174 20.4054034,18.6901454 20.1916114,18.8733374 C19.9774114,19.0565294 19.8472594,19.3119374 19.8256354,19.5926414 C19.8036034,19.8733454 19.8925474,20.1458894 20.0753314,20.3596814 L22.5902434,23.2993214 Z" id="Fill-1" fill="#424B5A" fill-rule="nonzero"></path>
    </g>
</svg>