<?xml version="1.0" encoding="UTF-8"?>
<svg width="48px" height="48px" viewBox="0 0 48 48" version="1.1" xmlns="http://www.w3.org/2000/svg" xmlns:xlink="http://www.w3.org/1999/xlink">
    <title>icon/icon-user</title>
    <g id="icon/icon-user" stroke="none" stroke-width="1" fill="none" fill-rule="evenodd">
        <path d="M29.868288,27.6754627 C33.1968779,25.16122 34.5436317,20.8076144 33.2139918,16.8599193 C31.8843519,12.9122242 28.1754226,10.252541 24,10.252541 C19.8245774,10.252541 16.1156481,12.9122242 14.7860082,16.8599193 C13.4563683,20.8076144 14.8031221,25.16122 18.131712,27.6754627 C13.927488,29.5523286 11.04,33.3577645 11.04,37.747459 C11.26769,38.5561295 11.7559476,38.9604648 12.5047729,38.9604648 C13.2535981,38.9604648 13.7261085,38.5561295 13.922304,37.747459 C13.922304,33.1716291 18.442752,29.4747721 24,29.4747721 C29.557248,29.4747721 34.077696,33.1974812 34.077696,37.747459 C34.2666846,38.5561295 34.7473658,38.9604648 35.5197396,38.9604648 C36.2921134,38.9604648 36.7722002,38.5561295 36.96,37.747459 C36.96,33.3577645 34.072512,29.5523286 29.868288,27.6754627 Z M24,13.5136569 C27.5788052,13.5136569 30.48,16.4072569 30.48,19.9766935 C30.48,23.5461301 27.5788052,26.4397301 24,26.4397301 C20.4223796,26.4368789 17.5228587,23.5449484 17.52,19.9766935 C17.52,16.4072569 20.4211948,13.5136569 24,13.5136569 Z" id="Shape" fill="#293A4D" fill-rule="nonzero"></path>
    </g>
</svg>