<?xml version="1.0" encoding="UTF-8"?>
<svg width="48px" height="48px" viewBox="0 0 48 48" version="1.1" xmlns="http://www.w3.org/2000/svg" xmlns:xlink="http://www.w3.org/1999/xlink">
    <title>icon/social-youtube</title>
    <g id="icon/social-youtube" stroke="none" stroke-width="1" fill="none" fill-rule="evenodd">
        <path d="M20.0352,29.0159328 L20.034,18.1501936 L30.4092,23.6017952 L20.0352,29.0159328 Z M42.816,16.2673304 C42.816,16.2673304 42.4404,13.6025592 41.2896,12.4290928 C39.8292,10.8882392 38.1924,10.880988 37.4424,10.7915584 C32.0688,10.4 24.0084,10.4 24.0084,10.4 L23.9916,10.4 C23.9916,10.4 15.9312,10.4 10.5576,10.7915584 C9.8064,10.880988 8.1708,10.8882392 6.7092,12.4290928 C5.5584,13.6025592 5.184,16.2673304 5.184,16.2673304 C5.184,16.2673304 4.8,19.3973784 4.8,22.5262184 L4.8,25.460488 C4.8,28.590536 5.184,31.719376 5.184,31.719376 C5.184,31.719376 5.5584,34.3841472 6.7092,35.5576128 C8.1708,37.0984672 10.0896,37.0501264 10.944,37.2108592 C14.016,37.5081528 24,37.6 24,37.6 C24,37.6 32.0688,37.5879152 37.4424,37.1963568 C38.1924,37.1057184 39.8292,37.0984672 41.2896,35.5576128 C42.4404,34.3841472 42.816,31.719376 42.816,31.719376 C42.816,31.719376 43.2,28.590536 43.2,25.460488 L43.2,22.5262184 C43.2,19.3973784 42.816,16.2673304 42.816,16.2673304 L42.816,16.2673304 Z" id="Youtube" fill="#293A4D" fill-rule="nonzero"></path>
    </g>
</svg>