<?xml version="1.0" encoding="UTF-8"?>
<svg width="48px" height="48px" viewBox="0 0 48 48" version="1.1" xmlns="http://www.w3.org/2000/svg" xmlns:xlink="http://www.w3.org/1999/xlink">
    <title>icon/icon-prices</title>
    <g id="icon/icon-prices" stroke="none" stroke-width="1" fill="none" fill-rule="evenodd">
        <path d="M9.03959608,26.172921 L21.8280596,38.9604039 L39.3653752,21.4230883 L39.3663558,13.0138058 L34.9871748,8.63364424 L26.5778922,8.63364424 L9.03959608,26.172921 Z M21.8280596,41.3274758 C21.5770362,41.3274758 21.3260129,41.2313809 21.1348037,41.0401717 L6.95982832,26.8661769 C6.77548304,26.6818316 6.67252424,26.4327694 6.67252424,26.172921 C6.67252424,25.9130726 6.77548304,25.6630298 6.95982832,25.479665 L25.4786845,6.95982832 C25.6630298,6.7764636 25.912092,6.67252424 26.1719404,6.67252424 L35.3931266,6.67252424 C35.652975,6.67252424 35.9030178,6.7764636 36.0863826,6.95982832 L41.0401717,11.914598 C41.2235364,12.0979627 41.3274758,12.3480055 41.3274758,12.6078539 L41.3264952,21.8290402 C41.3264952,22.0888886 41.2225558,22.3389314 41.0391911,22.5222961 L22.5213155,41.0401717 C22.3301063,41.2313809 22.079083,41.3274758 21.8280596,41.3274758 L21.8280596,41.3274758 Z M32.989449,13.6522374 C32.625785,13.6522374 32.284969,13.7931334 32.027929,14.0501734 C31.499569,14.5794854 31.500521,15.4419974 32.029833,15.9722614 C32.541057,16.4844374 33.436889,16.4853894 33.950017,15.9722614 C34.478377,15.4419974 34.478377,14.5794854 33.950017,14.0492214 C33.693929,13.7931334 33.352161,13.6522374 32.989449,13.6522374 M32.989449,17.3221974 C32.372553,17.3221974 31.791833,17.0813414 31.355817,16.6453254 C30.456177,15.7447334 30.455225,14.2786534 31.354865,13.3771094 C32.229753,12.5050774 33.749145,12.5050774 34.623081,13.3761574 C35.522721,14.2777014 35.522721,15.7437814 34.624033,16.6453254 C34.186113,17.0813414 33.606345,17.3221974 32.989449,17.3221974 M26.2503852,22.4392979 L26.2503852,21.4508935 L21.4848636,21.4508935 C21.9967159,19.7211856 23.4793226,18.3974296 25.4384815,18.3974296 C26.6916372,18.3974296 27.8212423,18.9798823 28.7390465,19.8800363 L29.8510015,18.7680813 C28.6507961,17.5678759 27.1328892,16.8265725 25.4384815,16.8265725 C22.5615185,16.8265725 20.4258588,18.8210315 19.808106,21.4508935 L18.0077978,21.4508935 L18.0077978,22.4392979 L26.2503852,22.4392979 Z M25.4384815,29.0404279 C27.1328892,29.0404279 28.6684462,28.2991245 29.8686516,27.0989191 L28.7566966,25.9693139 C27.8388924,26.8871181 26.6916372,27.4695707 25.4384815,27.4695707 C23.5322729,27.4695707 22.014366,26.1811149 21.5025137,24.4867072 L26.2503852,24.4867072 L26.2503852,23.5159528 L18.0077978,23.5159528 L18.0077978,24.4867072 L19.8257561,24.4867072 C20.4258588,27.0989191 22.6144687,29.0404279 25.4384815,29.0404279 Z" id="Fill-1" fill="#FFFFFF"></path>
    </g>
</svg>