<?xml version="1.0" encoding="UTF-8"?>
<svg width="48px" height="48px" viewBox="0 0 48 48" version="1.1" xmlns="http://www.w3.org/2000/svg" xmlns:xlink="http://www.w3.org/1999/xlink">
    <title>icon/icon-mail</title>
    <g id="icon/icon-mail" stroke="none" stroke-width="1" fill="none" fill-rule="evenodd">
        <path d="M7.19276861,9.23 C4.93214527,9.23 3.11828881,11.131407 3.11828881,13.415917 L3.11828881,34.5681926 C3.11828881,36.8526516 4.93214527,38.77 7.19276861,38.77 L40.8072312,38.77 C43.0678546,38.77 44.8817112,36.8526516 44.8817112,34.5681926 L44.8817112,13.415917 C44.8817112,11.131407 43.0678546,9.23 40.8072312,9.23 L7.19276912,9.23 L7.19276861,9.23 Z M7.19276861,11.26724 L40.8072312,11.26724 C41.1086918,11.26724 41.3933452,11.3540773 41.6507505,11.4741217 L25.2573834,27.0399797 C24.5049288,27.7543379 23.5282251,27.7543888 22.7744972,27.0399797 L6.34924991,11.4741217 C6.60665518,11.3540773 6.89130853,11.26724 7.19276912,11.26724 L7.19276861,11.26724 Z M5.18736051,13.1771525 L16.7901043,24.175111 L5.37835176,35.5709221 C5.23543937,35.2741471 5.15552863,34.9344374 5.15552863,34.5681926 L5.15552863,13.415917 C5.15552863,13.333205 5.1794662,13.2568595 5.18710585,13.1771525 L5.18736051,13.1771525 Z M42.8126393,13.1771525 C42.8207883,13.2568595 42.8442166,13.333205 42.8442166,13.415917 L42.8442166,34.5681926 C42.8442166,34.9291405 42.760486,35.2613125 42.6213934,35.5549807 L31.2415212,24.1591696 L42.8123847,13.1771525 L42.8126393,13.1771525 Z M29.7615682,25.5757134 L40.9027269,36.73276 C40.8706403,36.73276 40.8395215,36.73276 40.8072312,36.73276 L7.19276912,36.73276 C7.16577569,36.73276 7.13980088,36.73276 7.1132149,36.73276 L18.2702615,25.5916039 L21.3738947,28.5201364 C22.8520651,29.92135 25.1801211,29.9233363 26.6579859,28.5201364 L29.7615682,25.5757134 Z" id="Shape" fill="#293A4D" fill-rule="nonzero"></path>
    </g>
</svg>