<?xml version="1.0" encoding="UTF-8"?>
<svg width="48px" height="48px" viewBox="0 0 48 48" version="1.1" xmlns="http://www.w3.org/2000/svg" xmlns:xlink="http://www.w3.org/1999/xlink">
    <title>icon/social-facebook</title>
    <g id="icon/social-facebook" stroke="none" stroke-width="1" fill="none" fill-rule="evenodd">
        <path d="M25.310684,43.2 L6.9193856,43.2 C5.7485384,43.2 4.8,42.2508736 4.8,41.0804824 L4.8,6.9193688 C4.8,5.74868 5.7486872,4.8 6.9193856,4.8 L41.080764,4.8 C42.251164,4.8 43.2,5.74868 43.2,6.9193688 L43.2,41.0804824 C43.2,42.2510224 42.2510152,43.2 41.080764,43.2 L31.295444,43.2 L31.295444,28.329404 L36.2868168,28.329404 L37.034204,22.5340688 L31.295444,22.5340688 L31.295444,18.8341128 C31.295444,17.1562296 31.7613696,16.012808 34.167432,16.012808 L37.2362488,16.0114664 L37.2362488,10.8280728 C36.7055088,10.7574464 34.8838272,10.599656 32.7644416,10.599656 C28.3398672,10.599656 25.310684,13.3004208 25.310684,18.2601672 L25.310684,22.5340688 L20.3064976,22.5340688 L20.3064976,28.329404 L25.310684,28.329404 L25.310684,43.2 L25.310684,43.2 Z" id="Facebook" fill="#ffffff" fill-rule="nonzero"></path>
    </g>
</svg>