<svg width="134" height="97" viewBox="0 0 134 97" xmlns="http://www.w3.org/2000/svg"><path d="M421.378116,136.673823 L456.142117,148.321767 L470.131815,188.586443 L500.69494,165.633026 L530.861381,176.737513 L553.605879,92.5864428 L421.378116,136.673823 Z M437.538993,136.685724 L530.003223,105.855499 L459.565494,144.064033 L437.538993,136.685724 Z M470.47164,173.958085 C470.643536,174.061223 470.8432,174.126015 471.058731,174.126015 C471.693424,174.126015 472.209113,173.609004 472.209113,172.975633 C472.209113,172.34094 471.693424,171.825252 471.058731,171.825252 C470.568166,171.825252 470.152971,172.133342 469.987686,172.567049 L467.619487,165.749386 C467.819151,165.918637 468.074351,166.02442 468.357318,166.02442 C468.993334,166.02442 469.506377,165.510054 469.506377,164.87536 C469.506377,164.240667 468.993334,163.724979 468.357318,163.724979 C467.804606,163.724979 467.343131,164.117695 467.233382,164.636028 L464.736922,157.449449 C464.947164,157.721838 465.273767,157.900346 465.644004,157.900346 C466.278698,157.900346 466.793064,157.38598 466.793064,156.751287 C466.793064,156.116593 466.278698,155.600905 465.644004,155.600905 C465.009311,155.600905 464.493623,156.116593 464.493623,156.751287 L464.493623,156.751287 L460.856037,146.28017 L467.292884,142.789357 C467.238671,142.921585 467.208259,143.065713 467.208259,143.216453 C467.208259,143.851146 467.722625,144.366834 468.357318,144.366834 C468.993334,144.366834 469.506377,143.851146 469.506377,143.216453 C469.506377,142.65713 469.108372,142.19301 468.579461,142.08855 L470.168838,141.226425 C470.380403,141.486914 470.697749,141.657488 471.058731,141.657488 C471.693424,141.657488 472.209113,141.140477 472.209113,140.507106 C472.209113,140.382812 472.183989,140.265129 472.148288,140.154058 L480.801273,135.45865 C480.955979,135.912191 481.38043,136.240116 481.884218,136.240116 C482.518911,136.240116 483.033277,135.724428 483.033277,135.089735 C483.033277,134.822635 482.938073,134.578013 482.784689,134.383638 L491.575191,129.615505 C491.573868,129.637984 491.569902,129.65914 491.569902,129.682941 C491.569902,130.317635 492.084268,130.832001 492.718961,130.832001 C493.353654,130.832001 493.86802,130.317635 493.86802,129.682941 C493.86802,129.254524 493.632655,128.884286 493.286218,128.688589 L494.746013,127.895222 C494.937743,128.036706 495.169141,128.123976 495.426985,128.123976 C496.060356,128.123976 496.577367,127.608288 496.577367,126.973595 C496.577367,126.949794 496.572078,126.929959 496.569433,126.906158 L502.567285,123.652033 C502.457536,123.827896 502.390099,124.034171 502.390099,124.257636 C502.390099,124.891007 502.905788,125.408018 503.540481,125.408018 C504.175174,125.408018 504.68954,124.891007 504.68954,124.257636 C504.68954,123.630877 504.188397,123.124444 503.564282,123.109899 L505.28721,122.176371 C505.493485,122.489751 505.847855,122.699993 506.25115,122.699993 C506.885843,122.699993 507.400209,122.185627 507.400209,121.550934 C507.400209,121.384327 507.364508,121.228298 507.301039,121.085492 L515.95799,116.388762 C516.071706,116.904451 516.530536,117.290556 517.080604,117.290556 C517.713975,117.290556 518.229663,116.774867 518.229663,116.141496 C518.229663,115.828117 518.102724,115.543827 517.899094,115.337552 L526.782155,110.51785 C526.770254,110.585286 526.759676,110.655366 526.759676,110.724125 C526.759676,111.358818 527.276687,111.875829 527.91138,111.875829 C528.546073,111.875829 529.060439,111.358818 529.060439,110.724125 C529.060439,110.246783 528.768216,109.838199 528.354343,109.663658 L529.833972,108.862358 C530.038925,109.050121 530.308669,109.166482 530.608826,109.166482 C531.243519,109.166482 531.757885,108.650794 531.757885,108.017423 C531.757885,107.952631 531.74863,107.889162 531.738051,107.827015 L538.907441,103.939518 L523.512162,116.661151 C523.594143,116.505123 523.64439,116.32926 523.64439,116.140174 C523.64439,115.505481 523.128702,114.989793 522.495331,114.989793 C521.859315,114.989793 521.344949,115.505481 521.344949,116.140174 C521.344949,116.773545 521.859315,117.289233 522.495331,117.289233 C522.606402,117.289233 522.712184,117.268077 522.815322,117.238987 L520.925787,118.799274 C520.903308,118.184415 520.402165,117.691206 519.780695,117.691206 C519.146001,117.691206 518.631635,118.206894 518.631635,118.841587 C518.631635,119.387688 519.012451,119.842551 519.522851,119.960234 L518.138426,121.102682 C517.965208,120.688809 517.556624,120.400553 517.079282,120.400553 C516.444588,120.400553 515.9289,120.914919 515.9289,121.549612 C515.9289,121.94894 516.132531,122.299343 516.441944,122.505619 L515.230737,123.507905 C515.019173,123.264606 514.711082,123.107255 514.365968,123.107255 C513.731275,123.107255 513.216909,123.624265 513.216909,124.257636 C513.216909,124.526059 513.312113,124.77068 513.466819,124.966377 L491.141484,143.420084 C491.152062,143.35397 491.16264,143.286534 491.16264,143.217775 C491.16264,142.584404 490.64563,142.068716 490.012259,142.068716 C489.378888,142.068716 488.861877,142.584404 488.861877,143.217775 C488.861877,143.848502 489.369632,144.357579 489.996391,144.365512 L488.422881,145.666633 C488.305198,145.157557 487.850335,144.775418 487.304234,144.775418 C486.669541,144.775418 486.153853,145.289784 486.153853,145.924478 C486.153853,146.393886 486.435498,146.795858 486.838792,146.975688 L485.569406,148.024254 C485.365775,147.700296 485.00876,147.483443 484.597532,147.483443 C483.962838,147.483443 483.448472,147.999131 483.448472,148.633824 C483.448472,148.965716 483.591278,149.263229 483.817388,149.473471 L479.587422,152.969573 C479.461805,152.921971 479.328255,152.892881 479.185449,152.892881 C478.550756,152.892881 478.03639,153.407247 478.03639,154.04194 C478.03639,154.577462 478.405306,155.025714 478.90116,155.152653 L477.077739,161.190173 C476.903198,161.081746 476.698245,161.016954 476.477425,161.016954 C475.842732,161.016954 475.328366,161.53132 475.328366,162.166014 C475.328366,162.787484 475.822897,163.28995 476.437757,163.311106 L474.578634,169.466308 C474.371037,169.260033 474.085425,169.131772 473.7694,169.131772 C473.134707,169.131772 472.619019,169.64746 472.619019,170.282154 C472.619019,170.916847 473.134707,171.431213 473.7694,171.431213 C473.846092,171.431213 473.92014,171.423279 473.991543,171.407412 L471.943335,178.193341 L470.47164,173.958085 Z M481.613151,155.635284 C481.54307,155.653796 481.474312,155.676275 481.40952,155.705365 L481.449189,155.57446 L481.613151,155.635284 Z M485.729401,170.46595 C485.738657,170.405125 485.747913,170.345623 485.747913,170.283476 C485.747913,169.648783 485.232225,169.133094 484.597532,169.133094 C483.962838,169.133094 483.448472,169.648783 483.448472,170.283476 C483.448472,170.869245 483.890113,171.350554 484.460015,171.419312 L482.951296,172.54986 C482.782045,172.126731 482.369494,171.823929 481.884218,171.823929 C481.249525,171.823929 480.733837,172.339618 480.733837,172.974311 C480.733837,173.341904 480.911022,173.667184 481.182089,173.880071 L479.933859,174.816244 C479.732872,174.641703 479.472384,174.533276 479.185449,174.533276 C478.550756,174.533276 478.03639,175.047642 478.03639,175.682335 C478.03639,175.852909 478.076059,176.015549 478.143495,176.159678 L474.380293,178.98803 L475.896945,173.962052 C476.067519,174.062545 476.264538,174.124692 476.477425,174.124692 C477.112118,174.124692 477.627806,173.607682 477.627806,172.974311 C477.627806,172.360774 477.145175,171.863598 476.540894,171.831863 L478.390761,165.700462 C478.597036,165.898803 478.876036,166.021775 479.185449,166.021775 C479.820143,166.021775 480.335831,165.507409 480.335831,164.872716 C480.335831,164.238023 479.821465,163.722334 479.185449,163.722334 C479.116691,163.722334 479.047933,163.73159 478.983141,163.743491 L480.050219,160.20772 C480.226082,160.006734 480.335831,159.744923 480.335831,159.456667 C480.335831,159.407742 480.327897,159.361463 480.321286,159.312538 L480.912344,157.35689 C481.114652,157.68217 481.47299,157.899024 481.88554,157.899024 C482.520234,157.899024 483.0346,157.384658 483.0346,156.749964 C483.0346,156.502699 482.955263,156.276589 482.823035,156.088826 L489.337897,158.52975 C489.049641,158.73867 488.861877,159.075851 488.861877,159.456667 C488.861877,160.09136 489.378888,160.607048 490.012259,160.607048 C490.64563,160.607048 491.16264,160.09136 491.16264,159.456667 C491.16264,159.369396 491.149417,159.284771 491.132228,159.202789 L497.532051,161.601401 L485.729401,170.46595 Z M527.375857,169.993897 L483.041211,153.436337 L545.893033,101.489338 L527.375857,169.993897 Z M478.03639,137.799082 C478.03639,137.165711 478.550756,136.650022 479.185449,136.650022 C479.820143,136.650022 480.335831,137.165711 480.335831,137.799082 C480.335831,138.435097 479.821465,138.949463 479.185449,138.949463 C478.550756,138.949463 478.03639,138.435097 478.03639,137.799082 Z M483.448472,137.799082 C483.448472,137.165711 483.962838,136.650022 484.597532,136.650022 C485.232225,136.650022 485.747913,137.165711 485.747913,137.799082 C485.747913,138.435097 485.232225,138.949463 484.597532,138.949463 C483.962838,138.949463 483.448472,138.435097 483.448472,137.799082 Z M475.328366,140.507106 C475.328366,139.871091 475.842732,139.358047 476.477425,139.358047 C477.112118,139.358047 477.627806,139.871091 477.627806,140.507106 C477.627806,141.140477 477.112118,141.657488 476.477425,141.657488 C475.842732,141.657488 475.328366,141.141799 475.328366,140.507106 Z M480.733837,140.507106 C480.733837,139.871091 481.249525,139.358047 481.884218,139.358047 C482.518911,139.358047 483.033277,139.871091 483.033277,140.507106 C483.033277,141.140477 482.518911,141.657488 481.884218,141.657488 C481.249525,141.657488 480.733837,141.141799 480.733837,140.507106 Z M524.052974,113.433472 C524.052974,112.798779 524.56734,112.284413 525.202033,112.284413 C525.836726,112.284413 526.352415,112.798779 526.352415,113.433472 C526.352415,114.068165 525.836726,114.582531 525.202033,114.582531 C524.56734,114.582531 524.052974,114.068165 524.052974,113.433472 Z M513.216909,118.84291 C513.216909,118.208216 513.731275,117.692528 514.365968,117.692528 C515.000661,117.692528 515.515027,118.208216 515.515027,118.84291 C515.515027,119.476281 515.000661,119.991969 514.365968,119.991969 C513.731275,119.991969 513.216909,119.476281 513.216909,118.84291 Z M510.51814,121.550934 C510.51814,120.916241 511.032506,120.401875 511.667199,120.401875 C512.301893,120.401875 512.816259,120.916241 512.816259,121.550934 C512.816259,122.185627 512.301893,122.699993 511.667199,122.699993 C511.032506,122.699993 510.51814,122.185627 510.51814,121.550934 Z M508.071926,124.988856 C507.907964,124.790514 507.808793,124.535315 507.808793,124.257636 C507.808793,123.624265 508.324481,123.107255 508.959175,123.107255 C509.592546,123.107255 510.109556,123.624265 510.109556,124.257636 C510.109556,124.89233 509.592546,125.408018 508.959175,125.408018 C508.60216,125.408018 508.284813,125.245378 508.071926,124.988856 Z M496.975373,129.682941 C496.975373,129.048248 497.491061,128.53256 498.124432,128.53256 C498.759125,128.53256 499.274813,129.048248 499.274813,129.682941 C499.274813,130.317635 498.759125,130.832001 498.124432,130.832001 C497.491061,130.832001 496.975373,130.317635 496.975373,129.682941 Z M502.391422,129.682941 C502.391422,129.048248 502.90711,128.53256 503.541803,128.53256 C504.176497,128.53256 504.690863,129.048248 504.690863,129.682941 C504.690863,130.317635 504.176497,130.832001 503.541803,130.832001 C502.90711,130.832001 502.391422,130.317635 502.391422,129.682941 Z M488.860555,132.389644 C488.860555,131.756273 489.377565,131.240585 490.010936,131.240585 C490.644307,131.240585 491.161318,131.756273 491.161318,132.389644 C491.161318,133.024337 490.644307,133.540025 490.010936,133.540025 C489.377565,133.540025 488.860555,133.024337 488.860555,132.389644 Z M494.277926,132.389644 C494.277926,131.756273 494.793615,131.240585 495.426985,131.240585 C496.061679,131.240585 496.577367,131.756273 496.577367,132.389644 C496.577367,133.024337 496.061679,133.540025 495.426985,133.540025 C494.792292,133.540025 494.277926,133.024337 494.277926,132.389644 Z M499.690009,126.973595 C499.690009,126.340224 500.204375,125.824535 500.839068,125.824535 C501.473761,125.824535 501.989449,126.340224 501.989449,126.973595 C501.989449,127.608288 501.473761,128.123976 500.839068,128.123976 C500.204375,128.123976 499.690009,127.60961 499.690009,126.973595 Z M499.690009,132.389644 C499.690009,131.756273 500.204375,131.240585 500.839068,131.240585 C501.473761,131.240585 501.989449,131.756273 501.989449,132.389644 C501.989449,133.024337 501.473761,133.540025 500.839068,133.540025 C500.204375,133.540025 499.690009,133.024337 499.690009,132.389644 Z M505.102091,126.973595 C505.102091,126.340224 505.616457,125.824535 506.25115,125.824535 C506.885843,125.824535 507.400209,126.340224 507.400209,126.973595 C507.400209,127.608288 506.885843,128.123976 506.25115,128.123976 C505.616457,128.123976 505.102091,127.60961 505.102091,126.973595 Z M486.153853,135.091057 C486.153853,134.456364 486.668219,133.941998 487.304234,133.941998 C487.938927,133.941998 488.453293,134.456364 488.453293,135.091057 C488.453293,135.72575 487.938927,136.241438 487.304234,136.241438 C486.668219,136.241438 486.153853,135.72575 486.153853,135.091057 Z M496.975373,135.091057 C496.975373,134.456364 497.491061,133.941998 498.124432,133.941998 C498.759125,133.941998 499.274813,134.456364 499.274813,135.091057 C499.274813,135.72575 498.759125,136.241438 498.124432,136.241438 C497.491061,136.241438 496.975373,135.72575 496.975373,135.091057 Z M491.569902,135.091057 C491.569902,134.814701 491.66775,134.559501 491.831713,134.359837 C492.041955,134.104638 492.361946,133.941998 492.718961,133.941998 C493.353654,133.941998 493.86802,134.456364 493.86802,135.091057 C493.86802,135.72575 493.353654,136.241438 492.718961,136.241438 C492.084268,136.241438 491.569902,135.72575 491.569902,135.091057 Z M488.860555,137.799082 C488.860555,137.165711 489.377565,136.650022 490.010936,136.650022 C490.644307,136.650022 491.161318,137.165711 491.161318,137.799082 C491.161318,138.435097 490.644307,138.949463 490.010936,138.949463 C489.377565,138.949463 488.860555,138.435097 488.860555,137.799082 Z M494.277926,137.799082 C494.277926,137.165711 494.793615,136.650022 495.426985,136.650022 C496.061679,136.650022 496.577367,137.165711 496.577367,137.799082 C496.577367,138.435097 496.061679,138.949463 495.426985,138.949463 C494.792292,138.949463 494.277926,138.435097 494.277926,137.799082 Z M486.153853,140.507106 C486.153853,139.871091 486.668219,139.358047 487.304234,139.358047 C487.938927,139.358047 488.453293,139.871091 488.453293,140.507106 C488.453293,141.140477 487.938927,141.65749 487.304234,141.65749 C486.668219,141.65881 486.153853,141.141799 486.153853,140.507106 Z M491.831713,141.237003 C491.66775,141.041306 491.569902,140.784784 491.569902,140.507106 C491.569902,139.871091 492.084268,139.358047 492.718961,139.358047 C493.353654,139.358047 493.86802,139.871091 493.86802,140.507106 C493.86802,141.140477 493.353654,141.657496 492.718961,141.657496 C492.363268,141.65881 492.041955,141.494847 491.831713,141.237003 Z M466.793064,145.924478 C466.793064,146.559171 466.278698,147.074859 465.644004,147.074859 C465.009311,147.074859 464.493623,146.559171 464.493623,145.924478 C464.493623,145.289784 465.007989,144.775418 465.644004,144.775418 C466.28002,144.775418 466.793064,145.289784 466.793064,145.924478 Z M472.209113,145.924478 C472.209113,146.559171 471.693424,147.074859 471.058731,147.074859 C470.424038,147.074859 469.909672,146.559171 469.909672,145.924478 C469.909672,145.289784 470.424038,144.775418 471.058731,144.775418 C471.693424,144.775418 472.209113,145.289784 472.209113,145.924478 Z M464.095617,148.633824 C464.095617,149.267195 463.579929,149.782884 462.945236,149.782884 C462.310542,149.782884 461.794854,149.267195 461.794854,148.633824 C461.794854,147.999131 462.310542,147.483443 462.945236,147.483443 C463.579929,147.483443 464.095617,147.997809 464.095617,148.633824 Z M469.506377,148.633824 C469.506377,149.267195 468.993334,149.782884 468.357318,149.782884 C467.722625,149.782884 467.208259,149.267195 467.208259,148.633824 C467.208259,147.999131 467.722625,147.483443 468.357318,147.483443 C468.993334,147.483443 469.506377,147.997809 469.506377,148.633824 Z M480.733837,145.924478 C480.733837,145.289784 481.249525,144.775418 481.884218,144.775418 C482.518911,144.775418 483.033277,145.289784 483.033277,145.924478 C483.033277,146.559171 482.518911,147.074859 481.884218,147.074859 C481.249525,147.074859 480.733837,146.560493 480.733837,145.924478 Z M475.328366,145.924478 C475.328366,145.289784 475.842732,144.775418 476.477425,144.775418 C477.112118,144.775418 477.627806,145.289784 477.627806,145.924478 C477.627806,146.559171 477.112118,147.074859 476.477425,147.074859 C475.842732,147.074859 475.328366,146.560493 475.328366,145.924478 Z M472.619019,143.216453 C472.619019,142.583082 473.134707,142.067394 473.7694,142.067394 C474.404094,142.067394 474.91846,142.583082 474.91846,143.216453 C474.91846,143.851146 474.404094,144.366834 473.7694,144.366834 C473.134707,144.366834 472.619019,143.852468 472.619019,143.216453 Z M478.03639,143.216453 C478.03639,142.583082 478.550756,142.067394 479.185449,142.067394 C479.820143,142.067394 480.335831,142.583082 480.335831,143.216453 C480.335831,143.851146 479.821465,144.366834 479.185449,144.366834 C478.550756,144.366834 478.03639,143.852468 478.03639,143.216453 Z M472.619019,148.633824 C472.619019,147.999131 473.134707,147.483443 473.7694,147.483443 C474.404094,147.483443 474.91846,147.999131 474.91846,148.633824 C474.91846,149.267195 474.404094,149.782884 473.7694,149.782884 C473.134707,149.782884 472.619019,149.267195 472.619019,148.633824 Z M478.03639,148.633824 C478.03639,147.999131 478.550756,147.483443 479.185449,147.483443 C479.820143,147.483443 480.335831,147.999131 480.335831,148.633824 C480.335831,149.267195 479.821465,149.782884 479.185449,149.782884 C478.550756,149.782884 478.03639,149.267195 478.03639,148.633824 Z M483.448472,143.216453 C483.448472,142.583082 483.962838,142.067394 484.597532,142.067394 C485.232225,142.067394 485.747913,142.583082 485.747913,143.216453 C485.747913,143.851146 485.232225,144.366834 484.597532,144.366834 C483.962838,144.366834 483.448472,143.852468 483.448472,143.216453 Z M466.793064,151.333915 C466.793064,151.968609 466.278698,152.484297 465.644004,152.484297 C465.009311,152.484297 464.493623,151.968609 464.493623,151.333915 C464.493623,150.700544 465.007989,150.184856 465.644004,150.184856 C466.28002,150.184856 466.793064,150.699222 466.793064,151.333915 Z M472.209113,151.333915 C472.209113,151.968609 471.693424,152.484297 471.058731,152.484297 C470.424038,152.484297 469.909672,151.968609 469.909672,151.333915 C469.909672,150.700544 470.424038,150.184856 471.058731,150.184856 C471.693424,150.184856 472.209113,150.699222 472.209113,151.333915 Z M469.506377,154.04194 C469.506377,154.676633 468.993334,155.190999 468.357318,155.190999 C467.722625,155.190999 467.208259,154.676633 467.208259,154.04194 C467.208259,153.407247 467.722625,152.892881 468.357318,152.892881 C468.993334,152.892881 469.506377,153.405924 469.506377,154.04194 Z M475.328366,151.333915 C475.328366,150.700544 475.842732,150.184856 476.477425,150.184856 C477.112118,150.184856 477.627806,150.700544 477.627806,151.333915 C477.627806,151.968609 477.112118,152.484297 476.477425,152.484297 C475.842732,152.484297 475.328366,151.968609 475.328366,151.333915 Z M472.619019,154.04194 C472.619019,153.407247 473.134707,152.892881 473.7694,152.892881 C474.404094,152.892881 474.91846,153.407247 474.91846,154.04194 C474.91846,154.676633 474.404094,155.190999 473.7694,155.190999 C473.134707,155.190999 472.619019,154.676633 472.619019,154.04194 Z M472.209113,156.751287 C472.209113,157.38598 471.693424,157.900346 471.058731,157.900346 C470.424038,157.900346 469.909672,157.38598 469.909672,156.751287 C469.909672,156.116593 470.424038,155.600905 471.058731,155.600905 C471.693424,155.600905 472.209113,156.115271 472.209113,156.751287 Z M475.328366,156.751287 C475.328366,156.116593 475.842732,155.600905 476.477425,155.600905 C477.112118,155.600905 477.627806,156.116593 477.627806,156.751287 C477.627806,157.38598 477.112118,157.900346 476.477425,157.900346 C475.842732,157.900346 475.328366,157.38598 475.328366,156.751287 Z M472.209113,162.166014 C472.209113,162.800707 471.693424,163.315073 471.058731,163.315073 C470.424038,163.315073 469.909672,162.800707 469.909672,162.166014 C469.909672,161.53132 470.424038,161.016954 471.058731,161.016954 C471.693424,161.016954 472.209113,161.53132 472.209113,162.166014 Z M469.506377,159.456667 C469.506377,160.09136 468.993334,160.607048 468.357318,160.607048 C467.722625,160.607048 467.208259,160.09136 467.208259,159.456667 C467.208259,158.823296 467.722625,158.307607 468.357318,158.307607 C468.993334,158.307607 469.506377,158.823296 469.506377,159.456667 Z M483.033277,162.166014 C483.033277,162.800707 482.518911,163.315073 481.884218,163.315073 C481.249525,163.315073 480.733837,162.800707 480.733837,162.166014 C480.733837,161.53132 481.249525,161.016954 481.884218,161.016954 C482.518911,161.016954 483.033277,161.53132 483.033277,162.166014 Z M472.619019,159.456667 C472.619019,158.823296 473.134707,158.307607 473.7694,158.307607 C474.404094,158.307607 474.91846,158.823296 474.91846,159.456667 C474.91846,160.09136 474.404094,160.607048 473.7694,160.607048 C473.134707,160.607048 472.619019,160.092682 472.619019,159.456667 Z M472.619019,164.874038 C472.619019,164.239345 473.134707,163.723657 473.7694,163.723657 C474.404094,163.723657 474.91846,164.239345 474.91846,164.874038 C474.91846,165.508731 474.404094,166.023097 473.7694,166.023097 C473.134707,166.023097 472.619019,165.510054 472.619019,164.874038 Z M485.747913,159.456667 C485.747913,160.09136 485.232225,160.607048 484.597532,160.607048 C483.962838,160.607048 483.448472,160.09136 483.448472,159.456667 C483.448472,158.823296 483.962838,158.307607 484.597532,158.307607 C485.232225,158.307607 485.747913,158.823296 485.747913,159.456667 Z M485.747913,164.874038 C485.747913,165.508731 485.232225,166.023097 484.597532,166.023097 C483.962838,166.023097 483.448472,165.508731 483.448472,164.874038 C483.448472,164.239345 483.962838,163.723657 484.597532,163.723657 C485.232225,163.723657 485.747913,164.239345 485.747913,164.874038 Z M472.209113,167.574129 C472.209113,168.208822 471.693424,168.724511 471.058731,168.724511 C470.424038,168.724511 469.909672,168.208822 469.909672,167.574129 C469.909672,166.940758 470.424038,166.42507 471.058731,166.42507 C471.693424,166.42507 472.209113,166.940758 472.209113,167.574129 Z M483.033277,167.574129 C483.033277,168.208822 482.518911,168.724511 481.884218,168.724511 C481.249525,168.724511 480.733837,168.208822 480.733837,167.574129 C480.733837,166.940758 481.249525,166.42507 481.884218,166.42507 C482.518911,166.42507 483.033277,166.940758 483.033277,167.574129 Z M480.334509,170.283476 C480.334509,170.918169 479.820143,171.432535 479.184127,171.432535 C478.549434,171.432535 478.035068,170.918169 478.035068,170.283476 C478.035068,169.648783 478.549434,169.133094 479.184127,169.133094 C479.820143,169.133094 480.334509,169.648783 480.334509,170.283476 Z M488.453293,162.166014 C488.453293,162.800707 487.938927,163.315073 487.304234,163.315073 C486.669541,163.315073 486.153853,162.800707 486.153853,162.166014 C486.153853,161.53132 486.668219,161.016954 487.304234,161.016954 C487.937605,161.016954 488.453293,161.53132 488.453293,162.166014 Z M491.569902,162.166014 C491.569902,161.887013 491.66775,161.634458 491.831713,161.434794 C492.041955,161.179594 492.361946,161.016954 492.718961,161.016954 C493.353654,161.016954 493.86802,161.53132 493.86802,162.166014 C493.86802,162.800707 493.353654,163.315073 492.718961,163.315073 C492.084268,163.315073 491.569902,162.802029 491.569902,162.166014 Z M491.161318,164.874038 C491.161318,165.508731 490.644307,166.023097 490.010936,166.023097 C489.377565,166.023097 488.860555,165.508731 488.860555,164.874038 C488.860555,164.239345 489.377565,163.723657 490.010936,163.723657 C490.644307,163.723657 491.161318,164.239345 491.161318,164.874038 Z M488.453293,167.574129 C488.453293,168.208822 487.938927,168.724511 487.304234,168.724511 C486.669541,168.724511 486.153853,168.208822 486.153853,167.574129 C486.153853,166.940758 486.668219,166.42507 487.304234,166.42507 C487.937605,166.42507 488.453293,166.940758 488.453293,167.574129 Z" transform="translate(-420.5 -92.29)" fill="#F7DDCF"/></svg>