<svg xmlns="http://www.w3.org/2000/svg" width="47mm" height="47.78mm" viewBox="0 0 133.23 135.45">
  <g id="Calque_2" data-name="Calque 2">
    <g id="Calque_1-2" data-name="Calque 1">
      <g>
        <rect x="88.81" y="90.3" width="44.41" height="45.15" fill="#80ba27"/>
        <rect y="45.15" width="44.41" height="45.15" fill="#f7a823"/>
        <rect x="44.41" y="45.15" width="44.41" height="45.15" fill="#00573b"/>
        <rect x="88.82" y="45.15" width="44.41" height="45.15" fill="#f7a823"/>
        <rect width="44.41" height="45.15" fill="#80ba27"/>
        <rect x="44.41" width="44.41" height="45.15" fill="#e5005b"/>
        <rect x="88.82" width="44.41" height="45.15" fill="#80ba27"/>
        <rect x="44.41" y="90.3" width="44.41" height="45.15" fill="#009cdc"/>
        <path d="M84.79,120a5.18,5.18,0,0,0-3.05,1v-3.49l2.84,0h0a.78.78,0,0,0,.72-.51.79.79,0,0,0-.22-.87l-4-3.42L81,107.92a.78.78,0,0,0-.77-.77H77.38a.79.79,0,0,0-.77.79v.26l-4.55-4.48a.75.75,0,0,0-1.06,0L57.9,116.23a.81.81,0,0,0-.19.86.77.77,0,0,0,.72.49h2.75V129.1H55.62V104.94a2.34,2.34,0,0,0,1.5-1.49l7.55,1.39h0a.17.17,0,0,0,.12,0,.16.16,0,0,0,0-.15c-.07-.14-1.58-3.35-7.64-2.4A2.31,2.31,0,0,0,55,100.39h-.08l-1.29-7.71a.15.15,0,0,0-.1-.12.17.17,0,0,0-.15,0c-.11.11-2.56,2.67.4,8.14a2.34,2.34,0,0,0-1.07,2,2.37,2.37,0,0,0,.15.8l-6.23,5.12a.16.16,0,0,0,0,.14.17.17,0,0,0,.11.12,3,3,0,0,0,.74.08c1.2,0,3.68-.56,6.1-4.49a2.33,2.33,0,0,0,.61.38V129.1H48.71a.79.79,0,0,0,0,1.57H62a.78.78,0,0,0,.54-.23.83.83,0,0,0,.23-.56V116.8A.77.77,0,0,0,62,116H60.37l11.14-10.66,5.34,5.26a.75.75,0,0,0,.83.15.77.77,0,0,0,.47-.72v-1.33h1.33l.13,4.41a.85.85,0,0,0,.27.57L82.49,116H81a.75.75,0,0,0-.77.78v3.36a5.21,5.21,0,0,0-2.63-.71,5.3,5.3,0,0,0-5.26,5.34,5.55,5.55,0,0,0,.11,1.07,4.47,4.47,0,0,0-3.16,4.31.77.77,0,1,0,1.54,0,2.91,2.91,0,0,1,2.66-2.93.78.78,0,0,0,.65-1.07,4,4,0,0,1-.26-1.38,3.75,3.75,0,0,1,3.72-3.78,3.7,3.7,0,0,1,3.16,1.81.75.75,0,0,0,.58.36.74.74,0,0,0,.64-.24,3.79,3.79,0,0,1,2.84-1.28.79.79,0,0,0,0-1.57M55.7,102.72A.75.75,0,1,1,55,102a.76.76,0,0,1,.75.76" fill="#fff"/>
        <path d="M128.58,14.56l-.12-.59h-2.53a3.66,3.66,0,0,0,.53-.51,6.59,6.59,0,0,0,1.33-4.73l-.28-2-1.06,1.72a4.48,4.48,0,0,1-3.86,2h-5a16.45,16.45,0,0,0-4.48-.21c-.69,0-1.41.06-2.15.06s-1.45,0-2.14-.06a15.88,15.88,0,0,0-4.4.21h-5a4.5,4.5,0,0,1-3.87-2L94.47,6.72l-.27,2a6.49,6.49,0,0,0,1.33,4.73A4.91,4.91,0,0,0,96,14H93.52l-.12.59a3.86,3.86,0,0,0,.82,3c1.2,1.5,3.47,2.32,6.77,2.45-.09,1.21-.56,9.47,2.6,11.84a9.66,9.66,0,0,0-.06,1.11c0,4.5,2.51,6.78,7.46,6.78h0c4.94,0,7.46-2.28,7.46-6.78,0-.4,0-.77-.06-1.11,3.15-2.37,2.68-10.63,2.6-11.84,3.29-.13,5.56-.95,6.76-2.45a3.81,3.81,0,0,0,.82-3m-33.21,2.1a2.48,2.48,0,0,1-.54-1.21h6.08c0,.37,0,.77,0,1.19a6,6,0,0,0,.32,1.9c-3.59-.11-5.14-1.08-5.81-1.89M101.12,14h-.83a4.87,4.87,0,0,1-3.66-1.48,4.25,4.25,0,0,1-.85-1.68,6.19,6.19,0,0,0,3.69,1.06h2.58a5.56,5.56,0,0,0-.93,2.1M104,30.23c-1.46-1.81-1.78-6.44-1.6-9.65a6.13,6.13,0,0,0,2,1.45,1.12,1.12,0,0,0-.14.55,1.07,1.07,0,0,0,1,1.09,1,1,0,0,0,.83-.43c-.36,1.53-1,4.12-1.69,6.3a2.57,2.57,0,0,0-.45.69m7,8.05c-2.8,0-4.55-.76-5.4-2.36a20.47,20.47,0,0,0,5.26.68h.28a20.47,20.47,0,0,0,5.26-.68c-.84,1.6-2.6,2.36-5.4,2.36m5.94-4.18a18.45,18.45,0,0,1-5.8.91H111a18.7,18.7,0,0,1-6-.92A9.75,9.75,0,0,1,105,33c0-.19,0-.37,0-.54l2.23.31h.11a.72.72,0,0,0,.72-.63.74.74,0,0,0-.62-.84L105.28,31a1.31,1.31,0,0,1,.34-.53c.56-.53,1.72-.41,3.07-.28a22.73,22.73,0,0,0,2.3.14h0c.81,0,1.6-.07,2.3-.14,1.34-.13,2.5-.25,3.06.28a1.33,1.33,0,0,1,.35.53l-2.17.31a.75.75,0,0,0-.62.84.74.74,0,0,0,.72.63h.11l2.23-.31c0,.17,0,.35,0,.54a8.16,8.16,0,0,1-.07,1.13m1-3.87a2.86,2.86,0,0,0-.46-.69c-.69-2.18-1.33-4.77-1.69-6.3a1,1,0,0,0,.83.43,1.07,1.07,0,0,0,1.06-1.09,1.13,1.13,0,0,0-.15-.55,6.24,6.24,0,0,0,2-1.45c.17,3.21-.15,7.84-1.6,9.65m-1.34-9.41a11.35,11.35,0,0,1-2,.53.72.72,0,0,0-.47.31.77.77,0,0,0-.11.57s.72,3.31,1.61,6.39a11.21,11.21,0,0,0-2.56.07,18.18,18.18,0,0,1-4.34,0,11.14,11.14,0,0,0-2.55-.07c.89-3.08,1.59-6.35,1.6-6.39a.77.77,0,0,0-.11-.57.72.72,0,0,0-.47-.31,11.35,11.35,0,0,1-2-.53,4.47,4.47,0,0,1-3-4.17c0-2,.36-3.4,1.11-4.13a2.68,2.68,0,0,1,1.14-.65h.12v0a14.33,14.33,0,0,1,4-.18c.71,0,1.44.05,2.2.05s1.5,0,2.21-.05a14.7,14.7,0,0,1,4.17.2h0a3,3,0,0,1,1.23.68c.75.74,1.12,2.08,1.12,4.1a4.48,4.48,0,0,1-3,4.17m5.88-9a6.17,6.17,0,0,0,3.68-1.06,4.12,4.12,0,0,1-.85,1.68A4.86,4.86,0,0,1,121.7,14h-.85a5.29,5.29,0,0,0-1-2.1Zm4.11,4.76c-.66.83-2.2,1.81-5.83,1.92a5.74,5.74,0,0,0,.32-1.9c0-.42,0-.82-.05-1.19h.17l.49,0h5.43a2.46,2.46,0,0,1-.53,1.18" fill="#fff"/>
        <path d="M123.21,119.75a.66.66,0,1,0-1.31,0,.66.66,0,1,0,1.31,0" fill="#fff"/>
        <path d="M117.58,102.74a.66.66,0,1,0-.66.68.68.68,0,0,0,.66-.68" fill="#fff"/>
        <path d="M97.66,118H93.28a.71.71,0,0,0,0,1.41H97V130a.7.7,0,1,0,1.39,0V118.74a.69.69,0,0,0-.69-.7" fill="#fff"/>
        <path d="M128.1,119.65a.67.67,0,0,0-.44-.05l-.08,0a4.19,4.19,0,0,1-2.87-1.81.66.66,0,0,0-.22-.22l-2-1.25,1.45-1.66A.72.72,0,0,0,124,114a.71.71,0,0,0-.46-.49,6.7,6.7,0,0,0-4.85.35l-1-.62a18.61,18.61,0,0,0-6.13-2.16l3-4.26a3.29,3.29,0,0,0,1.29.29h2.25a1.91,1.91,0,0,0,1.41.64h.07a3.11,3.11,0,0,0,2.48-1.44,2.47,2.47,0,0,0-.52-3.46l-6.21-5.14,0,0a5,5,0,0,0-6.25,0,4.24,4.24,0,0,0-1.62,3.18l-2,1.52a16.41,16.41,0,0,0-9,.39l-4.07-.32a.71.71,0,0,0-.11,1.41l4.22.33h0a1,1,0,0,0,.25,0,15.07,15.07,0,0,1,8.62-.33.66.66,0,0,0,.61-.1l1.66-1.27a4.49,4.49,0,0,0,.64,1.2,3.43,3.43,0,0,0,2.32,1.34l.44,0a3.39,3.39,0,0,0,2.13-.74,3,3,0,0,0,1.12-2,3,3,0,0,0-.6-2.2.67.67,0,0,0-1-.12.71.71,0,0,0-.12,1,1.58,1.58,0,0,1,.31,1.15,1.61,1.61,0,0,1-.58,1,2.09,2.09,0,0,1-1.56.43,2.07,2.07,0,0,1-1.39-.81,2.88,2.88,0,0,1,.5-4,3.61,3.61,0,0,1,4.55,0h0L120.7,104s0,0,0,0a1,1,0,0,1,.19,1.53,1.75,1.75,0,0,1-1.36.81.57.57,0,0,1-.5-.28.69.69,0,0,0-.6-.36h-2.58c-.3,0-.93-.15-1-.39a.68.68,0,0,0-.84-.51.7.7,0,0,0-.5.85s0,.09,0,.13l-5.85,8.39a.71.71,0,0,0-.11.25c0,.15-.82,3.7-3.6,3.7h-2.25v-3a.69.69,0,1,0-1.38,0V130a.69.69,0,1,0,1.38,0v-3.54c1.32,0,2.66,0,3.89,0l4.4,0V130a.69.69,0,0,0,.69.7.7.7,0,0,0,.7-.7v-4.91a.7.7,0,0,0-1.39,0c-1.35,0-4.92,0-8.29,0v-5.53H104c3,0,4.52-3,4.92-4.66l1.74-2.5h.07a18.51,18.51,0,0,1,6.24,2.07l.46.28a.74.74,0,0,0,.07.66.69.69,0,0,0,1,.18,6.13,6.13,0,0,1,3.55-1L120.84,116a.75.75,0,0,0-.16.58.72.72,0,0,0,.32.5l2.65,1.61a5.66,5.66,0,0,0,3.13,2.21c-.17.41-.31.8-.44,1.16-.3.82-.58,1.59-.88,1.71-.13,0-.46.07-1.27-.36a.68.68,0,0,0-.94.3.73.73,0,0,0-.08.38c-1,.48-3.67,1.51-8.7,1.21h0c1.29-.79,1.48-2.81,1.49-3.06a.69.69,0,1,0-1.38-.1c0,.38-.28,1.82-1,2a.7.7,0,0,0-.5.69l0,5.17a.71.71,0,0,0,.7.7h0a.7.7,0,0,0,.69-.71v-3.28c.6,0,1.18.05,1.72.05,5.44,0,7.88-1.56,8.16-1.75a2.9,2.9,0,0,0,.93.19,1.71,1.71,0,0,0,.65-.12c.9-.35,1.24-1.31,1.69-2.54.21-.58.45-1.24.78-1.94a.72.72,0,0,0-.32-.95" fill="#fff"/>
        <rect y="90.31" width="44.41" height="45.14" fill="#80ba27"/>
        <path d="M15.6,63.16a7.87,7.87,0,0,1,5.08-4.34.79.79,0,0,0,.56-1,.78.78,0,0,0-1-.55,9.1,9.1,0,0,0-4.7,3V57.07a.78.78,0,1,0-1.55,0v3.44A9.13,9.13,0,0,0,9.16,57.3a.78.78,0,0,0-1,.55.79.79,0,0,0,.55,1,7.79,7.79,0,0,1,5.1,4.37,6,6,0,0,0-4.7,5.59c-.35,4,1,6.41,2.41,8.71A13.62,13.62,0,0,1,14,85.18a.78.78,0,1,0,1.56,0A13.55,13.55,0,0,1,18,77.56c1.32-2.29,2.69-4.65,2.47-8.75a5.8,5.8,0,0,0-4.86-5.65m1,13.6a22,22,0,0,0-1.84,3.73,22.55,22.55,0,0,0-1.9-3.81c-1.35-2.27-2.51-4.23-2.19-7.76a4.29,4.29,0,0,1,4.1-4.24,4.22,4.22,0,0,1,4.1,4.22c.19,3.62-1,5.68-2.27,7.86" fill="#fff"/>
        <path d="M25.22,60.54a2.46,2.46,0,0,0,.15-2,2.64,2.64,0,0,0-1-1.31,2.58,2.58,0,0,0-1.54-2.55,2.62,2.62,0,0,0-1.55-2.14,2.86,2.86,0,0,0-3,.46,2.23,2.23,0,0,0-.63-.39l-.11,0a3,3,0,0,0-3.24-2.19,3,3,0,0,0-2.61,2.24,2.44,2.44,0,0,0-.61.39A2.87,2.87,0,0,0,8,52.57a2.61,2.61,0,0,0-1.56,2.14,2.59,2.59,0,0,0-1.53,2.55,2.6,2.6,0,0,0-1,1.31,2.46,2.46,0,0,0,.15,2,2.79,2.79,0,0,0,1.84,1.38.1.1,0,0,1,0,0,2.83,2.83,0,0,0,3.63,1.19L9.78,63a2.14,2.14,0,0,0,2-.06.8.8,0,0,0,.39-1,.77.77,0,0,0-1-.4.67.67,0,0,1-.9-.08.75.75,0,0,0-.95.05,1.35,1.35,0,0,1-.31.2,1.27,1.27,0,0,1-1.62-.48A.65.65,0,0,1,7.24,61a.79.79,0,0,0-.73-.59,1.19,1.19,0,0,1-1-.6.89.89,0,0,1,0-.72A1,1,0,0,1,6,58.45l.08,0A.8.8,0,0,0,6.52,58a.76.76,0,0,0,0-.61,1,1,0,0,1,.58-1.25l.29-.09A.78.78,0,0,0,8,55.12,1,1,0,0,1,8.64,54a1.27,1.27,0,0,1,1.62.5.47.47,0,0,1,.05.1.77.77,0,0,0,1.44,0,1.09,1.09,0,0,1,.56-.56l.25-.08a.8.8,0,0,0,.6-.77A1.33,1.33,0,0,1,14.43,52,1.43,1.43,0,0,1,16,53.11v.11a.77.77,0,0,0,.64.76,1.34,1.34,0,0,1,.32.1,1.15,1.15,0,0,1,.57.56.76.76,0,0,0,.73.48.77.77,0,0,0,.71-.51.76.76,0,0,1,0-.11A1.29,1.29,0,0,1,20.68,54a1,1,0,0,1,.62,1.11.77.77,0,0,0,.11.59.79.79,0,0,0,.5.34l.29.09a1,1,0,0,1,.58,1.25.8.8,0,0,0,0,.61.79.79,0,0,0,.42.42l.09,0a1.07,1.07,0,0,1,.59.63.89.89,0,0,1-.06.72,1.16,1.16,0,0,1-1,.6.77.77,0,0,0-.73.6,1.19,1.19,0,0,1-.08.2,1.26,1.26,0,0,1-1.62.49,1.17,1.17,0,0,1-.31-.2.78.78,0,0,0-1-.05,3.12,3.12,0,0,1-.32.22,1.27,1.27,0,0,1-.36-.14.78.78,0,0,0-1,.4.8.8,0,0,0,.4,1,1.72,1.72,0,0,0,1.74.06l.2.11a2.82,2.82,0,0,0,3.63-1.2l0,0a2.77,2.77,0,0,0,1.83-1.38" fill="#fff"/>
        <path d="M31.26,64.82a.79.79,0,0,0,.58.25.81.81,0,0,0,.58-.25l3.81-4.27a.81.81,0,0,0-.06-1.12.77.77,0,0,0-1.1.06L31.84,63.1l-3.23-3.61a.77.77,0,0,0-1.1-.06.79.79,0,0,0-.05,1.12Z" fill="#fff"/>
        <path d="M35.07,63.87l-3.23,3.62-3.23-3.62a.77.77,0,0,0-1.1-.06.79.79,0,0,0-.05,1.12l3.8,4.27a.8.8,0,0,0,.58.26.82.82,0,0,0,.58-.26l3.8-4.27a.8.8,0,0,0,0-1.12.77.77,0,0,0-1.1.06" fill="#fff"/>
        <path d="M31.26,56.68l0,0h0a.87.87,0,0,0,.23.16h0a.72.72,0,0,0,.29.06h0a.67.67,0,0,0,.28-.06h0a.78.78,0,0,0,.22-.15l0,0s0,0,0,0l2.48-2.77a.8.8,0,0,0,0-1.12.77.77,0,0,0-1.1.06l-1.12,1.26V51a.78.78,0,1,0-1.56,0v3.16l-1.12-1.26a.78.78,0,0,0-1.11-.06.82.82,0,0,0,0,1.12Z" fill="#fff"/>
        <path d="M31.26,60.75a.8.8,0,0,0,.58.26.82.82,0,0,0,.58-.26l3.18-3.57a.81.81,0,0,0-.05-1.12.78.78,0,0,0-1.1.06L31.84,59l-2.6-2.92a.78.78,0,0,0-1.1-.06.8.8,0,0,0-.06,1.12Z" fill="#fff"/>
        <path d="M39.22,76.51A8.12,8.12,0,0,0,32.6,80V73.37l3.62-4.06a.8.8,0,0,0,0-1.12.78.78,0,0,0-1.1.06l-3.23,3.62-3.23-3.62a.78.78,0,0,0-1.1-.06.8.8,0,0,0-.06,1.12l3.6,4V80a8.12,8.12,0,0,0-6.62-3.45.79.79,0,0,0,0,1.57,6.69,6.69,0,0,1,6.62,6.74v0a.78.78,0,1,0,1.55,0v0a6.69,6.69,0,0,1,6.62-6.74.79.79,0,0,0,0-1.57" fill="#fff"/>
        <path d="M81.48,27.52A6.07,6.07,0,0,0,80.37,24a.82.82,0,0,0-.65-.32H71.45a.81.81,0,0,0-.64.32,6.08,6.08,0,0,0-1.12,3.51,6,6,0,0,0,5.1,5.93v5.76H72.48a.81.81,0,0,0,0,1.61h6.23a.81.81,0,0,0,0-1.61H76.37V33.45a6,6,0,0,0,5.11-5.93m-9.92,0a4.36,4.36,0,0,1,.6-2.23h7.42a4.46,4.46,0,0,1,.6,2.23,4.31,4.31,0,1,1-8.62,0" fill="#fff"/>
        <path d="M56.85,32.14a1.45,1.45,0,1,0,1.42,1.44,1.43,1.43,0,0,0-1.42-1.44" fill="#fff"/>
        <path d="M60.26,34.84A1.14,1.14,0,1,0,61.38,36a1.14,1.14,0,0,0-1.12-1.14" fill="#fff"/>
        <path d="M72.44,39.4,68.72,37h0V23.06A11.24,11.24,0,0,0,67.21,17l0-.09A13,13,0,0,1,65.87,14c-.07-.35-.12-2.55-.14-5.45a.82.82,0,0,0,.41-.71V5.19a.8.8,0,0,0-.8-.8h-5a.79.79,0,0,0-.79.8V7.83a.82.82,0,0,0,.48.75c0,3.34,0,5.12-.07,5.41a11.21,11.21,0,0,1-1.31,2.87l-.05.09a10.51,10.51,0,0,0-1.39,4.12l-.11,1.61c0,.13,0,6.66,0,6.66l-1-.65a.78.78,0,0,0-1,.12,12.73,12.73,0,0,0-2.94,5l-.39,1.57A11,11,0,0,0,52,40.3a.8.8,0,0,0,.76.58H72a.81.81,0,0,0,.43-1.48M58.72,23.06A9.56,9.56,0,0,1,60,17.73l0-.08a13,13,0,0,0,1.49-3.39c.11-.62.11-3.84.09-6.43a.81.81,0,0,0-.47-.74V6h3.36V7.13a.62.62,0,0,0-.18.14.81.81,0,0,0-.23.57c0,1.7,0,5.73.16,6.42a14.74,14.74,0,0,0,1.48,3.39l0,.07a9.73,9.73,0,0,1,1.31,5.34V35.91l-8.42-5.53ZM56.89,39.27a1.46,1.46,0,0,0,.41-1,1.43,1.43,0,1,0-2.85,0,1.46,1.46,0,0,0,.41,1H53.38a11,11,0,0,1,2.47-8.85l9.05,5.94a1.13,1.13,0,1,0,1.38,1.1,1.23,1.23,0,0,0,0-.2l3.06,2Z" fill="#fff"/>
        <path d="M115.32,73.94a.69.69,0,0,0,.13-.36.49.49,0,0,0,0-.12,5.08,5.08,0,0,0-1.71-2.89,5,5,0,0,0-3.06-1.3.61.61,0,0,0-.45.2.64.64,0,0,0-.13.48,5.18,5.18,0,0,0,1.72,2.89,5,5,0,0,0,3.06,1.3.61.61,0,0,0,.45-.2m-2.77-2a4.22,4.22,0,0,1-1.07-1.38,4.27,4.27,0,0,1,1.51.86,4.51,4.51,0,0,1,1.07,1.39,4.07,4.07,0,0,1-1.51-.87" fill="#fff"/>
        <path d="M119.79,74.58a6,6,0,0,0-1.25.14,5.33,5.33,0,0,0-1.3-2.65.77.77,0,0,0-1.1,0,.81.81,0,0,0,0,1.12,3.44,3.44,0,0,1,.79,1.49,5.67,5.67,0,0,0-1.21-.13c-2.64,0-4.49,2-4.49,5a6.55,6.55,0,1,0,13.09,0c0-3-1.82-5-4.53-5m-2,10a5,5,0,0,1-5-5.07c0-2.07,1.16-3.41,2.93-3.41a5,5,0,0,1,1.77.37.75.75,0,0,0,.55,0,5.21,5.21,0,0,1,1.75-.34c1.83,0,3,1.3,3,3.38a5,5,0,0,1-5,5.07" fill="#fff"/>
        <path d="M128.05,55.75a3.53,3.53,0,0,0-3.49-3.55,3.42,3.42,0,0,0-2.72,1.35,3.56,3.56,0,0,0-2.34-1.33s0,0,0,0v-2l1.24.28a.41.41,0,0,0,.16,0,.76.76,0,0,0,.16-1.5l-5-1.13a.74.74,0,0,0-.89.58.76.76,0,0,0,.57.91l2.26.5v2.31a.61.61,0,0,0,0,.17,3.54,3.54,0,0,0-1.68,1.19,3.45,3.45,0,0,0-2.73-1.35,3.55,3.55,0,0,0-.48,7,3.6,3.6,0,0,0-.25,1.32,3.53,3.53,0,0,0,3,3.5,3.66,3.66,0,0,0-.26,1.33,3.49,3.49,0,1,0,7,0,3.66,3.66,0,0,0-.26-1.33,3.53,3.53,0,0,0,3-3.5,3.47,3.47,0,0,0-.26-1.33,3.52,3.52,0,0,0,3-3.49m-9-2a2,2,0,0,1,2,1.92v.19a2,2,0,0,1-2,1.92,1.92,1.92,0,0,1-1-.27l-.13-.07a2.07,2.07,0,0,1-.87-1.58s0-.06,0-.09,0-.07,0-.11a2,2,0,0,1,2-1.91m-7.45,2a2,2,0,0,1,2-2,2,2,0,0,1,2,1.91v.2a2,2,0,0,1-4-.09m2.76,4.82a2,2,0,0,1,2-2,2,2,0,0,1,1,.28l.13.07a2.08,2.08,0,0,1,.87,1.58s0,.06,0,.1,0,0,0,.09a2,2,0,0,1-4-.09m4.73,6.85a2,2,0,1,1,2-2,2,2,0,0,1-2,2m2.72-4.83a2,2,0,0,1-2-1.93v-.19a2,2,0,0,1,2-1.93,1.88,1.88,0,0,1,1,.29l.11.05a2,2,0,0,1,.88,1.69,2,2,0,0,1-2,2m2.7-4.83a1.93,1.93,0,0,1-1-.28l-.1-.06a2,2,0,0,1-.88-1.58.28.28,0,0,0,0-.09.31.31,0,0,0,0-.1,2,2,0,1,1,2,2.11" fill="#fff"/>
        <path d="M107,84.8h-3.37a1.16,1.16,0,0,0,0-.18V78.9c.41-.63.8-1.17,1.14-1.65,1.61-2.25,2.67-3.74,2.67-8.32,0-5.23-1.36-14.59-3.93-18.52a.77.77,0,0,0-1.25,0c-1.29,2-2.27,5.3-2.93,8.79a8.36,8.36,0,0,0-.59-.78.74.74,0,0,0-.56-.26.76.76,0,0,0-.56.26C95.42,61,94,66.89,94,70.84c0,3.53,1.16,4.82,2.92,6.77l.58.65a.7.7,0,0,0,0,.14v6.4H95a.74.74,0,0,0-.75.75.75.75,0,0,0,.75.77H107a.76.76,0,0,0,.75-.77.75.75,0,0,0-.75-.75M103,52.38C104.8,56.26,106,63.8,106,68.93c0,4.08-.85,5.27-2.39,7.42l-.68,1c-.23-.34-.46-.67-.68-1s-.55-.78-.79-1.14a8.13,8.13,0,0,0,1-4.37,26.17,26.17,0,0,0-2-9.5,36.5,36.5,0,0,1,2.42-9M95.51,70.84c0-3.32,1.08-8.1,2.75-10.66,1.67,2.55,2.75,7.33,2.75,10.66,0,2.94-.85,3.88-2.53,5.74l-.22.24c-.07-.08-.15-.16-.21-.24-1.69-1.86-2.54-2.8-2.54-5.74M99,78.3l.61-.69c.35-.39.67-.75,1-1.11l.53.75c.34.48.72,1,1.13,1.62v5.75a1.13,1.13,0,0,0,0,.18H99V78.4s0-.07,0-.1" fill="#fff"/>
        <path d="M41.49,113.37a23.44,23.44,0,0,0-13.43-6.09c-.52-.66-2.28-2.4-6.91-3.47a.77.77,0,0,0-.92.6.78.78,0,0,0,.58.94,14.65,14.65,0,0,1,4.71,1.82,23.23,23.23,0,0,0-14.9,5.68,26.39,26.39,0,0,1-4.76-6.19.78.78,0,1,0-1.34.79,27.69,27.69,0,0,0,4.93,6.44,28.71,28.71,0,0,0-5,6.45.81.81,0,0,0,.29,1.08.77.77,0,0,0,.39.11.81.81,0,0,0,.67-.39,25.86,25.86,0,0,1,4.8-6.19A23.83,23.83,0,0,0,19,119.62a9.77,9.77,0,0,1-2.12,1.06.79.79,0,0,0-.47,1,.78.78,0,0,0,.73.52.75.75,0,0,0,.26,0,12.94,12.94,0,0,0,3.54-2,23,23,0,0,0,20.58-5.6.89.89,0,0,0,.23-.37.77.77,0,0,0-.23-.81m-10.08,5A5.64,5.64,0,0,1,29.36,114a5.8,5.8,0,0,1,.64-2.63.8.8,0,0,0-.33-1.07.76.76,0,0,0-1,.33,7.3,7.3,0,0,0,1,8.14,20.36,20.36,0,0,1-3.75.34,21,21,0,0,1-3.47-.29c.37-.38.73-.77,1.09-1.2a.8.8,0,0,0-.09-1.11.78.78,0,0,0-1.09.1,16.86,16.86,0,0,1-1.76,1.81,22.24,22.24,0,0,1-8.72-4.53,21.45,21.45,0,0,1,28,0,22.28,22.28,0,0,1-8.38,4.43" fill="#fff"/>
        <path d="M34.26,114.67a1.14,1.14,0,1,0-1.07-1.13,1.1,1.1,0,0,0,1.07,1.13" fill="#fff"/>
        <path d="M39.81,33.19c-.53-3.38-4.56-9.47-5.1-10.27l-1.18-3.28a.61.61,0,0,0-.09-.18l-4.81-7,.58-6.56a.75.75,0,0,0-.33-.71.74.74,0,0,0-.77,0,23.84,23.84,0,0,0-5.18,4.37c-1.72-.24-8.2-.61-16.75,5.05a.76.76,0,0,0-.21,1,.72.72,0,0,0,.61.34A.66.66,0,0,0,7,15.9c6.92-4.58,12.44-5,14.82-4.89a13.45,13.45,0,0,0-1.12,1.82.76.76,0,0,0,.32,1,.72.72,0,0,0,1-.32,19.36,19.36,0,0,1,5.6-6.17l-.47,5.31a.74.74,0,0,0,.22.59l4.82,7,1.18,3.27a.6.6,0,0,0,.08.16,49.35,49.35,0,0,1,4.47,8.14,2.12,2.12,0,0,0-.61-.08,2.36,2.36,0,0,0-2,1.47,1.84,1.84,0,0,0,.26,2,.73.73,0,0,0,.56.25.72.72,0,0,0,.48-.18.77.77,0,0,0,.07-1.07.37.37,0,0,1,0-.38,1,1,0,0,1,.7-.56.84.84,0,0,1,1,.93,3.15,3.15,0,0,1-2.77,3h0a10.76,10.76,0,0,0-1.65-1.91.74.74,0,0,0-1.05,0,.77.77,0,0,0,0,1.06c.38.38.8.83,1.08,1.16A2.28,2.28,0,0,1,31.55,37a2.68,2.68,0,0,1-.36-4,.75.75,0,0,0-.13-1,.73.73,0,0,0-1,.13,5.16,5.16,0,0,0-.65,1.08l-4.84-3.86a.76.76,0,0,0-.7-.12,4.55,4.55,0,0,1-4.29-1,4.07,4.07,0,0,1-.73-.88.68.68,0,0,0-.18-.32,6.29,6.29,0,0,1,1.15-6.65.76.76,0,0,0-.08-1.06.72.72,0,0,0-1,.09,7.86,7.86,0,0,0-1.44,8.09L7.8,40.34a.75.75,0,0,0,.59,1.2.77.77,0,0,0,.6-.3l9.08-12.39a6,6,0,0,0,.5.51,5.93,5.93,0,0,0,5.34,1.36L29,34.77a4.33,4.33,0,0,0,1.65,3.44,4.16,4.16,0,0,0,2.56,1,2.84,2.84,0,0,0,1.87-.67.74.74,0,0,0,.51.2h.06c1.84,0,4.59-2.92,4.18-5.53" fill="#fff"/>
        <path d="M28.84,20.71a1.21,1.21,0,0,1,1.74,0,1.28,1.28,0,0,1,0,1.78,1.21,1.21,0,0,1-1.74,0,1.28,1.28,0,0,1,0-1.78" fill="#fff"/>
        <path d="M48.83,57.51H50a1.84,1.84,0,0,0,2,1.6,1.6,1.6,0,0,0,1.78-1.53c0-.87-.79-1.26-1.53-1.45l-1.14-.29c-1.86-.45-2.16-1.57-2.16-2.3A2.69,2.69,0,0,1,51.8,51a2.6,2.6,0,0,1,2.79,2.6H53.43a1.7,1.7,0,0,0-3.37-.07c0,.31.1,1,1.28,1.24l1.15.29c1.49.38,2.39,1.21,2.39,2.49a2.73,2.73,0,0,1-2.94,2.65,2.9,2.9,0,0,1-3.11-2.69" fill="#fff"/>
        <path d="M60.25,56.73l-1.51-4.06-1.51,4.06Zm.39,1H56.85L56,60.07H54.78l3.35-9h1.23l3.35,9H61.5Z" fill="#fff"/>
        <polygon points="63.33 51.11 64.49 51.11 64.49 58.98 68.1 58.98 68.1 60.07 63.33 60.07 63.33 51.11" fill="#fff"/>
        <path d="M75.62,55.61a3.31,3.31,0,1,0-3.31,3.5,3.39,3.39,0,0,0,3.31-3.5m-7.76,0a4.47,4.47,0,1,1,4.45,4.59,4.5,4.5,0,0,1-4.45-4.59" fill="#fff"/>
        <polygon points="84.37 51.11 84.37 60.07 83.24 60.07 79.17 53.24 79.17 60.07 78.01 60.07 78.01 51.11 79.16 51.11 83.2 57.91 83.2 51.11 84.37 51.11" fill="#fff"/>
        <rect x="48.84" y="61.82" width="0.49" height="3.74" fill="#fbba00"/>
        <polygon points="52.73 61.82 52.73 65.55 52.26 65.55 50.56 62.71 50.56 65.55 50.08 65.55 50.08 61.82 50.56 61.82 52.24 64.65 52.24 61.82 52.73 61.82" fill="#fbba00"/>
        <polygon points="55.8 62.27 54.68 62.27 54.68 65.55 54.19 65.55 54.19 62.27 53.07 62.27 53.07 61.82 55.8 61.82 55.8 62.27" fill="#fbba00"/>
        <polygon points="58.37 65.1 58.37 65.55 56.15 65.55 56.15 61.82 58.31 61.82 58.31 62.27 56.63 62.27 56.63 63.49 58.1 63.49 58.1 63.95 56.63 63.95 56.63 65.1 58.37 65.1" fill="#fbba00"/>
        <path d="M59.37,63.69h.77a.65.65,0,0,0,.75-.71.63.63,0,0,0-.61-.71h-.91Zm.48.45h-.48v1.41h-.49V61.82h1.38a1.17,1.17,0,0,1,.15,2.32l1,1.41h-.58Z" fill="#fbba00"/>
        <polygon points="64.56 61.82 64.56 65.55 64.09 65.55 62.4 62.71 62.4 65.55 61.91 65.55 61.91 61.82 62.39 61.82 64.08 64.65 64.08 61.82 64.56 61.82" fill="#fbba00"/>
        <path d="M67.1,64.16l-.63-1.69-.63,1.69Zm.16.43H65.68l-.36,1h-.5l1.39-3.73h.52l1.39,3.73h-.5Z" fill="#fbba00"/>
        <polygon points="70.38 62.27 69.26 62.27 69.26 65.55 68.78 65.55 68.78 62.27 67.66 62.27 67.66 61.82 70.38 61.82 70.38 62.27" fill="#fbba00"/>
        <rect x="70.74" y="61.82" width="0.49" height="3.74" fill="#fbba00"/>
        <path d="M75,63.69a1.38,1.38,0,1,0-1.38,1.46A1.41,1.41,0,0,0,75,63.69m-3.23,0a1.86,1.86,0,1,1,1.85,1.92,1.87,1.87,0,0,1-1.85-1.92" fill="#fbba00"/>
        <polygon points="78.59 61.82 78.59 65.55 78.13 65.55 76.43 62.71 76.43 65.55 75.94 65.55 75.94 61.82 76.42 61.82 78.11 64.65 78.11 61.82 78.59 61.82" fill="#fbba00"/>
        <path d="M81.13,64.16l-.63-1.69-.63,1.69Zm.16.43H79.71l-.35,1h-.51l1.4-3.73h.51l1.4,3.73h-.51Z" fill="#fbba00"/>
        <polygon points="82.41 61.82 82.9 61.82 82.9 65.1 84.4 65.1 84.4 65.55 82.41 65.55 82.41 61.82" fill="#fbba00"/>
        <path d="M52.89,70.42c.76,0,1.15-.59,1.15-1.37s-.39-1.39-1.15-1.39H52v2.76ZM51.5,67.21h1.39a1.84,1.84,0,0,1,0,3.66H51.5Z" fill="#fbfdff"/>
        <polygon points="57.2 70.42 57.2 70.86 55.03 70.86 55.03 67.21 57.14 67.21 57.14 67.66 55.5 67.66 55.5 68.84 56.94 68.84 56.94 69.3 55.5 69.3 55.5 70.42 57.2 70.42" fill="#fbfdff"/>
        <path d="M49,81.09a3.31,3.31,0,0,1,3.28-3.36,3.13,3.13,0,0,1,2.42,1.11l-.62.54a2.33,2.33,0,0,0-1.8-.85,2.56,2.56,0,0,0,0,5.12,2.33,2.33,0,0,0,1.8-.85l.62.54a3.13,3.13,0,0,1-2.42,1.11A3.31,3.31,0,0,1,49,81.09" fill="#fbfdff"/>
        <path d="M55.38,82.11V77.8h.85v4.31a1.5,1.5,0,1,0,3,0V77.8h.85v4.31a2.35,2.35,0,0,1-4.69,0" fill="#fbfdff"/>
        <polygon points="61.33 77.8 62.18 77.8 62.18 83.55 64.82 83.55 64.82 84.35 61.33 84.35 61.33 77.8" fill="#fbfdff"/>
        <polygon points="68.68 78.6 66.71 78.6 66.71 84.35 65.86 84.35 65.86 78.6 63.9 78.6 63.9 77.8 68.68 77.8 68.68 78.6" fill="#fbfdff"/>
        <path d="M69.22,82.11V77.8h.85v4.31a1.5,1.5,0,1,0,3,0V77.8h.85v4.31a2.35,2.35,0,0,1-4.7,0" fill="#fbfdff"/>
        <path d="M76,81.09h1.35a1.15,1.15,0,0,0,1.32-1.25,1.1,1.1,0,0,0-1.08-1.24H76Zm.84.79H76v2.47h-.85V77.8H77.6a2.05,2.05,0,0,1,.26,4.07l1.72,2.48h-1Z" fill="#fbfdff"/>
        <polygon points="84.39 83.55 84.39 84.35 80.5 84.35 80.5 77.8 84.3 77.8 84.3 78.6 81.34 78.6 81.34 80.73 83.92 80.73 83.92 81.54 81.34 81.54 81.34 83.55 84.39 83.55" fill="#fbfdff"/>
        <polygon points="49.05 67.14 50.24 67.14 50.24 75.14 53.9 75.14 53.9 76.25 49.05 76.25 49.05 67.14" fill="#fbfdff"/>
        <path d="M63.66,72.85l-1.54-4.13-1.53,4.13Zm.39,1.06H60.2l-.87,2.34H58.09l3.41-9.11h1.25l3.4,9.11H64.92Z" fill="#fbfdff"/>
        <path d="M66,71.71A4.56,4.56,0,0,1,70.56,67a4.43,4.43,0,0,1,3,1.19l-.82.78a3.33,3.33,0,0,0-2.2-.86,3.57,3.57,0,0,0,0,7.13A2.72,2.72,0,0,0,73.47,73a.85.85,0,0,0,0-.23H70.9v-1h3.9c0,3.18-1.69,4.69-4.24,4.69A4.56,4.56,0,0,1,66,71.71" fill="#fbfdff"/>
        <path d="M77,71.71h1.87A1.59,1.59,0,0,0,80.69,70a1.53,1.53,0,0,0-1.49-1.73H77Zm1.17,1.1H77v3.44H75.8V67.14h3.37a2.86,2.86,0,0,1,.37,5.66l2.37,3.45H80.5Z" fill="#fbfdff"/>
        <rect x="83.19" y="67.14" width="1.18" height="9.11" fill="#fbfdff"/>
        <path d="M57.78,71a4.83,4.83,0,0,0,1-3.73h1.1a4.58,4.58,0,0,1-1.43,4Z" fill="#fff"/>
      </g>
    </g>
  </g>
</svg>
