<svg width="346" height="174" viewBox="0 0 346 174" xmlns="http://www.w3.org/2000/svg" xmlns:xlink="http://www.w3.org/1999/xlink"><defs><polygon id="a" points="0 174 345.710067 174 345.710067 0 0 0"/></defs><g fill="none" fill-rule="evenodd"><path d="M23.8944268 51.3312683 27.9809333 51.3312683C28.115909 54.1005978 30.7479356 56.9141436 34.9252016 56.9141436 39.0117081 56.9141436 41.2341532 54.3728765 41.2341532 51.6035469 41.2341532 48.5619388 38.4648237 47.2005457 35.832797 46.5186856L31.7928339 45.5203306C25.1650604 43.9332023 24.1224893 40.0282149 24.1224893 37.4869478 24.1224893 32.0855916 28.9792882 28.634402 34.4248606 28.634402 39.9193035 28.634402 44.3223047 32.1298078 44.3223047 37.7126831L40.2357983 37.7126831C40.2357983 34.5803154 37.650315 32.4463026 34.2898848 32.4463026 31.1575172 32.4463026 28.2532119 34.3545801 28.2532119 37.4404044 28.2532119 38.5295189 28.6162501 40.8008346 32.7911889 41.7991895L36.8776953 42.7975444C42.1882919 44.1123942 45.3648758 47.0190266 45.3648758 51.466244 45.3648758 56.3253701 41.4179994 60.7283714 34.9252016 60.7283714 28.3439714 60.7283714 23.9409702 56.1880672 23.8944268 51.3312683M65.7969426 52.2388637 52.3598764 52.2388637 49.3205954 60.2745737 45.0060266 60.2745737 56.9001806 28.9974401 61.2589656 28.9974401 73.1507924 60.2745737 68.8385507 60.2745737 65.7969426 52.2388637ZM64.4355495 48.6084821 59.0784095 34.4453396 53.7212695 48.6084821 64.4355495 48.6084821Z" fill="#FFF"/><polygon fill="#FFF" points="75.335072 28.9974401 79.4657946 28.9974401 79.4657946 56.4603459 92.267544 56.4603459 92.267544 60.2745737 75.335072 60.2745737"/><path d="M91.4069574,44.7041929 C91.4069574,35.8074309 98.3070096,28.6351001 107.203772,28.6351001 C116.147077,28.6351001 123.091345,35.8074309 123.091345,44.7041929 C123.091345,53.5567388 116.147077,60.7267424 107.203772,60.7267424 C98.3070096,60.7267424 91.4069574,53.5567388 91.4069574,44.7041929 M118.960623,44.7041929 C118.960623,37.9856598 113.878089,32.4470008 107.203772,32.4470008 C100.622541,32.4470008 95.5376801,37.9856598 95.5376801,44.7041929 C95.5376801,51.3761826 100.622541,56.9148417 107.203772,56.9148417 C113.878089,56.9148417 118.960623,51.3761826 118.960623,44.7041929" fill="#FFF"/><polygon fill="#FFF" points="149.972925 28.9974401 149.972925 60.2745737 145.977178 60.2745737 131.544084 36.4420495 131.544084 60.2745737 127.411034 60.2745737 127.411034 28.9974401 131.49754 28.9974401 145.842202 52.7392048 145.842202 28.9974401"/><mask id="b" fill="#fff"><use xlink:href="#a"/></mask><polygon fill="#FFF" mask="url(#b)" points="23.9349196 79.4099426 25.6570236 79.4099426 25.6570236 66.3778036 23.9349196 66.3778036"/><polygon fill="#FFF" mask="url(#b)" points="37.7250171 66.3759419 37.7250171 79.4080809 36.058765 79.4080809 30.0453637 69.4780564 30.0453637 79.4080809 28.3232596 79.4080809 28.3232596 66.3759419 30.0267464 66.3759419 36.002913 76.2687317 36.002913 66.3759419"/><polygon fill="#FFF" mask="url(#b)" points="48.6191871 67.9646993 44.6467119 67.9646993 44.6467119 79.4097099 42.926935 79.4097099 42.926935 67.9646993 38.9544597 67.9646993 38.9544597 66.3752438 48.6191871 66.3752438"/><polygon fill="#FFF" mask="url(#b)" points="57.7367973 77.8202544 57.7367973 79.4097099 49.8686434 79.4097099 49.8686434 66.3752438 57.5482968 66.3752438 57.5482968 67.9646993 51.569803 67.9646993 51.569803 72.2024716 56.7896401 72.2024716 56.7896401 73.8105445 51.569803 73.8105445 51.569803 77.8202544"/><path d="M62.9941018,74.4910083 L61.2906151,74.4910083 L61.2906151,79.4083136 L59.5708382,79.4083136 L59.5708382,66.3761746 L64.4695261,66.3761746 C67.3063435,66.3761746 68.4024395,68.4194278 68.4024395,70.4440637 C68.4024395,72.3337239 67.4576094,74.2257112 65.0001204,74.472391 L68.4606187,79.4083136 L66.3987481,79.4083136 L62.9941018,74.4910083 Z M61.2906151,72.9201701 L64.0157284,72.9201701 C65.9263331,72.9201701 66.6826626,71.9171609 66.6826626,70.4440637 C66.6826626,68.9849296 65.8309192,67.9656301 64.5067608,67.9656301 L61.2906151,67.9656301 L61.2906151,72.9201701 Z" fill="#FFF" mask="url(#b)"/><polygon fill="#FFF" mask="url(#b)" points="79.7150343 66.3759419 79.7150343 79.4080809 78.0511094 79.4080809 72.035381 69.4780564 72.035381 79.4080809 70.3132769 79.4080809 70.3132769 66.3759419 72.0167636 66.3759419 77.9929302 76.2687317 77.9929302 66.3759419"/><path d="M89.2850459,76.0604502 L83.6858805,76.0604502 L82.4175741,79.4092445 L80.6210007,79.4092445 L85.5778678,66.3747783 L87.3930586,66.3747783 L92.3475986,79.4092445 L90.5510252,79.4092445 L89.2850459,76.0604502 Z M88.717217,74.5477912 L86.4854632,68.646094 L84.2513823,74.5477912 L88.717217,74.5477912 Z" fill="#FFF" mask="url(#b)"/><polygon fill="#FFF" mask="url(#b)" points="100.368182 67.9646993 96.3957068 67.9646993 96.3957068 79.4097099 94.6759299 79.4097099 94.6759299 67.9646993 90.7034546 67.9646993 90.7034546 66.3752438 100.368182 66.3752438"/><polygon fill="#FFF" mask="url(#b)" points="101.615777 79.4099426 103.337881 79.4099426 103.337881 66.3778036 101.615777 66.3778036"/><path d="M105.096987,72.9206356 C105.096987,69.2134574 107.971039,66.2253742 111.680544,66.2253742 C115.40634,66.2253742 118.299009,69.2134574 118.299009,72.9206356 C118.299009,76.6091963 115.40634,79.5972796 111.680544,79.5972796 C107.971039,79.5972796 105.096987,76.6091963 105.096987,72.9206356 M116.579232,72.9206356 C116.579232,70.1210528 114.459182,67.8148297 111.680544,67.8148297 C108.936813,67.8148297 106.819091,70.1210528 106.819091,72.9206356 C106.819091,75.7016009 108.936813,78.0101513 111.680544,78.0101513 C114.459182,78.0101513 116.579232,75.7016009 116.579232,72.9206356" fill="#FFF" mask="url(#b)"/><polygon fill="#FFF" mask="url(#b)" points="129.497573 66.3759419 129.497573 79.4080809 127.83132 79.4080809 121.817919 69.4780564 121.817919 79.4080809 120.095815 79.4080809 120.095815 66.3759419 121.799302 66.3759419 127.775468 76.2687317 127.775468 66.3759419"/><path d="M139.068515,76.0604502 L133.46935,76.0604502 L132.201043,79.4092445 L130.40447,79.4092445 L135.361337,66.3747783 L137.176528,66.3747783 L142.131068,79.4092445 L140.334494,79.4092445 L139.068515,76.0604502 Z M138.500686,74.5477912 L136.268932,68.646094 L134.037179,74.5477912 L138.500686,74.5477912 Z" fill="#FFF" mask="url(#b)"/><polygon fill="#FFF" mask="url(#b)" points="143.039129 66.3759419 144.761233 66.3759419 144.761233 77.8209525 150.095101 77.8209525 150.095101 79.4080809 143.039129 79.4080809"/><path d="M33.3781005,85.1976086 L38.3186775,85.1976086 C41.9444048,85.1976086 44.0737632,87.9739197 44.0737632,91.5996469 C44.0737632,95.209084 41.9444048,97.9481603 38.3186775,97.9481603 L33.3781005,97.9481603 L33.3781005,85.1976086 Z M38.3186775,96.3936123 C41.0019019,96.3936123 42.391221,94.3201059 42.391221,91.5996469 C42.391221,88.8791879 41.0019019,86.7521566 38.3186775,86.7521566 L35.0629699,86.7521566 L35.0629699,96.3936123 L38.3186775,96.3936123 Z" fill="#FFF" mask="url(#b)"/><polygon fill="#FFF" mask="url(#b)" points="53.5851302 96.3936123 53.5851302 97.9481603 45.8868595 97.9481603 45.8868595 85.1976086 53.401284 85.1976086 53.401284 86.7521566 47.5531116 86.7521566 47.5531116 90.8968423 52.6589175 90.8968423 52.6589175 92.4700076 47.5531116 92.4700076 47.5531116 96.3936123"/><path d="M24.5416122 133.629226C24.5416122 127.155046 29.6893071 121.907282 36.1658147 121.907282 39.6844922 121.907282 42.7400634 123.401324 44.7670264 125.791325L42.5748345 127.653059C41.0458853 125.858813 38.7210448 124.695229 36.1658147 124.695229 31.3485776 124.695229 27.5622758 128.714248 27.5622758 133.629226 27.5622758 138.511624 31.3485776 142.563223 36.1658147 142.563223 38.7210448 142.563223 41.0458853 141.401966 42.5748345 139.60772L44.7670264 141.467127C42.7400634 143.857128 39.6844922 145.35117 36.1658147 145.35117 29.6893071 145.35117 24.5416122 140.105734 24.5416122 133.629226M47.1256109 137.183509 47.1256109 122.13837 50.1486017 122.13837 50.1486017 137.183509C50.1486017 140.769675 52.6060908 142.463853 55.4615255 142.463853 58.3169602 142.463853 60.7744493 140.769675 60.7744493 137.183509L60.7744493 122.13837 63.7974401 122.13837 63.7974401 137.183509C63.7974401 142.363784 59.978558 145.351868 55.4615255 145.351868 50.944493 145.351868 47.1256109 142.363784 47.1256109 137.183509" fill="#FFF" mask="url(#b)"/><polygon fill="#FFF" mask="url(#b)" points="68.2509409 122.139534 71.2716045 122.139534 71.2716045 142.229972 80.6384544 142.229972 80.6384544 145.020246 68.2509409 145.020246"/><polygon fill="#FFF" mask="url(#b)" points="94.3210368 124.929342 87.3465153 124.929342 87.3465153 145.019781 84.3258516 145.019781 84.3258516 124.929342 77.3513301 124.929342 77.3513301 122.139068 94.3210368 122.139068"/><path d="M96.2490952 137.183509 96.2490952 122.13837 99.272086 122.13837 99.272086 137.183509C99.272086 140.769675 101.729575 142.463853 104.58501 142.463853 107.440445 142.463853 109.897934 140.769675 109.897934 137.183509L109.897934 122.13837 112.920924 122.13837 112.920924 137.183509C112.920924 142.363784 109.102042 145.351868 104.58501 145.351868 100.067977 145.351868 96.2490952 142.363784 96.2490952 137.183509M123.384336 136.385989 120.393925 136.385989 120.393925 145.019781 117.373262 145.019781 117.373262 122.139068 125.974473 122.139068C130.954612 122.139068 132.881507 125.725234 132.881507 129.281146 132.881507 132.599687 131.222236 135.920555 126.90534 136.353408L132.981575 145.019781 129.360502 145.019781 123.384336 136.385989ZM120.393925 133.628295 125.176255 133.628295C128.532031 133.628295 129.860843 131.871284 129.860843 129.281146 129.860843 126.721261 128.364475 124.929342 126.041961 124.929342L120.393925 124.929342 120.393925 133.628295Z" fill="#FFF" mask="url(#b)"/><polygon fill="#FFF" mask="url(#b)" points="150.054143 142.230903 150.054143 145.021177 136.240075 145.021177 136.240075 122.140465 149.721358 122.140465 149.721358 124.928412 139.228159 124.928412 139.228159 132.368367 148.392545 132.368367 148.392545 135.191221 139.228159 135.191221 139.228159 142.230903"/><polygon fill="#FFF" mask="url(#b)" points="24.6954379 84.9432492 28.8936484 84.9432492 28.8936484 112.852971 41.9025157 112.852971 41.9025157 116.727705 24.6954379 116.727705"/><path d="M77.8870441 108.56307 64.2335513 108.56307 61.1430727 116.729102 56.7586888 116.729102 68.8459977 84.9423183 73.2745978 84.9423183 85.3619067 116.729102 80.9798499 116.729102 77.8870441 108.56307ZM76.5023793 104.872182 71.0591341 90.4786502 65.6158889 104.872182 76.5023793 104.872182ZM84.94674 100.904361C84.94674 91.863315 91.9584962 84.5746258 100.999543 84.5746258 105.197753 84.5746258 108.935184 86.1896802 111.704514 88.726293L108.797881 91.446752C106.766264 89.6478514 103.999262 88.44936 100.999543 88.44936 94.3112627 88.44936 89.1449504 94.0764515 89.1449504 100.904361 89.1449504 107.732271 94.3112627 113.315147 100.999543 113.315147 106.489331 113.315147 110.687542 110.175797 111.334494 105.242202 111.381038 105.009485 111.427581 104.734879 111.427581 104.457946L102.200361 104.457946 102.200361 100.811275 116.040027 100.811275C116.040027 111.930482 110.042916 117.189881 100.999543 117.189881 91.9584962 117.189881 84.94674 109.901192 84.94674 100.904361M127.943955 104.734181 123.792288 104.734181 123.792288 116.728403 119.594078 116.728403 119.594078 84.9439474 131.541757 84.9439474C138.462753 84.9439474 141.138996 89.9240862 141.138996 94.862336 141.138996 99.4747823 138.830446 104.087229 132.833335 104.687638L141.276299 116.728403 136.24729 116.728403 127.943955 104.734181ZM123.792288 100.903663 130.434025 100.903663C135.095342 100.903663 136.940786 98.4601372 136.940786 94.862336 136.940786 91.308751 134.864952 88.8186815 131.634843 88.8186815L123.792288 88.8186815 123.792288 100.903663Z" fill="#FFF" mask="url(#b)"/><polygon fill="#FFF" mask="url(#b)" points="145.799382 116.728403 149.997593 116.728403 149.997593 84.9439474 145.799382 84.9439474"/><path d="M55.6630582 98.522738C58.3788629 94.69222 59.9799543 91.4411668 59.3492918 85.5231794L63.2310075 85.5231794C63.8127994 91.1014003 61.9208121 96.2909842 58.185708 99.4442964L55.6630582 98.522738ZM288.324439 172.168519 343.878586 172.168519 343.878586 116.616699 288.324439 116.616699 288.324439 172.168519ZM286.492958 174 345.710067 174 345.710067 114.782891 286.492958 114.782891 286.492958 174ZM173.567147 114.782891 229.118966 114.782891 229.118966 59.2333989 173.567147 59.2333989 173.567147 114.782891ZM171.735666 116.616699 230.950447 116.616699 230.950447 57.3995907 171.735666 57.3995907 171.735666 116.616699Z" fill="#FFF" mask="url(#b)"/><path d="M230.950447,114.782891 L286.502267,114.782891 L286.502267,59.2333989 L230.950447,59.2333989 L230.950447,114.782891 Z M229.118966,116.616699 L288.333748,116.616699 L288.333748,57.3995907 L229.118966,57.3995907 L229.118966,116.616699 Z" fill="#FFF" mask="url(#b)"/><path d="M288.333748 114.782891 343.878586 114.782891 343.878586 59.2333989 288.333748 59.2333989 288.333748 114.782891ZM286.502267 116.616699 345.710067 116.616699 345.710067 57.3995907 286.502267 57.3995907 286.502267 116.616699ZM173.567147 57.3995907 229.118966 57.3995907 229.118966 1.84777114 173.567147 1.84777114 173.567147 57.3995907ZM171.735666 59.2333989 230.950447 59.2333989 230.950447.0139630061 171.735666.0139630061 171.735666 59.2333989Z" fill="#FFF" mask="url(#b)"/><path d="M230.950447,57.3995907 L286.502267,57.3995907 L286.502267,1.8500983 L230.950447,1.8500983 L230.950447,57.3995907 Z M229.118966,59.2333989 L288.333748,59.2333989 L288.333748,0.0162901737 L229.118966,0.0162901737 L229.118966,59.2333989 Z" fill="#FFF" mask="url(#b)"/><path d="M288.333748 57.3995907 343.878586 57.3995907 343.878586 1.8500983 288.333748 1.8500983 288.333748 57.3995907ZM286.502267 59.2333989 345.710067 59.2333989 345.710067.0162901737 286.502267.0162901737 286.502267 59.2333989ZM230.950447 172.166192 286.502267 172.166192 286.502267 116.616699 230.950447 116.616699 230.950447 172.166192ZM229.118966 173.997673 288.333748 173.997673 288.333748 114.782891 229.118966 114.782891 229.118966 173.997673Z" fill="#FFF" mask="url(#b)"/><path d="M244.615809 131.48381C244.615809 132.019059 244.18761 132.449585 243.659343 132.449585 243.124094 132.449585 242.688914 132.019059 242.688914 131.48381 242.688914 130.948562 243.124094 130.513381 243.659343 130.513381 244.18761 130.513381 244.615809 130.948562 244.615809 131.48381M282.206548 153.477872C280.773013 153.477872 279.418601 153.910725 278.264326 154.718252L278.264326 150.289652 281.941251 150.308269 281.95056 150.308269C282.362468 150.308269 282.734815 150.0453 282.883754 149.656663 283.025711 149.265698 282.914007 148.830518 282.595185 148.555912L277.480071 144.213417 277.312515 138.090639C277.293897 137.548409 276.858717 137.117883 276.318814 137.117883L272.634908 137.117883C272.092677 137.117883 271.645861 137.569354 271.645861 138.118565L271.645861 138.45135 265.7558 132.754444C265.374144 132.382097 264.766754 132.370461 264.385098 132.740481L247.471243 148.651326C247.168712 148.937568 247.073298 149.372748 247.222236 149.745095 247.373502 150.124423 247.741195 150.37343 248.146122 150.37343L251.704361 150.37343 251.711343 165.013642 244.522722 165.013642 244.522722 134.30201C245.42799 134.025077 246.149412 133.310637 246.451944 132.41235L256.212085 134.183325 256.244666 134.183325C256.300518 134.183325 256.35637 134.157726 256.395931 134.11351 256.435493 134.064639 256.444802 133.985515 256.416876 133.920355 256.333098 133.74349 254.373623 129.663965 246.545031 130.871765 246.261116 129.538298 245.074261 128.52598 243.659343 128.52598 243.619781 128.52598 243.587201 128.532962 243.552293 128.532962L241.881387 118.730931C241.865096 118.663443 241.816226 118.609919 241.753392 118.586647 241.685905 118.565702 241.611435 118.586647 241.562565 118.63319 241.41828 118.775147 238.253332 122.030855 242.081523 128.982105 241.255379 129.505718 240.696858 130.427276 240.696858 131.48381 240.696858 131.839867 240.764346 132.186615 240.885359 132.50311L232.842667 139.00987C232.789143 139.056414 232.761217 139.128556 232.77518 139.189062 232.793797 139.263532 232.842667 139.319384 232.910155 139.335674 232.961353 139.356618 233.305774 139.445051 233.866621 139.445051 235.418842 139.445051 238.621025 138.735265 241.748738 133.729527 241.979128 133.929663 242.244425 134.092565 242.535321 134.211251L242.535321 165.013642 235.586398 165.013642C235.041841 165.013642 234.592698 165.460458 234.592698 166.007343 234.592698 166.558881 235.041841 167.00337 235.586398 167.00337L252.705044 167.00337C252.970341 167.00337 253.224002 166.896321 253.405521 166.714802 253.596349 166.521647 253.705726 166.277294 253.705726 166.007343L253.689435 149.382057C253.689435 148.830518 253.247274 148.390683 252.695735 148.390683L250.650154 148.390683 265.055322 134.834932 271.946066 141.518557C272.234635 141.790836 272.653525 141.876941 273.025872 141.714039 273.393564 141.558119 273.630935 141.20439 273.630935 140.80179L273.630935 139.112266 275.353039 139.112266 275.50896 144.711431C275.522923 144.988364 275.653244 145.253661 275.860362 145.43518L279.232428 148.304578 277.270626 148.295269C277.014637 148.295269 276.760976 148.397665 276.567821 148.583838 276.37932 148.767684 276.272271 149.023673 276.272271 149.28897L276.272271 153.56165C275.26228 152.972876 274.096369 152.656382 272.876933 152.656382 269.123211 152.656382 266.076949 155.700317 266.076949 159.447057 266.076949 159.898527 266.130474 160.345344 266.223561 160.801469 263.833559 161.513582 262.141708 163.694138 262.141708 166.28893 262.141708 166.83116 262.588525 167.280303 263.140063 167.280303 263.684621 167.280303 264.126782 166.83116 264.126782 166.28893 264.126782 164.331782 265.611515 162.723709 267.570991 162.556153 267.889813 162.5259 268.169073 162.356017 268.334302 162.086065 268.497203 161.818441 268.525129 161.483329 268.415753 161.197087 268.185363 160.617622 268.069005 160.021867 268.069005 159.447057 268.069005 156.791759 270.226289 154.641456 272.876933 154.641456 274.543185 154.641456 276.072134 155.502508 276.963439 156.93837 277.126341 157.203667 277.405601 157.373551 277.715115 157.403804 278.026955 157.434057 278.32716 157.320026 278.538932 157.091963 279.509361 156.040083 280.80792 155.465273 282.206548 155.465273 282.753433 155.465273 283.195594 155.018457 283.195594 154.466918 283.195594 153.924688 282.753433 153.477872 282.206548 153.477872M336.271308 22.0671348C335.421891 23.1190146 333.425182 24.3593949 328.74292 24.5013522 329.008217 23.7403683 329.152502 22.9258596 329.152502 22.0904065 329.152502 21.5551579 329.124576 21.0524897 329.085014 20.5800746L329.308422 20.5870561C329.522521 20.5870561 329.729639 20.5800746 329.93443 20.570766L336.950841 20.570766C336.888007 20.9826746 336.708815 21.5342134 336.271308 22.0671348L336.271308 22.0671348ZM330.956057 16.0211532C331.293496 16.0374433 333.643935 16.0979497 335.715115 14.6620872 335.531268 15.3742005 335.196156 16.1398387 334.619019 16.8077358 333.606701 17.9643382 332.024227 18.5926734 329.904177 18.6904145L328.805754 18.6904145C328.542784 17.6036272 328.135529 16.7239578 327.567701 16.0211532L330.956057 16.0211532ZM323.36949 27.3893673C322.582907 27.677936 321.735818 27.899017 320.84684 28.0595915 320.597833 28.1084621 320.374425 28.2550736 320.23945 28.4645187 320.092838 28.676291 320.043967 28.9369338 320.099819 29.1859407 320.111455 29.2301569 321.019051 33.395787 322.173326 37.2984472 321.195915 37.1681258 320.078875 37.2775027 318.866421 37.3938611 317.961152 37.4776391 317.03494 37.55909 316.064511 37.55909 315.091755 37.55909 314.165542 37.4776391 313.262601 37.3938611 312.050146 37.2775027 310.935433 37.1681258 309.958023 37.2984472 311.107644 33.395787 312.017566 29.2301569 312.031529 29.1859407 312.082727 28.9369338 312.033856 28.676291 311.889572 28.4645187 311.745287 28.2550736 311.528861 28.1084621 311.277527 28.0595915 310.390876 27.899017 309.54146 27.677936 308.759531 27.3893673 306.388147 26.5236609 304.854544 24.4385186 304.854544 22.0904065 304.854544 19.4932873 305.31765 17.7758376 306.290406 16.837989 306.693006 16.449352 307.188693 16.1933636 307.770485 16.0211532L307.924078 16.0211532 307.924078 15.9722826C309.271508 15.6069173 311.047137 15.6697508 313.118316 15.7512017 314.028239 15.783782 314.975396 15.8163624 315.964442 15.8163624 316.94418 15.8163624 317.895992 15.783782 318.810569 15.7512017 320.891056 15.6697508 322.778389 15.6045901 324.20727 16.0025358L324.20727 16.0211532 324.237524 16.0211532C324.863532 16.1956907 325.394126 16.4679693 325.824652 16.8775509 326.80439 17.8247081 327.279132 19.5281948 327.279132 22.0904065 327.279132 24.4385186 325.740874 26.5236609 323.36949 27.3893673L323.36949 27.3893673ZM325.091594 39.3533363C324.928692 39.0205513 324.735537 38.7203467 324.502821 38.4713397 323.604534 35.7089917 322.778389 32.4137223 322.31761 30.4705373 322.566617 30.7963407 322.952927 31.0104402 323.392762 31.0104402 324.146764 31.0104402 324.754155 30.3937407 324.754155 29.6234482 324.754155 29.3697869 324.68434 29.1370702 324.565654 28.9299523 325.568663 28.4831361 326.439024 27.8454921 327.155792 27.0868355 327.381527 31.1663604 326.971946 37.0494403 325.091594 39.3533363L325.091594 39.3533363ZM323.737183 44.2636601C322.894748 44.5475745 320.062585 45.4249167 316.24603 45.4249167L316.108727 45.4249167C312.16185 45.4435341 309.241255 44.5475745 308.391839 44.2590057 308.33366 43.8145167 308.301079 43.3421017 308.301079 42.8394335 308.301079 42.5904265 308.308061 42.3600369 308.319697 42.1412832L311.210039 42.5438832C311.261237 42.5508647 311.300798 42.5508647 311.345015 42.5508647 311.805794 42.5508647 312.208394 42.2157525 312.273555 41.750319 312.348024 41.2406693 311.987313 40.7635999 311.475336 40.6868034L308.680408 40.2865305C308.80142 40.0049432 308.943378 39.7698993 309.12257 39.6116519 309.846319 38.9460819 311.345015 39.0973478 313.083409 39.2625767 313.981696 39.3463548 315.000995 39.4417686 316.059856 39.4417686L316.064511 39.4417686 316.069165 39.4417686C317.121045 39.4417686 318.138017 39.3463548 319.040958 39.2625767 320.78168 39.0973478 322.282703 38.9460819 323.004125 39.6116519 323.185644 39.7698993 323.332255 40.0049432 323.450941 40.2865305L320.653685 40.6868034C320.137054 40.7635999 319.783325 41.2406693 319.855467 41.750319 319.920628 42.2157525 320.3209 42.5508647 320.78168 42.5508647 320.825896 42.5508647 320.867785 42.5508647 320.916655 42.5438832L323.806998 42.1412832C323.816306 42.3600369 323.827942 42.5904265 323.827942 42.8394335 323.827942 43.3421017 323.795362 43.8145167 323.737183 44.2636601L323.737183 44.2636601ZM316.064511 49.5765839C312.443438 49.5765839 310.183758 48.6224451 309.087662 46.5861734 310.579376 46.9794648 312.953088 47.4448983 315.880664 47.4448983L316.097091 47.4448983 316.24603 47.4448983C319.168952 47.4448983 321.547318 46.9794648 323.041359 46.5861734 321.949918 48.6224451 319.683256 49.5765839 316.064511 49.5765839L316.064511 49.5765839ZM307.037427 39.3533363C305.157076 37.0471131 304.740513 31.1663604 304.975557 27.0868355 305.678361 27.8454921 306.555704 28.4738274 307.565694 28.9299523 307.449336 29.1300887 307.374867 29.3697869 307.374867 29.6234482 307.374867 30.3937407 307.97993 31.0104402 308.731605 31.0104402 309.17144 31.0104402 309.555423 30.7963407 309.806757 30.4635558 309.341323 32.4137223 308.529142 35.7089917 307.619219 38.4713397 307.393484 38.7203467 307.198002 39.0205513 307.037427 39.3533363L307.037427 39.3533363ZM303.311632 18.6904145 302.234153 18.6904145C300.107122 18.5926734 298.515339 17.9643382 297.510003 16.8077358 296.923557 16.1398387 296.60008 15.3742005 296.413907 14.6620872 298.482759 16.0979497 300.830871 16.0374433 301.175292 16.0211532L304.505469 16.0211532C303.960912 16.7239578 303.56762 17.6036272 303.311632 18.6904145L303.311632 18.6904145ZM295.883313 22.1043695C295.424861 21.5551579 295.243341 20.9943105 295.182835 20.570766L302.210882 20.570766C302.415672 20.5800746 302.625117 20.5800746 302.834562 20.5800746L303.037026 20.5800746C302.995137 21.0524897 302.974193 21.5551579 302.974193 22.0904065 302.974193 22.9258596 303.123131 23.7403683 303.386101 24.5013522 298.741075 24.3593949 296.742037 23.1353047 295.883313 22.1043695L295.883313 22.1043695ZM338.796285 19.432781 338.63571 18.6904145 335.373021 18.6904145C335.619701 18.4879509 335.838454 18.2715243 336.0479 18.0294989 338.226128 15.5231393 337.779312 12.1673635 337.763022 12.0230791L337.404638 9.46784897 336.033937 11.6577138C334.383975 14.3037034 331.179465 14.1524375 331.044489 14.1431288L324.523765 14.1384745C322.866822 13.7172572 320.893384 13.7870722 318.740754 13.8731774 317.84014 13.9034306 316.909273 13.9453196 315.964442 13.9453196 315.010304 13.9453196 314.084091 13.9034306 313.190459 13.8731774 311.072736 13.7870722 309.136533 13.7172572 307.505188 14.1384745L301.142712 14.1384745 301.084532 14.1431288C300.954211 14.1524375 297.749701 14.3037034 296.088103 11.6577138L294.719729 9.46784897 294.365999 12.0230791C294.345055 12.1673635 293.907547 15.5231393 296.085776 18.0294989 296.285913 18.2715243 296.509321 18.4879509 296.744365 18.6904145L293.493311 18.6904145 293.332737 19.432781C293.314119 19.516559 292.92781 21.4248365 294.39858 23.2539903 295.943819 25.1669221 298.883032 26.2071661 303.134767 26.3700678 303.023063 27.9083256 302.411018 38.4154877 306.499852 41.4291698 306.446327 41.862023 306.420728 42.3228022 306.420728 42.8394335 306.420728 48.5549573 309.6648 51.452281 316.059856 51.4546082L316.064511 51.4546082 316.069165 51.4546082C322.461895 51.452281 325.708294 48.5549573 325.708294 42.8394335 325.708294 42.3228022 325.680368 41.8550415 325.633824 41.4291698 329.711022 38.4154877 329.098977 27.9083256 328.9896 26.3700678 333.248317 26.2071661 336.185202 25.1669221 337.735096 23.2539903 339.205866 21.4248365 338.812575 19.516559 338.796285 19.432781L338.796285 19.432781ZM331.85574 153.136011C331.85574 152.663596 331.474084 152.288922 331.006323 152.288922 330.531581 152.288922 330.156907 152.663596 330.156907 153.136011 330.156907 153.603772 330.531581 153.987754 331.006323 153.987754 331.474084 153.987754 331.85574 153.603772 331.85574 153.136011M324.571938 131.512434C324.571938 131.042346 324.190282 130.658364 323.722521 130.658364 323.250106 130.658364 322.873105 131.042346 322.873105 131.512434 322.873105 131.984849 323.250106 132.366505 323.722521 132.366505 324.190282 132.366505 324.571938 131.984849 324.571938 131.512434M298.832067 150.959411 293.179376 150.959411C292.686017 150.959411 292.28109 151.355029 292.28109 151.853043 292.28109 152.351057 292.686017 152.749003 293.179376 152.749003L297.929126 152.749003 297.929126 166.155816C297.929126 166.646848 298.334053 167.049448 298.832067 167.049448 299.325426 167.049448 299.723372 166.646848 299.723372 166.155816L299.723372 151.853043C299.723372 151.355029 299.325426 150.959411 298.832067 150.959411" fill="#FFF" mask="url(#b)"/><path d="M338.16376 153.004293C337.984568 152.915861 337.789086 152.904225 337.602913 152.936805 337.565678 152.932151 337.535425 152.920515 337.495863 152.920515 335.243165 152.790194 333.802648 150.637564 333.791012 150.614292 333.71887 150.502588 333.616475 150.404847 333.502444 150.332705L330.854127 148.747904 332.72517 146.63949C332.925306 146.413754 332.997448 146.099587 332.920652 145.813345 332.843855 145.520122 332.622774 145.289732 332.334205 145.189664 329.802247 144.342575 327.461116 145.017454 326.06947 145.634153L324.763929 144.840589C322.022525 143.15572 318.45265 142.385427 316.839923 142.099185L320.684404 136.681539C321.422116 137.018978 322.204044 137.046904 322.362292 137.053886L325.26427 137.070176C325.722722 137.56819 326.358039 137.859086 327.079461 137.88003 327.112041 137.88003 327.149276 137.884685 327.179529 137.884685 328.385002 137.884685 329.630037 137.170244 330.379385 136.055531 331.684926 134.114673 330.707515 132.380933 329.70916 131.664166L321.678105 125.124824C321.661814 125.10388 321.643197 125.10388 321.62458 125.082935 319.260177 123.200257 315.946291 123.179312 313.549308 125.036392 312.24144 126.04871 311.526999 127.549733 311.464166 129.085664L308.890318 131.007904C303.407511 129.581351 298.317995 131.149862 297.252153 131.510573L291.995081 131.103318C291.504048 131.061429 291.068868 131.436103 291.026979 131.924808 290.987417 132.422822 291.359764 132.848694 291.853124 132.890583L297.305677 133.318782C297.326622 133.318782 297.349894 133.325763 297.370838 133.325763 297.480215 133.325763 297.584938 133.29551 297.691987 133.26293 297.740858 133.241985 303.195739 131.228985 308.829812 132.848694 309.10209 132.932472 309.390659 132.885929 309.618722 132.711391L311.76437 131.103318C311.950544 131.638567 312.222822 132.152871 312.58586 132.620632 313.321245 133.577097 314.387088 134.179834 315.583252 134.333427 315.77408 134.356699 315.971889 134.368334 316.155736 134.368334 317.149436 134.368334 318.117538 134.047185 318.911102 133.423504 319.709321 132.804478 320.21897 131.913173 320.349292 130.907836 320.474959 129.909481 320.205007 128.911126 319.578999 128.119889 319.281122 127.721944 318.710966 127.649801 318.324656 127.959315 317.933692 128.261846 317.856895 128.822694 318.164081 129.215985 318.489885 129.637203 318.631842 130.156161 318.566681 130.679774 318.496866 131.215022 318.229242 131.680456 317.812679 132.010914 317.237869 132.453075 316.523428 132.64623 315.806661 132.553144 315.089893 132.462384 314.449922 132.097019 314.003106 131.524536 312.788324 129.949043 313.074566 127.680055 314.647731 126.453637 316.393107 125.10388 318.813361 125.124824 320.533138 126.511816 320.544774 126.518798 320.55641 126.523452 320.565718 126.532761L328.603756 133.076756C328.613064 133.081411 328.631682 133.097701 328.647972 133.10701 328.959812 133.339726 329.606765 133.989006 328.892324 135.06183 328.471107 135.683184 327.745031 136.102074 327.139967 136.083457 326.742021 136.076476 326.574465 135.874012 326.486033 135.725073 326.330113 135.452795 326.041544 135.278257 325.720395 135.278257L322.385564 135.254985C321.989945 135.248004 321.182418 135.066485 321.105621 134.768607 320.984609 134.282229 320.498231 133.984352 320.01418 134.112346 319.532456 134.226377 319.248542 134.71741 319.362573 135.196806 319.383517 135.254985 319.404462 135.313165 319.418425 135.366689L311.864438 146.020463C311.792296 146.11355 311.743426 146.225254 311.720154 146.346267 311.673611 146.534767 310.658966 151.049472 307.0728 151.049472L304.166168 151.049472 304.166168 147.207319C304.166168 146.718613 303.765895 146.311359 303.274863 146.311359 302.774522 146.311359 302.376576 146.718613 302.376576 147.207319L302.376576 166.152791C302.376576 166.653132 302.774522 167.051077 303.274863 167.051077 303.765895 167.051077 304.166168 166.653132 304.166168 166.152791L304.166168 161.661357C305.867327 161.679974 307.59874 161.684629 309.19285 161.684629 311.673611 161.684629 313.800642 161.670666 314.868812 161.661357L314.868812 166.152791C314.868812 166.653132 315.26443 167.051077 315.764771 167.051077 316.255804 167.051077 316.663058 166.653132 316.663058 166.152791L316.663058 159.913654C316.663058 159.413313 316.255804 159.017694 315.764771 159.017694 315.280721 159.017694 314.899065 159.394696 314.871139 159.862456 313.130418 159.878747 308.51099 159.906673 304.166168 159.862456L304.166168 152.841391 307.0728 152.841391C310.987096 152.841391 312.90701 149.066726 313.428295 146.907114L315.680993 143.735184C315.708919 143.735184 315.7415 143.744493 315.769426 143.751475 315.811315 143.758456 320.586663 144.382137 323.82608 146.383501L324.421835 146.739558C324.321767 147.002528 324.340384 147.32135 324.517249 147.570357 324.801164 147.982265 325.355029 148.086988 325.762284 147.807728 325.785556 147.791438 327.842772 146.411427 330.349131 146.602255L328.789929 148.356939C328.617719 148.557076 328.540922 148.822373 328.578157 149.089997 328.617719 149.352967 328.771312 149.585684 328.999374 149.722987L332.417983 151.775549C332.832219 152.350359 334.256446 154.070136 336.462601 154.572804 336.248501 155.098744 336.064655 155.596758 335.892445 156.050556 335.503808 157.095454 335.143097 158.079846 334.752133 158.226457 334.596212 158.289291 334.163359 158.312563 333.113807 157.763351 332.673972 157.532962 332.129415 157.705172 331.901352 158.145007 331.819901 158.296273 331.789648 158.473137 331.805938 158.633712 330.549268 159.248084 327.063171 160.555952 320.558737 160.174297L320.558737 160.151025C322.224989 159.157325 322.467014 156.590459 322.483305 156.269309 322.520539 155.77595 322.145865 155.343097 321.65716 155.308189 321.161473 155.273282 320.72862 155.645629 320.69604 156.143642 320.656478 156.620712 320.34231 158.452193 319.411443 158.710508 319.025133 158.817558 318.757509 159.171288 318.757509 159.580869L318.804052 166.157445C318.808707 166.655459 319.20898 167.051077 319.702339 167.051077L319.706994 167.051077C320.205007 167.051077 320.602953 166.643823 320.602953 166.141155L320.577354 161.977852C321.354628 162.022068 322.106303 162.038358 322.811435 162.038358 329.830173 162.038358 332.985812 160.060266 333.351178 159.81824 333.800321 159.969506 334.191285 160.060266 334.55665 160.060266 334.859182 160.060266 335.133788 160.009068 335.396758 159.906673 336.551033 159.462184 337.000177 158.233439 337.577314 156.681218 337.847266 155.943506 338.161433 155.098744 338.587305 154.205112 338.803731 153.758296 338.615231 153.22072 338.16376 153.004293M173.567147 172.163865 229.118966 172.163865 229.118966 116.626008 173.567147 116.626008 173.567147 172.163865ZM171.735666 173.995346 230.950447 173.995346 230.950447 114.7922 171.735666 114.7922 171.735666 173.995346ZM194.156297 98.484107C193.297573 99.9362597 192.417903 101.434956 191.773278 103.226875 191.093745 101.355832 190.172186 99.8268828 189.315789 98.3910203 187.577394 95.4983509 186.083353 93.0129358 186.483626 88.5238294 186.753577 85.4030975 188.983004 83.1341091 191.789568 83.1341091 194.651984 83.1341091 196.934936 85.4356779 197.088529 88.4935762 197.328227 93.1060225 195.789969 95.7124503 194.156297 98.484107M192.808867 81.2072142C193.583814 79.5781968 195.461838 76.7297436 199.373807 75.694154 199.909056 75.5545239 200.225551 74.9983309 200.092902 74.4607551 199.941636 73.9231794 199.399406 73.6113389 198.857176 73.7532962 196.025013 74.500317 194.08881 76.0315933 192.785596 77.5628696L192.785596 73.460073C192.785596 72.9108615 192.338779 72.4570638 191.780259 72.4570638 191.22872 72.4570638 190.784231 72.9108615 190.784231 73.460073L190.784231 77.8374754C189.481018 76.2177667 187.484308 74.5491875 184.482261 73.7532962 183.944686 73.6113389 183.393147 73.9278337 183.244208 74.4607551 183.104578 74.9983309 183.4234 75.5545239 183.960976 75.694154 187.931124 76.7437066 189.79984 79.6177587 190.551515 81.2374674 187.286498 81.8099506 184.808065 84.618842 184.477607 88.351619 184.019155 93.4830237 185.834346 96.5013602 187.58903 99.4196285 189.227356 102.151723 190.784231 104.739534 190.784231 109.191406 190.784231 109.745271 191.231048 110.194415 191.789568 110.194415 192.345761 110.194415 192.79025 109.745271 192.79025 109.191406 192.79025 104.75117 194.298255 102.202921 195.892364 99.5057337 197.600506 96.5991012 199.369153 93.6017093 199.09222 88.3888537 198.903719 84.6095334 196.267038 81.6912651 192.808867 81.2072142" fill="#FFF" mask="url(#b)"/><path d="M205.235477 77.8768046C205.656695 77.0972034 205.724182 76.203571 205.435614 75.3634635 205.209878 74.6978935 204.763062 74.1184288 204.174289 73.7065201 204.28832 72.373053 203.534318 71.0768206 202.191542 70.4624483 202.086819 69.305846 201.342126 68.2539662 200.187851 67.7443165 198.842748 67.1415801 197.271909 67.4208402 196.240974 68.3261084 196.00593 68.125972 195.733652 67.9607431 195.433447 67.8304217 195.384576 67.8094772 195.331052 67.7862055 195.282181 67.7699153 194.840019 66.0175581 193.057409 64.7934679 191.104915 64.9866228 189.403756 65.1611604 188.072616 66.3317257 187.728195 67.8374032 187.439626 67.9607431 187.172002 68.1306263 186.934631 68.3261084 185.901368 67.4208402 184.33053 67.1415801 182.994736 67.7443165 181.835806 68.2539662 181.091113 69.305846 180.991044 70.4624483 179.648269 71.0768206 178.894266 72.373053 179.00597 73.7065201 178.417197 74.1184288 177.965726 74.6978935 177.746973 75.3634635 177.451422 76.1965895 177.523565 77.0972034 177.940128 77.8768046 178.421851 78.7681098 179.292212 79.3987722 180.309184 79.6245075 180.318493 79.631489 180.323147 79.6501063 180.327802 79.6617422 180.949155 80.8160173 182.21048 81.4932231 183.518349 81.4932231 184.016362 81.4932231 184.537648 81.3931549 185.021699 81.1767283 185.114786 81.130185 185.205545 81.0906231 185.293977 81.0370983 186.099177 81.4187538 186.855507 81.3838462 187.804991 80.9603017 188.316968 80.7345665 188.542704 80.145793 188.316968 79.631489 188.091233 79.1241664 187.500132 78.9007583 186.995137 79.1241664 186.420327 79.3801549 186.287678 79.340593 185.83388 79.0217711 185.459206 78.7564739 184.944902 78.7820728 184.600481 79.0822774 184.472487 79.1893271 184.335184 79.2754323 184.202536 79.340593 183.429916 79.6780323 182.466469 79.3917907 182.105758 78.7238936 182.063869 78.6331341 182.024307 78.5377202 182.003362 78.451615 181.889331 78.0141075 181.507676 77.7115757 181.060859 77.6976126 180.479068 77.6836496 179.964763 77.3880993 179.722738 76.9296473 179.517947 76.5573005 179.571472 76.2338242 179.648269 76.0197248 179.7623 75.6683224 180.034579 75.3913895 180.41158 75.2191791L180.523284 75.1772901C180.765309 75.0818762 180.972427 74.8840669 181.079477 74.6466958 181.191181 74.400016 181.191181 74.1184288 181.091113 73.871749 180.853742 73.2597039 181.172563 72.5778438 181.835806 72.2822935 181.94751 72.2380773 182.077832 72.2008426 182.215135 72.1705894 182.478105 72.1147374 182.708494 71.9657987 182.862087 71.7400634 183.008699 71.5189825 183.057569 71.2443767 183.006372 70.9814067 182.887686 70.4089235 183.21349 69.8480761 183.816226 69.5804518 184.584191 69.2430125 185.542984 69.5152911 185.913004 70.2064599 185.931621 70.2483489 185.952566 70.2925651 185.97351 70.3414356 186.115468 70.7184368 186.480833 70.9814067 186.883433 70.9907154 187.316286 70.9930426 187.667688 70.7579986 187.828263 70.3786703 187.967893 70.0714842 188.223882 69.8154957 188.558994 69.666557 188.661389 69.6200136 188.766112 69.5874333 188.873161 69.5641616 189.324632 69.4547847 189.659744 69.0498576 189.659744 68.5890784 189.659744 67.7699153 190.367203 67.0880552 191.302724 66.987987 192.33366 66.890246 193.259872 67.5348714 193.371576 68.430831 193.371576 68.4820286 193.373904 68.5262448 193.373904 68.5751154 193.383212 69.0498576 193.72996 69.4547847 194.209357 69.5408899 194.353641 69.5641616 194.495598 69.610705 194.618938 69.666557 194.95405 69.8154957 195.214693 70.0668298 195.347342 70.3786703 195.510244 70.7579986 195.868627 70.9814067 196.292172 70.9907154 196.701753 70.9814067 197.067119 70.7184368 197.206749 70.3414356 197.227693 70.2925651 197.243983 70.2483489 197.264928 70.1994784 197.637275 69.5152911 198.596068 69.2430125 199.368688 69.5804518 199.964442 69.8480761 200.287919 70.4089235 200.169233 70.9814067 200.111054 71.2443767 200.169233 71.5189825 200.315845 71.7400634 200.464784 71.9657987 200.699827 72.1147374 200.962797 72.1705894 201.1001 72.2008426 201.230422 72.2380773 201.337471 72.2822935 202.007696 72.5778438 202.326518 73.2597039 202.086819 73.871749 201.989078 74.1184288 201.991406 74.400016 202.105437 74.6466958 202.212486 74.8840669 202.41495 75.0818762 202.659303 75.1819444 202.668611 75.1819444 202.759371 75.2191791 202.771007 75.2191791 203.143354 75.3913895 203.415632 75.6683224 203.534318 76.0197248 203.611114 76.2338242 203.65533 76.5573005 203.457521 76.9296473 203.215496 77.3880993 202.698865 77.6836496 202.121727 77.6976126 201.663275 77.7115757 201.288601 78.0234161 201.179224 78.451615 201.151298 78.5447017 201.118718 78.6331341 201.074501 78.7099306 200.716118 79.3917907 199.75267 79.6780323 198.977723 79.340593 198.835766 79.2754323 198.707772 79.1893271 198.582105 79.0822774 198.230703 78.7820728 197.721053 78.7588011 197.344052 79.0217711 197.113662 79.1846728 196.971705 79.2870682 196.932143 79.2963768 196.911198 79.2963768 196.808803 79.2870682 196.457401 79.1241664 195.952405 78.9007583 195.358978 79.1241664 195.13557 79.631489 194.909834 80.145793 195.13557 80.7345665 195.645219 80.9603017 196.643574 81.4071179 197.232348 81.3931549 197.897918 81.0417526 197.984023 81.0906231 198.072455 81.1325121 198.160888 81.1767283 199.887646 81.9446937 201.991406 81.2628335 202.847803 79.6547607 202.854785 79.6501063 202.857112 79.631489 202.866421 79.6245075 203.881066 79.3987722 204.753754 78.7681098 205.235477 77.8768046M213.042427 83.3126028C213.233254 83.5197207 213.50786 83.6360791 213.78712 83.6360791 214.078016 83.6360791 214.338659 83.5197207 214.534141 83.3126028L219.456101 77.8833206C219.828448 77.4690848 219.798194 76.8384223 219.386286 76.4684027 218.974377 76.0914015 218.336733 76.1239819 217.966713 76.5358905L213.78712 81.1343739 209.616836 76.5358905C209.242162 76.1239819 208.606845 76.0914015 208.192609 76.4684027 207.780701 76.8384223 207.74812 77.4690848 208.125121 77.8833206L213.042427 83.3126028Z" fill="#FFF" mask="url(#b)"/><path d="M217.968808 82.1048028 213.789215 86.7056133 209.614276 82.1048028C209.241929 81.6928941 208.604285 81.6603138 208.192377 82.0373149 207.780468 82.4073346 207.750215 83.0426514 208.127216 83.4475785L213.042194 88.8815151C213.237676 89.088633 213.507627 89.2143 213.789215 89.2143 214.077784 89.2143 214.338426 89.088633 214.536236 88.8815151L219.455868 83.4475785C219.828215 83.0426514 219.800289 82.4073346 219.38838 82.0373149 218.976472 81.6603138 218.338828 81.6928941 217.968808 82.1048028M213.042427 72.973695C213.05639 72.9853308 213.061044 72.9899852 213.07268 73.0039482 213.084316 73.0062753 213.086643 73.0132568 213.091297 73.015584 213.182057 73.1016892 213.282125 73.1738314 213.393829 73.2203748 213.398483 73.2203748 213.398483 73.2203748 213.407792 73.2273563 213.52415 73.2762268 213.652145 73.3041528 213.782466 73.3041528L213.78712 73.2994985 213.78712 73.3041528C213.78712 73.3041528 213.789447 73.2994985 213.794102 73.2994985 213.917442 73.2994985 214.043109 73.2762268 214.15714 73.2273563 214.166449 73.2203748 214.182739 73.2203748 214.192048 73.2203748 214.29677 73.1738314 214.380548 73.113325 214.471308 73.0342013 214.485271 73.015584 214.496906 73.0039482 214.508542 72.987658 214.517851 72.9853308 214.52716 72.9830037 214.529487 72.973695L217.73167 69.4433816C218.113325 69.0314729 218.083072 68.393829 217.664182 68.0261365 217.2546 67.6491353 216.621611 67.6840429 216.244609 68.0936244L214.794784 69.6993701 214.794784 65.6850058C214.794784 65.1334671 214.345641 64.6796694 213.78712 64.6796694 213.233254 64.6796694 212.786438 65.1334671 212.786438 65.6850058L212.786438 69.7016972 211.331958 68.0936244C210.957284 67.6840429 210.321968 67.6491353 209.903077 68.0261365 209.500477 68.393829 209.470224 69.0314729 209.840244 69.4433816L213.042427 72.973695Z" fill="#FFF" mask="url(#b)"/><path d="M213.042427 78.1397745C213.233254 78.3468924 213.50786 78.4702323 213.78712 78.4702323 214.078016 78.4702323 214.338659 78.3468924 214.534141 78.1397745L218.648574 73.6064519C219.02092 73.1898889 218.990667 72.5638808 218.578759 72.1822253 218.16685 71.8098784 217.529206 71.8424588 217.156859 72.2543675L213.78712 75.9685271 210.42669 72.2543675C210.054343 71.8424588 209.416699 71.8098784 209.004791 72.1822253 208.592882 72.5638808 208.560302 73.1898889 208.930321 73.6064519L213.042427 78.1397745ZM223.333395 98.1657505C219.81239 98.1657505 216.696313 99.8994904 214.778726 102.557116L214.778726 94.1746579 219.456334 89.0176544C219.82868 88.6104 219.800754 87.9797376 219.388846 87.6027364 218.97461 87.2327168 218.339293 87.2629699 217.966946 87.6725515L213.787353 92.2803435 209.617069 87.6725515C209.240067 87.2629699 208.604751 87.2327168 208.192842 87.6027364 207.778606 87.9797376 207.75068 88.6104 208.125354 89.0176544L212.768054 94.1467319 212.768054 102.557116C210.84814 99.8994904 207.732063 98.1657505 204.222694 98.1657505 203.666501 98.1657505 203.217357 98.6125667 203.217357 99.1664326 203.217357 99.7202985 203.666501 100.171769 204.222694 100.171769 208.928227 100.171769 212.768054 104.009269 212.768054 108.728765L212.768054 108.775308C212.768054 109.329174 213.221851 109.773663 213.768736 109.773663 214.329583 109.773663 214.778726 109.329174 214.778726 108.775308L214.778726 108.728765C214.778726 104.009269 218.616226 100.171769 223.333395 100.171769 223.887261 100.171769 224.338731 99.7202985 224.338731 99.1664326 224.338731 98.6125667 223.887261 98.1657505 223.333395 98.1657505M265.116061 35.9077318C265.116061 34.9047225 265.376704 33.938948 265.893335 33.0755688L275.474285 33.0755688C275.986262 33.938948 276.251559 34.9047225 276.251559 35.9077318 276.251559 38.9819203 273.759162 41.4789712 270.682647 41.4789712 267.613112 41.4789712 265.116061 38.9819203 265.116061 35.9077318M277.934101 35.9077318C277.934101 34.3019861 277.438414 32.7637283 276.493584 31.4465514 276.295775 31.1882358 275.988589 31.0346427 275.658131 31.0346427L264.971777 31.0346427C264.645974 31.0346427 264.341115 31.1882358 264.140978 31.4465514 263.198475 32.7637283 262.700461 34.3019861 262.700461 35.9077318 262.700461 39.7615215 265.576841 42.9427597 269.293327 43.4454279L269.293327 50.7666974 266.302917 50.7666974C265.74207 50.7666974 265.285945 51.2228223 265.285945 51.7929784 265.285945 52.3538258 265.74207 52.8122778 266.302917 52.8122778L274.354917 52.8122778C274.920419 52.8122778 275.383525 52.3538258 275.383525 51.7929784 275.383525 51.2228223 274.920419 50.7666974 274.354917 50.7666974L271.334254 50.7666974 271.334254 43.4454279C275.064703 42.9427597 277.934101 39.7615215 277.934101 35.9077318M246.108687 41.7742888C245.091714 41.7742888 244.270224 42.5934518 244.270224 43.6127513 244.270224 44.6297235 245.091714 45.4535409 246.108687 45.4535409 247.121005 45.4535409 247.944822 44.6297235 247.944822 43.6127513 247.944822 42.5934518 247.121005 41.7742888 246.108687 41.7742888M250.51611 45.2070938C249.722545 45.2070938 249.070938 45.861028 249.070938 46.6569193 249.070938 47.4528107 249.722545 48.1020904 250.51611 48.1020904 251.314328 48.1020904 251.958954 47.4528107 251.958954 46.6569193 251.958954 45.861028 251.314328 45.2070938 250.51611 45.2070938" fill="#FFF" mask="url(#b)"/><path d="M246.159652 50.8388396C246.480801 50.5037275 246.683264 50.0569113 246.683264 49.5588974 246.683264 48.5442523 245.859447 47.7134534 244.842475 47.7134534 243.82783 47.7134534 243.008667 48.5442523 243.008667 49.5588974 243.008667 50.0569113 243.208803 50.5037275 243.532279 50.8388396L241.626329 50.8388396C240.874654 47.1363159 242.124343 42.7216788 244.814549 39.5869839L256.510894 47.1409702C255.880231 47.2992176 255.410143 47.860065 255.410143 48.5442523 255.410143 49.3401436 256.052442 49.9824419 256.852987 49.9824419 257.651206 49.9824419 258.295831 49.3401436 258.295831 48.5442523 258.295831 48.4488384 258.281868 48.3650604 258.270232 48.2812823L262.221763 50.8388396 246.159652 50.8388396ZM248.526381 30.2434057C248.526381 26.5152831 249.46423 24.821105 250.225214 23.4643662L250.28572 23.3596437C251.437668 21.2907916 252.066003 19.8875095 252.210288 19.0520563 252.347591 18.2608193 252.349918 14.1673314 252.326646 10.8790435 252.321992 10.4624804 252.075312 10.0994423 251.709947 9.94352205L251.709947 8.55187578 256.057096 8.55187578 256.057096 9.99239257C255.968663 10.0342816 255.88954 10.0901336 255.824379 10.1622758 255.633551 10.3600851 255.521847 10.6207278 255.528829 10.8883521 255.53581 13.0526181 255.582354 18.1700598 255.735947 19.0520563 255.93841 20.1946957 257.018216 22.2449304 257.644224 23.3596437L257.707058 23.4550576C258.456406 24.821105 259.398909 26.5152831 259.398909 30.2434057L259.398909 46.5684869 248.526381 39.5357862 248.526381 30.2434057ZM266.25009 50.9994142 261.442162 47.8972997C261.442162 47.8972997 261.446816 47.8833367 261.446816 47.874028L261.446816 30.2434057C261.446816 25.9823617 260.313486 23.9553986 259.491995 22.47532L259.431489 22.3612888C258.516912 20.7229627 257.858324 19.2824459 257.758255 18.7076355 257.676805 18.2608193 257.609317 15.4658909 257.579064 11.7796573 257.897885 11.6027926 258.105003 11.2723348 258.105003 10.8836978L258.105003 7.527922C258.105003 6.95776592 257.644224 6.50396822 257.08105 6.50396822L250.685993 6.50396822C250.118164 6.50396822 249.662039 6.95776592 249.662039 7.527922L249.662039 10.8836978C249.662039 11.3118966 249.922682 11.6679533 250.28572 11.8285279 250.306665 16.0802632 250.255467 18.3422702 250.190306 18.7076355 250.148417 18.9752598 249.892429 19.8688922 248.500782 22.3612888L248.435622 22.47532C247.790996 23.6295952 246.976488 25.1096738 246.634394 27.7044658L246.49011 29.7523733C246.480801 29.915275 246.480801 38.2209365 246.480801 38.2209365L245.205513 37.394792C244.795931 37.131822 244.249047 37.187674 243.913935 37.5437307 242.156923 39.3403041 240.865345 41.5604221 240.109016 43.9085343L239.613329 45.9075713C239.222365 48.0229667 239.273563 50.1709425 239.841391 52.1467079 239.964731 52.579561 240.367331 52.8867472 240.825783 52.8867472L265.693897 52.8867472C266.152349 52.8867472 266.550295 52.5865426 266.675962 52.149035 266.803956 51.7138547 266.6364 51.2484211 266.25009 50.9994142L266.25009 50.9994142ZM318.073555 92.3908839C317.4778 91.8812342 317.010039 91.2668619 316.695871 90.6338723 317.373077 90.8409902 318.05261 91.2203186 318.646038 91.7346226 319.239466 92.2465995 319.716535 92.8609718 320.023721 93.4962886 319.346515 93.2868435 318.671637 92.9075151 318.073555 92.3908839M321.652738 94.8995707C321.759788 94.7669221 321.817967 94.6110019 321.822622 94.4481001 321.824949 94.3945753 321.827276 94.3410504 321.817967 94.2921799 321.578269 92.9656943 320.773069 91.6322273 319.600177 90.6199093 318.429611 89.6122457 316.98444 89.0141636 315.643991 88.9769289 315.429892 88.9676203 315.215793 89.0653613 315.073835 89.2305902 314.92257 89.3981463 314.866717 89.6238816 314.903952 89.837981 315.138996 91.1574851 315.946523 92.4979336 317.117089 93.5055972 318.285327 94.5179152 319.728171 95.1159973 321.070947 95.1555591 321.292027 95.1602135 321.5038 95.0671268 321.652738 94.8995707" fill="#FFF" mask="url(#b)"/><path d="M324.826762 108.465329C321.280159 108.465329 318.389817 105.577314 318.389817 102.028383 318.389817 99.3986839 319.879204 97.6882157 322.176118 97.6882157 322.885905 97.6882157 323.658524 97.8487903 324.463724 98.1583036 324.691787 98.2467359 324.947775 98.2537174 325.171183 98.1652851 325.96242 97.8767163 326.728058 97.7301047 327.430863 97.7301047 329.79992 97.7301047 331.27069 99.3754123 331.27069 102.028383 331.27069 105.577314 328.37802 108.465329 324.826762 108.465329M327.430863 95.7240862C326.90725 95.7240862 326.36502 95.7799382 325.82279 95.9009509 325.645925 95.0329174 325.201436 93.5947278 324.142575 92.5335393 323.749284 92.140248 323.116294 92.140248 322.718349 92.5335393 322.327384 92.9221763 322.327384 93.5644746 322.718349 93.9507844 323.26756 94.5046503 323.572419 95.2586527 323.735321 95.8474261 323.207054 95.7380492 322.678787 95.6775428 322.176118 95.6775428 318.764491 95.6775428 316.376817 98.2909521 316.376817 102.028383 316.376817 106.682719 320.1701 110.485311 324.826762 110.485311 329.490406 110.485311 333.281363 106.682719 333.281363 102.028383 333.281363 98.260699 330.930923 95.7240862 327.430863 95.7240862M333.598556 74.3427677C333.126141 74.3427677 332.69096 74.2101192 332.306977 73.9890382 332.265088 73.9680937 332.220872 73.9378405 332.174329 73.9122417 331.51574 73.4747342 331.078233 72.7393492 331.040998 71.8992417 331.04798 71.8573526 331.050307 71.8224451 331.050307 71.7828833 331.050307 71.7363399 331.04798 71.7014324 331.040998 71.6595434 331.101505 70.3028046 332.223199 69.2136902 333.598556 69.2136902 335.015801 69.2136902 336.170076 70.363311 336.170076 71.7828833 336.170076 73.1931469 335.015801 74.3427677 333.598556 74.3427677M330.10315 80.4771817C328.725466 80.4771817 327.606099 79.3880672 327.545592 78.0266742L327.545592 77.9079886 327.545592 77.7869759C327.606099 76.4232556 328.725466 75.3364683 330.10315 75.3364683 330.573238 75.3364683 331.006091 75.471444 331.387746 75.6948521 331.43429 75.7227782 331.478506 75.748377 331.527376 75.7669943 332.220872 76.2301007 332.665361 77.0213377 332.665361 77.9079886 332.665361 79.3252337 331.51574 80.4771817 330.10315 80.4771817M326.593781 86.6185772C325.18119 86.6185772 324.024588 85.4596477 324.024588 84.0470569 324.024588 82.632139 325.18119 81.4755367 326.593781 81.4755367 328.011026 81.4755367 329.167628 82.632139 329.167628 84.0470569 329.167628 85.4596477 328.011026 86.6185772 326.593781 86.6185772M320.477984 77.9079886C320.477984 76.4860892 321.627605 75.3364683 323.047177 75.3364683 323.510284 75.3364683 323.945464 75.471444 324.317811 75.6878706 324.371336 75.7157967 324.427188 75.748377 324.48304 75.776303 325.129992 76.220792 325.565173 76.956177 325.607062 77.7869759 325.607062 77.8335192 325.597753 77.8660996 325.597753 77.9079886 325.597753 77.9452233 325.607062 77.9801308 325.607062 78.0266742 325.537247 79.3880672 324.420206 80.4771817 323.047177 80.4771817 321.627605 80.4771817 320.477984 79.3252337 320.477984 77.9079886M316.919745 71.7828833C316.919745 70.363311 318.076347 69.2136902 319.488938 69.2136902 320.864294 69.2136902 321.981335 70.2911688 322.05115 71.6502347 322.05115 71.6991052 322.039514 71.7363399 322.039514 71.7828833 322.039514 71.8224451 322.05115 71.8596798 322.05115 71.903896 321.981335 73.2676163 320.864294 74.3427677 319.488938 74.3427677 318.076347 74.3427677 316.919745 73.1931469 316.919745 71.7828833M326.547237 69.2136902C327.920266 69.2136902 329.037307 70.3028046 329.102468 71.6595434L329.102468 71.7828833 329.102468 71.8992417C329.037307 73.2606348 327.920266 74.3427677 326.547237 74.3427677 326.079477 74.3427677 325.646624 74.2101192 325.274277 73.9960197 325.211443 73.9680937 325.1649 73.9378405 325.106721 73.9052602 324.464422 73.4654255 324.029242 72.7393492 323.98968 71.903896 323.98968 71.8596798 323.996662 71.8224451 323.996662 71.7828833 323.996662 71.7363399 323.98968 71.6991052 323.98968 71.6502347 324.057168 70.2911688 325.169554 69.2136902 326.547237 69.2136902M338.103952 71.7828833C338.103952 69.2974682 336.076989 67.2774867 333.598556 67.2774867 332.167347 67.2774867 330.899041 67.9477109 330.075224 68.9879549 329.344493 68.0710508 328.276323 67.4496971 327.063869 67.3054127 327.063869 67.2914497 327.068523 67.2774867 327.068523 67.2588693L327.068523 64.7594912 328.669614 65.1178751C328.737102 65.1341652 328.80459 65.1364924 328.87906 65.1364924 329.321221 65.1364924 329.726149 64.8339606 329.82389 64.3848172 329.940248 63.8565502 329.607463 63.3422461 329.088505 63.2328692L322.623633 61.7946796C322.102347 61.6736669 321.59037 62.008779 321.476339 62.5277374 321.357654 63.049023 321.683457 63.5609999 322.209397 63.6843398L325.129992 64.3312924 325.129992 67.2588693C325.129992 67.3449745 325.1649 67.4217711 325.185844 67.4846046 324.317811 67.7615375 323.573117 68.2921318 323.016924 68.9856277 322.19078 67.9477109 320.920146 67.2774867 319.488938 67.2774867 317.010504 67.2774867 314.985868 69.2974682 314.985868 71.7828833 314.985868 74.0472174 316.682374 75.9252417 318.865257 76.2301007 318.662793 76.7513863 318.541781 77.3099065 318.541781 77.9079886 318.541781 80.1769771 320.238286 82.0550014 322.423496 82.3598604 322.211724 82.8811459 322.088384 83.4489748 322.088384 84.0470569 322.088384 86.5278177 324.117674 88.5571079 326.593781 88.5571079 329.079196 88.5571079 331.099177 86.5278177 331.099177 84.0470569 331.099177 83.4489748 330.978165 82.8764916 330.764065 82.355206 332.932986 82.0340569 334.601565 80.1653413 334.601565 77.9079886 334.601565 77.3099065 334.482879 76.7444048 334.271107 76.2231192 336.4377 75.8973157 338.103952 74.0332544 338.103952 71.7828833M300.526012 100.442419C300.800618 100.139887 301.065915 99.8466637 301.312595 99.5697308 301.76872 99.0786984 302.189937 98.6202464 302.576247 98.1617943 302.792673 98.4736348 303.013754 98.7831481 303.251125 99.1089516 303.693287 99.7186695 304.193628 100.40053 304.714914 101.177804L304.714914 108.480456C304.714914 108.557252 304.738186 108.629395 304.75913 108.703864L300.553938 108.703864 300.553938 100.575067C300.553938 100.533178 300.532994 100.486635 300.526012 100.442419M296.064832 90.9661919C296.064832 86.7423825 297.461132 80.6708021 299.61609 77.4150945 301.764065 80.6638206 303.162693 86.7330739 303.162693 90.9661919 303.162693 94.6989688 302.071251 95.8904787 299.893023 98.2641897 299.802263 98.3642579 299.709176 98.4689805 299.61609 98.5713758 299.52533 98.4689805 299.422935 98.3642579 299.336829 98.2641897 297.163255 95.8904787 296.064832 94.6989688 296.064832 90.9661919M305.689997 67.5083417C308.063708 72.4303013 309.650837 82.0205593 309.650837 88.538956 309.650837 93.7308671 308.557068 95.2342174 306.567339 97.9709666 306.295061 98.3433134 305.997183 98.7528949 305.689997 99.1857481 305.382811 98.7528949 305.089588 98.3409862 304.810328 97.9709666 304.435654 97.449681 304.091233 96.977266 303.784047 96.5164868 304.614846 95.1294948 305.094242 93.5097861 305.094242 90.9661919 305.094242 87.3916623 304.170357 82.5674437 302.564611 78.8951731 303.27207 74.5410424 304.354203 70.2846527 305.689997 67.5083417M310.963359 108.703864 308.968976 108.703864 307.042082 108.703864 306.606901 108.703864C306.620864 108.629395 306.653445 108.557252 306.653445 108.480456L306.653445 101.203402C307.181712 100.412165 307.68438 99.725651 308.131196 99.1089516 310.214011 96.2488625 311.584713 94.3638567 311.584713 88.538956 311.584713 81.8855836 309.82072 69.9937568 306.495197 64.9950006 306.136813 64.4527705 305.243181 64.4527705 304.88247 64.9950006 303.220872 67.5013602 301.950239 71.732151 301.093841 76.1654054 300.847161 75.8093488 300.598154 75.464928 300.339839 75.1810135 300.153665 74.9715684 299.893023 74.8528829 299.613762 74.8528829 299.339157 74.8528829 299.076187 74.9715684 298.887686 75.1810135 295.948473 78.4879188 294.133283 85.9464912 294.133283 90.9661919 294.133283 95.450644 295.631978 97.08897 297.903294 99.5697308 298.14532 99.8303736 298.396654 100.104979 298.654969 100.395875 298.641006 100.461036 298.622389 100.509907 298.622389 100.575067L298.622389 108.703864 295.357373 108.703864C294.822124 108.703864 294.393925 109.13439 294.393925 109.66033 294.393925 110.20256 294.822124 110.633086 295.357373 110.633086L310.963359 110.633086C311.489299 110.633086 311.929134 110.20256 311.929134 109.66033 311.929134 109.13439 311.489299 108.703864 310.963359 108.703864M213.234418 151.384817C211.579802 150.069967 210.588428 148.019733 210.588428 145.834522 210.588428 144.659303 210.879324 143.509682 211.414573 142.485728 211.668234 141.994696 211.484388 141.387305 210.988701 141.128989 210.502323 140.870674 209.899587 141.056847 209.641271 141.547879 208.952429 142.858075 208.589391 144.340481 208.589391 145.834522 208.589391 148.101184 209.424845 150.26545 210.879324 151.901448 209.294523 152.185363 207.677142 152.329647 206.045797 152.329647 204.519175 152.329647 203.029788 152.201653 201.561345 151.9573 202.031433 151.480231 202.501521 150.984544 202.964627 150.43766 203.318357 150.016443 203.269486 149.38578 202.845941 149.025069 202.429378 148.675994 201.791735 148.724865 201.435678 149.146082 200.695639 150.021097 199.941636 150.782081 199.166689 151.456959 195.070874 150.414388 191.249665 148.454913 187.896216 145.692565 193.055547 141.471083 199.334245 139.127625 205.945729 139.127625 212.554885 139.127625 218.794022 141.417558 224.065056 145.760053 220.774441 148.447932 217.116134 150.342246 213.234418 151.384817M226.26423 145.013032C221.216603 140.542543 215.263708 137.910516 208.91054 137.277527 208.237989 136.439746 205.962019 134.228937 199.978871 132.869871 199.436641 132.751186 198.906047 133.090952 198.785034 133.637837 198.666348 134.168431 198.996806 134.696698 199.536709 134.829346 202.501521 135.490262 204.419107 136.383894 205.629234 137.137897 198.54999 137.205385 191.84542 139.783886 186.369594 144.359098 184.014501 142.131999 181.934013 139.497645 180.21889 136.497926 179.944284 136.025511 179.336894 135.8533 178.85517 136.130233 178.378101 136.400185 178.20589 137.009902 178.48515 137.493953 180.265434 140.617012 182.420391 143.365397 184.866244 145.678602 182.399446 148.012751 180.232853 150.765791 178.429298 153.881868 178.15702 154.368246 178.326903 154.975637 178.806299 155.257224 178.959892 155.341002 179.129776 155.387546 179.304313 155.387546 179.646407 155.387546 179.979192 155.203699 180.17002 154.891859 181.892124 151.871195 183.991229 149.236841 186.369594 147.021378 189.590394 149.734855 193.248702 151.754837 197.162998 152.964964 196.283329 153.53512 195.366425 153.974955 194.426249 154.312394 193.900309 154.498568 193.632685 155.075705 193.818858 155.596991 193.967797 156.004245 194.351779 156.250925 194.763688 156.250925 194.877719 156.250925 194.991751 156.236962 195.0988 156.199727 196.720836 155.613281 198.231168 154.761538 199.674012 153.632861 201.745191 154.086659 203.876877 154.326357 206.045797 154.326357 213.457826 154.326357 220.443983 151.631497 226.257248 146.525691 226.396878 146.397697 226.503928 146.225486 226.555126 146.048622 226.671484 145.678602 226.555126 145.269021 226.26423 145.013032" fill="#FFF" mask="url(#b)"/><path d="M216.912274 146.671605C217.675585 146.671605 218.296939 146.026979 218.296939 145.231088 218.296939 144.435196 217.675585 143.783589 216.912274 143.783589 216.148963 143.783589 215.532263 144.435196 215.532263 145.231088 215.532263 146.026979 216.148963 146.671605 216.912274 146.671605M224.094146 43.1184609C223.398323 38.8108735 218.194776 31.0823496 217.496626 30.0537415L215.976985 25.8857842C215.951386 25.8089877 215.914152 25.7391727 215.860627 25.6647033L209.647089 16.8214661 210.398764 8.47158849C210.431345 8.11320467 210.261461 7.77111102 209.961257 7.5779561 209.663379 7.39178269 209.277069 7.38247402 208.969883 7.5639931 208.769747 7.67802431 205.295285 9.73058621 202.281603 13.1119608 200.04985 12.8140834 191.681355 12.3416683 180.636617 19.5326165 180.189801 19.8235124 180.071115 20.4215945 180.362011 20.859102 180.54353 21.1406893 180.848389 21.2919552 181.153248 21.2919552 181.344076 21.2919552 181.523268 21.247739 181.683842 21.1406893 190.62482 15.3157886 197.752935 14.7968302 200.827124 14.9155158 200.301184 15.6532279 199.80317 16.4281748 199.391261 17.2380291 199.142254 17.7104442 199.3261 18.2922361 199.796188 18.5342615 200.266276 18.7832685 200.841087 18.5854592 201.078458 18.1200257 202.930883 14.543169 206.316912 11.7389319 208.315949 10.2891064L207.708558 17.0355655C207.680632 17.3241343 207.792336 17.5894314 207.985491 17.7849135L214.219974 26.6630582 215.737287 30.8217069C215.765213 30.8938491 215.804775 30.9683184 215.851318 31.0288248 215.902516 31.1032941 220.002985 37.0724792 221.61804 41.3684308 221.313181 41.2869799 221.038575 41.2637082 220.82913 41.2730169 219.737688 41.3079244 218.685808 42.0526181 218.227356 43.1324239 217.836392 44.0353649 217.966713 44.9755407 218.564796 45.645765 218.748642 45.8598644 219.013939 45.9645869 219.28389 45.9645869 219.502644 45.9645869 219.730707 45.8901176 219.907571 45.7248887 220.307844 45.368832 220.340425 44.7707499 219.991349 44.3728042 219.872664 44.2355013 219.919207 44.0353649 219.984368 43.8864262 220.14727 43.5001164 220.535907 43.2301649 220.889636 43.1789672 221.238711 43.1324239 222.130016 43.2464551 222.120708 44.3588412 222.106745 45.4735545 221.192168 48.0404205 218.543851 48.2405569 218.529888 48.2405569 218.515925 48.2428841 218.501962 48.2428841 218.213393 47.7076355 217.538515 46.9815592 216.379585 45.8226297 216.004911 45.45261 215.392866 45.45261 215.025174 45.8226297 214.652827 46.1949765 214.652827 46.797713 215.025174 47.1700598 215.509224 47.6564378 216.051454 48.2265939 216.412165 48.6361754 215.541805 49.0853188 214.303752 48.7036633 213.410119 47.9938771 212.078979 46.9303615 211.255162 45.0407014 212.947013 42.8880713 213.277471 42.4761626 213.203001 41.8757533 212.784111 41.5476227 212.372202 41.2171649 211.769466 41.2939614 211.44599 41.7081972 211.082951 42.1666493 210.813 42.63441 210.601228 43.0882077L204.345801 38.1848654C204.09214 37.984729 203.7547 37.9242226 203.440533 38.0312723 203.41028 38.040581 200.419869 39.0366088 197.901874 36.8141636 197.5272 36.4790515 197.217686 36.0950688 196.957044 35.6854873 196.915155 35.5318942 196.833704 35.4015728 196.724327 35.2828873 195.481619 32.8696144 195.993596 29.4416964 198.213714 26.8352686 198.555808 26.4326686 198.50461 25.827605 198.10201 25.4855114 197.701737 25.1457449 197.099001 25.1946154 196.759234 25.5972154 194.110918 28.7086386 193.496545 32.8114352 194.904482 35.8786422L182.731068 52.1990691C182.409919 52.6226137 182.500678 53.2206957 182.92655 53.530209 183.09876 53.6605304 183.298897 53.7280183 183.494379 53.7280183 183.787602 53.7280183 184.073843 53.5907154 184.262344 53.3417085L196.002905 37.6007463C196.200714 37.8241544 196.407832 38.0452353 196.640549 38.2453717 199.305156 40.5958111 202.332801 40.2490631 203.542928 39.9791117L210.103214 45.1268066C210.047362 46.9024355 210.957284 48.4825824 212.220936 49.4972275 213.270489 50.323372 214.445709 50.739935 215.541805 50.739935 216.444746 50.739935 217.289508 50.4467119 217.957405 49.8835373 218.129615 50.0487662 218.362332 50.1465072 218.613666 50.1465072L218.685808 50.1465072C221.064174 50.1371986 224.617759 46.4323476 224.094146 43.1184609" fill="#FFF" mask="url(#b)"/><path d="M209.915179 27.2546242C210.536533 26.6332705 211.546523 26.6332705 212.167877 27.2546242 212.789231 27.875978 212.789231 28.8859688 212.167877 29.5073226 211.546523 30.1286763 210.536533 30.1286763 209.915179 29.5073226 209.293825 28.8859688 209.293825 27.875978 209.915179 27.2546242M0 173.986037 173.986037 173.986037 173.986037.00232716768 0 .00232716768 0 173.986037ZM1.83380813 172.154556 172.154556 172.154556 172.154556 1.83380813 1.83380813 1.83380813 1.83380813 172.154556Z" fill="#FFF" mask="url(#b)"/></g></svg>