<?xml version="1.0" encoding="UTF-8"?>
<svg width="226px" height="113px" viewBox="0 0 226 113" version="1.1" xmlns="http://www.w3.org/2000/svg" xmlns:xlink="http://www.w3.org/1999/xlink">
    <title>logo-salon-agriculture</title>
    <g id="Symbols" stroke="none" stroke-width="1" fill="none" fill-rule="evenodd">
        <g id="Header" fill-rule="nonzero">
            <g id="Logos" transform="translate(0.000000, 0.000000)">
                <g id="logo-salon-agriculture" transform="translate(0.000000, 0.000000)">
                    <rect id="Rectangle" fill="#1E5740" x="0" y="0" width="113" height="113"></rect>
                    <g id="Group-2" transform="translate(15.326437, 18.216379)">
                        <g id="Group" fill="#FFFFFF">
                            <path d="M3.39797069e-15,14.8718391 L2.66264368,14.8718391 C2.72758621,16.6902299 4.48103448,18.5086207 7.20862069,18.5086207 C9.87126437,18.5086207 11.3,16.8201149 11.3,15.0017241 C11.3,12.9885057 9.4816092,12.1442529 7.79310345,11.6896552 L5.13045977,11.0402299 C0.779310345,10.0011494 0.129885057,7.40344828 0.129885057,5.77988506 C0.129885057,2.20804598 3.31206897,0 6.88390805,0 C10.4557471,0 13.3132184,2.27298851 13.3132184,5.97471264 L10.6505747,5.97471264 C10.6505747,3.89655172 8.96206897,2.53275862 6.75402299,2.53275862 C4.7408046,2.53275862 2.79252874,3.76666667 2.79252874,5.77988506 C2.79252874,6.49425287 3.05229885,7.98793103 5.77988506,8.63735632 L8.44252874,9.28678161 C11.8844828,10.1310345 13.9626437,12.0793103 13.9626437,15.0017241 C13.9626437,18.183908 11.3649425,21.1063218 7.14367816,21.1063218 C2.92241379,20.9764368 0.0649425287,18.054023 3.39797069e-15,14.8718391 Z M27.3408046,15.4563218 L18.5735632,15.4563218 L16.6252874,20.7166667 L13.8327586,20.7166667 L21.5609195,0.194827586 L24.4183908,0.194827586 L32.1465517,20.7166667 L29.354023,20.7166667 L27.3408046,15.4563218 Z M26.4316092,13.0534483 L22.9247126,3.76666667 L19.4178161,13.0534483 L26.4316092,13.0534483 Z" id="Shape"></path>
                            <polygon id="Path" points="33.5752874 0.194827586 36.237931 0.194827586 36.237931 18.2488506 44.6155172 18.2488506 44.6155172 20.7166667 33.5752874 20.7166667"></polygon>
                            <path d="M44.0310345,10.5206897 C44.0310345,4.67586207 48.512069,0 54.3568966,0 C60.2017241,0 64.7477011,4.67586207 64.7477011,10.5206897 C64.7477011,16.3005747 60.2017241,21.0413793 54.3568966,21.0413793 C48.5770115,20.9764368 44.0310345,16.3005747 44.0310345,10.5206897 Z M62.0201149,10.5206897 C62.0201149,6.1045977 58.708046,2.46781609 54.3568966,2.46781609 C50.0706897,2.46781609 46.7586207,6.1045977 46.7586207,10.5206897 C46.7586207,14.8718391 50.0706897,18.5086207 54.3568966,18.5086207 C58.708046,18.5086207 62.0201149,14.8718391 62.0201149,10.5206897 Z" id="Shape"></path>
                            <polygon id="Path" points="82.2821839 0.194827586 82.2821839 20.7166667 79.6844828 20.7166667 70.2678161 5.06551724 70.2678161 20.7166667 67.6051724 20.7166667 67.6051724 0.194827586 70.2678161 0.194827586 79.6195402 15.7810345 79.6195402 0.194827586"></polygon>
                        </g>
                        <g id="Group" transform="translate(0.064943, 24.613218)" fill="#F2BA44">
                            <polygon id="Path" points="3.39797069e-15 0.129885057 1.10402299 0.129885057 1.10402299 8.70229885 3.39797069e-15 8.70229885"></polygon>
                            <polygon id="Path" points="8.96206897 0.129885057 8.96206897 8.70229885 7.85804598 8.70229885 3.96149425 2.20804598 3.96149425 8.70229885 2.85747126 8.70229885 2.85747126 0.129885057 3.96149425 0.129885057 7.85804598 6.62413793 7.85804598 0.129885057"></polygon>
                            <polygon id="Path" points="16.1057471 1.16896552 13.508046 1.16896552 13.508046 8.70229885 12.404023 8.70229885 12.404023 1.16896552 9.80632184 1.16896552 9.80632184 0.129885057 16.1057471 0.129885057"></polygon>
                            <polygon id="Path" points="22.0155172 7.59827586 22.0155172 8.63735632 16.8850575 8.63735632 16.8850575 0.129885057 21.8856322 0.129885057 21.8856322 1.16896552 17.9890805 1.16896552 17.9890805 3.89655172 21.366092 3.89655172 21.366092 4.93563218 17.9890805 4.93563218 17.9890805 7.59827586"></polygon>
                            <path d="M25.4574713,5.45517241 L24.3534483,5.45517241 L24.3534483,8.70229885 L23.2494253,8.70229885 L23.2494253,0.129885057 L26.4316092,0.129885057 C28.3149425,0.129885057 29.0293103,1.49367816 29.0293103,2.79252874 C29.0293103,4.02643678 28.4448276,5.26034483 26.8212644,5.45517241 L29.0942529,8.70229885 L27.7304598,8.70229885 L25.4574713,5.45517241 Z M24.3534483,4.41609195 L26.1068966,4.41609195 C27.3408046,4.41609195 27.8603448,3.76666667 27.8603448,2.79252874 C27.8603448,1.8183908 27.2758621,1.16896552 26.4316092,1.16896552 L24.3534483,1.16896552 L24.3534483,4.41609195 Z" id="Shape"></path>
                            <polygon id="Path" points="36.3678161 0.129885057 36.3678161 8.70229885 35.2637931 8.70229885 31.3672414 2.20804598 31.3672414 8.70229885 30.2632184 8.70229885 30.2632184 0.129885057 31.3672414 0.129885057 35.2637931 6.62413793 35.2637931 0.129885057"></polygon>
                            <path d="M42.6022989,6.42931034 L38.9655172,6.42931034 L38.1212644,8.63735632 L36.9522989,8.63735632 L40.1994253,0.0649425287 L41.3683908,0.0649425287 L44.6155172,8.63735632 L43.4465517,8.63735632 L42.6022989,6.42931034 Z M42.2126437,5.45517241 L40.783908,1.55862069 L39.3551724,5.45517241 L42.2126437,5.45517241 Z" id="Shape"></path>
                            <polygon id="Path" points="49.8109195 1.16896552 47.2132184 1.16896552 47.2132184 8.70229885 46.1091954 8.70229885 46.1091954 1.16896552 43.5114943 1.16896552 43.5114943 0.129885057 49.8109195 0.129885057"></polygon>
                            <polygon id="Path" points="50.6551724 0.129885057 51.7591954 0.129885057 51.7591954 8.70229885 50.6551724 8.70229885"></polygon>
                            <path d="M52.9281609,4.41609195 C52.9281609,2.01321839 54.8114943,0 57.2143678,0 C59.6172414,0 61.5005747,1.94827586 61.5005747,4.41609195 C61.5005747,6.81896552 59.6172414,8.76724138 57.2143678,8.76724138 C54.8114943,8.76724138 52.9281609,6.81896552 52.9281609,4.41609195 Z M60.3965517,4.41609195 C60.3965517,2.59770115 59.0327586,1.03908046 57.2143678,1.03908046 C55.395977,1.03908046 54.0321839,2.53275862 54.0321839,4.41609195 C54.0321839,6.23448276 55.395977,7.72816092 57.2143678,7.72816092 C59.0327586,7.72816092 60.3965517,6.23448276 60.3965517,4.41609195 Z" id="Shape"></path>
                            <polygon id="Path" points="68.8390805 0.129885057 68.8390805 8.70229885 67.7350575 8.70229885 63.8385057 2.20804598 63.8385057 8.70229885 62.7344828 8.70229885 62.7344828 0.129885057 63.8385057 0.129885057 67.7350575 6.62413793 67.7350575 0.129885057"></polygon>
                            <path d="M75.0735632,6.42931034 L71.4367816,6.42931034 L70.5925287,8.63735632 L69.4235632,8.63735632 L72.6706897,0.0649425287 L73.8396552,0.0649425287 L77.0867816,8.63735632 L75.9178161,8.63735632 L75.0735632,6.42931034 Z M74.683908,5.45517241 L73.2551724,1.55862069 L71.8264368,5.45517241 L74.683908,5.45517241 Z" id="Shape"></path>
                            <polygon id="Path" points="77.6712644 0.129885057 78.7752874 0.129885057 78.7752874 7.66321839 82.2821839 7.66321839 82.2821839 8.70229885 77.6712644 8.70229885"></polygon>
                        </g>
                        <g id="Group" transform="translate(0.454598, 61.175862)" fill="#F7FBFD">
                            <path d="M0,7.66321839 C0,3.44195402 3.37701149,0 7.59827586,0 C9.87126437,0 11.8844828,0.974137931 13.1833333,2.53275862 L11.7545977,3.76666667 C10.7804598,2.59770115 9.22183908,1.8183908 7.59827586,1.8183908 C4.48103448,1.8183908 2.01321839,4.48103448 2.01321839,7.66321839 C2.01321839,10.8454023 4.48103448,13.508046 7.59827586,13.508046 C9.28678161,13.508046 10.7804598,12.7287356 11.7545977,11.5597701 L13.1833333,12.7936782 C11.8844828,14.3522989 9.87126437,15.3264368 7.59827586,15.3264368 C3.31206897,15.3913793 0,11.9494253 0,7.66321839 Z M14.741954,10.0011494 L14.741954,0.129885057 L16.6902299,0.129885057 L16.6902299,10.0011494 C16.6902299,12.3390805 18.3137931,13.4431034 20.1321839,13.4431034 C22.0155172,13.4431034 23.5741379,12.3390805 23.5741379,10.0011494 L23.5741379,0.129885057 L25.5224138,0.129885057 L25.5224138,10.0011494 C25.5224138,13.3781609 23.0545977,15.3913793 20.0672414,15.3913793 C17.2097701,15.3913793 14.741954,13.4431034 14.741954,10.0011494 Z" id="Shape"></path>
                            <polygon id="Path" points="28.5097701 0.129885057 30.458046 0.129885057 30.458046 13.3132184 36.5626437 13.3132184 36.5626437 15.1316092 28.5097701 15.1316092"></polygon>
                            <polygon id="Path" points="45.5247126 1.94827586 40.9787356 1.94827586 40.9787356 15.1316092 39.0304598 15.1316092 39.0304598 1.94827586 34.4844828 1.94827586 34.4844828 0.129885057 45.5247126 0.129885057"></polygon>
                            <path d="M46.7586207,10.0011494 L46.7586207,0.129885057 L48.7068966,0.129885057 L48.7068966,10.0011494 C48.7068966,12.3390805 50.3304598,13.4431034 52.1488506,13.4431034 C54.0321839,13.4431034 55.5908046,12.3390805 55.5908046,10.0011494 L55.5908046,0.129885057 L57.5390805,0.129885057 L57.5390805,10.0011494 C57.5390805,13.3781609 55.0712644,15.3913793 52.083908,15.3913793 C49.2264368,15.3913793 46.7586207,13.4431034 46.7586207,10.0011494 Z M64.487931,9.4816092 L62.5396552,9.4816092 L62.5396552,15.1316092 L60.5913793,15.1316092 L60.5913793,0.129885057 L66.1764368,0.129885057 C69.4235632,0.129885057 70.6574713,2.46781609 70.6574713,4.80574713 C70.6574713,7.0137931 69.5534483,9.15689655 66.7609195,9.41666667 L70.7224138,15.1316092 L68.3844828,15.1316092 L64.487931,9.4816092 Z M62.5396552,7.66321839 L65.6568966,7.66321839 C67.8649425,7.66321839 68.7091954,6.49425287 68.7091954,4.80574713 C68.7091954,3.11724138 67.7350575,1.94827586 66.2413793,1.94827586 L62.5396552,1.94827586 L62.5396552,7.66321839 Z" id="Shape"></path>
                            <polygon id="Path" points="81.8925287 13.3132184 81.8925287 15.1316092 72.8655172 15.1316092 72.8655172 0.129885057 81.6327586 0.129885057 81.6327586 1.94827586 74.8137931 1.94827586 74.8137931 6.81896552 80.7885057 6.81896552 80.7885057 8.70229885 74.8137931 8.70229885 74.8137931 13.3132184"></polygon>
                        </g>
                        <g id="Group" transform="translate(0.519540, 36.692529)">
                            <g fill="#F7FBFD">
                                <polygon id="Path" points="0 0.194827586 2.72758621 0.194827586 2.72758621 18.5086207 11.2350575 18.5086207 11.2350575 21.0413793 0 21.0413793"></polygon>
                                <path d="M34.7442529,15.716092 L25.7821839,15.716092 L23.7689655,21.1063218 L20.9114943,21.1063218 L28.7695402,0.259770115 L31.6270115,0.259770115 L39.6149425,21.0413793 L36.7574713,21.0413793 L34.7442529,15.716092 Z M33.8350575,13.3132184 L30.2632184,3.89655172 L26.6913793,13.3132184 L33.8350575,13.3132184 Z M39.2902299,10.7155172 C39.2902299,4.80574713 43.8362069,0 49.745977,0 C52.4735632,0 54.9413793,1.03908046 56.7597701,2.72758621 L54.8764368,4.54597701 C53.5775862,3.37701149 51.7591954,2.59770115 49.8109195,2.59770115 C45.4597701,2.59770115 42.0827586,6.29942529 42.0827586,10.7804598 C42.0827586,15.2614943 45.4597701,18.8982759 49.8109195,18.8982759 C53.3827586,18.8982759 56.1103448,16.8201149 56.5649425,13.5729885 C56.5649425,13.4431034 56.6298851,13.2482759 56.6298851,13.0534483 L50.5902299,13.0534483 L50.5902299,10.6505747 L59.6172414,10.6505747 C59.6172414,17.9241379 55.7206897,21.4310345 49.8109195,21.4310345 C43.9011494,21.366092 39.2902299,16.5603448 39.2902299,10.7155172 Z M67.3454023,13.1833333 L64.6178161,13.1833333 L64.6178161,21.0413793 L61.8902299,21.0413793 L61.8902299,0.194827586 L69.6833333,0.194827586 C74.2293103,0.194827586 75.9178161,3.44195402 75.9178161,6.68908046 C75.9178161,9.74137931 74.4241379,12.7287356 70.5275862,13.1183908 L76.0477011,21.0413793 L72.7356322,21.0413793 L67.3454023,13.1833333 Z M64.6827586,10.7155172 L69.033908,10.7155172 C72.0862069,10.7155172 73.2551724,9.09195402 73.2551724,6.75402299 C73.2551724,4.41609195 71.8913793,2.79252874 69.8132184,2.79252874 L64.6827586,2.79252874 L64.6827586,10.7155172 Z" id="Shape"></path>
                                <polygon id="Path" points="79.0350575 0.194827586 81.7626437 0.194827586 81.7626437 21.0413793 79.0350575 21.0413793"></polygon>
                            </g>
                            <path d="M20.1971264,9.09195402 C21.9505747,6.5591954 22.9896552,4.41609195 22.6,0.584482759 L25.1327586,0.584482759 C25.5224138,4.22126437 24.2885057,7.66321839 21.8206897,9.74137931 L20.1971264,9.09195402 Z" id="Path" fill="#FFFFFF"></path>
                        </g>
                    </g>
                    <g id="Group" transform="translate(21.171264, 55.331034)" fill="#F7FBFD">
                        <path d="M0,0 L3.24712644,0 C5.58505747,0 7.0137931,1.8183908 7.0137931,4.22126437 C7.0137931,6.5591954 5.65,8.37758621 3.24712644,8.37758621 L0,8.37758621 L0,0 Z M3.24712644,7.33850575 C5.00057471,7.33850575 5.90977011,5.97471264 5.90977011,4.22126437 C5.90977011,2.46781609 5.00057471,1.03908046 3.24712644,1.03908046 L1.10402299,1.03908046 L1.10402299,7.33850575 L3.24712644,7.33850575 Z" id="Shape"></path>
                        <polygon id="Path" points="13.1833333 7.33850575 13.1833333 8.37758621 8.18275862 8.37758621 8.18275862 0 13.0534483 0 13.0534483 1.03908046 9.28678161 1.03908046 9.28678161 3.76666667 12.5988506 3.76666667 12.5988506 4.80574713 9.28678161 4.80574713 9.28678161 7.40344828 13.1833333 7.40344828"></polygon>
                    </g>
                    <rect id="Rectangle" fill="#8ABD56" x="188.333333" y="75.3333333" width="37.6666667" height="37.6666667"></rect>
                    <rect id="Rectangle" fill="#EDA84D" x="113" y="37.6666667" width="37.6666667" height="37.6666667"></rect>
                    <rect id="Rectangle" fill="#1E5740" x="150.666667" y="37.6666667" width="37.6666667" height="37.6666667"></rect>
                    <rect id="Rectangle" fill="#EDA84D" x="188.333333" y="37.6666667" width="37.6666667" height="37.6666667"></rect>
                    <rect id="Rectangle" fill="#8ABD56" x="113" y="2.3072221e-15" width="37.6666667" height="37.6666667"></rect>
                    <rect id="Rectangle" fill="#D73465" x="150.666667" y="0" width="37.6666667" height="37.6666667"></rect>
                    <rect id="Rectangle" fill="#8ABD56" x="188.333333" y="0" width="37.6666667" height="37.6666667"></rect>
                    <rect id="Rectangle" fill="#009FD9" x="150.666667" y="75.3333333" width="37.6666667" height="37.6666667"></rect>
                    <path d="M220.358119,14.0275862 C219.773637,14.741954 218.474786,15.5212644 215.422487,15.6511494 C215.617315,15.1316092 215.682257,14.612069 215.682257,14.0925287 C215.682257,13.7678161 215.682257,13.4431034 215.617315,13.1183908 L215.7472,13.1183908 C215.877085,13.1183908 216.00697,13.1183908 216.136855,13.1183908 L220.682832,13.1183908 C220.747774,13.3132184 220.682832,13.637931 220.358119,14.0275862 Z M216.916165,10.066092 C217.110993,10.066092 218.669614,10.1310345 220.033407,9.15689655 C219.903522,9.61149425 219.708694,10.1310345 219.319039,10.5856322 C218.669614,11.3649425 217.630533,11.7545977 216.26674,11.8195402 L215.552372,11.8195402 C215.357545,11.1051724 215.097774,10.5206897 214.773062,10.066092 L216.916165,10.066092 Z M211.980533,17.5344828 C211.460993,17.7293103 210.941453,17.8591954 210.35697,17.9890805 C210.227085,17.9890805 210.032257,18.1189655 209.967315,18.2488506 C209.902372,18.3787356 209.83743,18.5735632 209.902372,18.7034483 C209.902372,18.7034483 210.486855,21.495977 211.266165,24.0287356 C210.61674,23.9637931 209.902372,24.0287356 209.123062,24.0936782 C208.538579,24.1586207 207.954096,24.2235632 207.304671,24.2235632 C206.655246,24.2235632 206.070763,24.1586207 205.48628,24.0936782 C204.70697,24.0287356 203.992602,23.9637931 203.343177,24.0287356 C204.122487,21.495977 204.70697,18.7034483 204.70697,18.7034483 C204.771912,18.5086207 204.70697,18.3787356 204.642027,18.2488506 C204.577085,18.1189655 204.382257,17.9890805 204.252372,17.9890805 C203.667889,17.8591954 203.148349,17.7293103 202.628809,17.5344828 C201.070188,16.95 200.09605,15.5862069 200.09605,14.0275862 C200.09605,12.3390805 200.420763,11.1701149 201.005246,10.5856322 C201.265016,10.3258621 201.589728,10.1310345 201.979384,10.066092 L202.109269,10.066092 C203.018464,9.80632184 204.122487,9.87126437 205.48628,9.9362069 C206.070763,9.9362069 206.720188,10.0011494 207.369614,10.0011494 C208.019039,10.0011494 208.603522,10.0011494 209.252947,9.9362069 C210.61674,9.87126437 211.850648,9.87126437 212.759843,10.1310345 C213.149499,10.2609195 213.539154,10.4557471 213.798924,10.7155172 C214.448349,11.3649425 214.773062,12.4689655 214.773062,14.1574713 C214.513292,15.5862069 213.474211,16.95 211.980533,17.5344828 Z M213.084556,25.3275862 C212.954671,25.1327586 212.824786,24.937931 212.694901,24.7431034 C212.110418,22.9247126 211.590878,20.7816092 211.266165,19.4827586 C211.39605,19.6775862 211.65582,19.8074713 211.980533,19.8074713 C212.500073,19.8074713 212.889728,19.4178161 212.889728,18.8982759 C212.889728,18.7034483 212.824786,18.5735632 212.759843,18.4436782 C213.409269,18.1189655 213.993751,17.7293103 214.448349,17.2097701 C214.578234,20.0022989 214.318464,23.833908 213.084556,25.3275862 Z M212.175361,28.5747126 C211.65582,28.7695402 209.772487,29.354023 207.304671,29.354023 L207.239728,29.354023 C204.642027,29.354023 202.758694,28.7695402 202.174211,28.5747126 C202.109269,28.25 202.109269,27.9902299 202.109269,27.6655172 C202.109269,27.4706897 202.109269,27.3408046 202.109269,27.2109195 L203.992602,27.4706897 C204.057545,27.4706897 204.057545,27.4706897 204.057545,27.4706897 C204.382257,27.4706897 204.642027,27.2758621 204.642027,26.9511494 C204.70697,26.6264368 204.4472,26.3017241 204.122487,26.2367816 L202.304096,25.9770115 C202.369039,25.7821839 202.498924,25.6522989 202.563866,25.5224138 C203.018464,25.0678161 203.992602,25.1977011 205.161568,25.2626437 C205.74605,25.3275862 206.395476,25.3925287 207.109843,25.3925287 C207.824211,25.3925287 208.473637,25.3275862 209.058119,25.2626437 C210.162142,25.1327586 211.201223,25.0678161 211.65582,25.5224138 C211.785705,25.6522989 211.850648,25.7821839 211.915591,25.9770115 L210.0972,26.2367816 C209.772487,26.3017241 209.512717,26.6264368 209.577659,26.9511494 C209.642602,27.2758621 209.902372,27.4706897 210.162142,27.4706897 C210.162142,27.4706897 210.227085,27.4706897 210.227085,27.4706897 L212.110418,27.2109195 C212.110418,27.3408046 212.110418,27.5356322 212.110418,27.6655172 C212.240303,27.9902299 212.240303,28.3149425 212.175361,28.5747126 Z M207.174786,32.0816092 C204.836855,32.0816092 203.343177,31.4321839 202.628809,30.1333333 C203.602947,30.3931034 205.161568,30.7178161 207.044901,30.7178161 L207.174786,30.7178161 L207.239728,30.7178161 C209.123062,30.7178161 210.681682,30.3931034 211.65582,30.1333333 C211.006395,31.4321839 209.512717,32.0816092 207.174786,32.0816092 Z M201.265016,25.3275862 C200.031108,23.833908 199.771338,19.9373563 199.901223,17.2747126 C200.35582,17.7942529 200.940303,18.183908 201.589728,18.5086207 C201.524786,18.6385057 201.459843,18.7683908 201.459843,18.9632184 C201.459843,19.4827586 201.849499,19.8724138 202.369039,19.8724138 C202.628809,19.8724138 202.888579,19.7425287 203.083407,19.4827586 C202.758694,20.7816092 202.239154,22.9247126 201.654671,24.7431034 C201.524786,24.937931 201.394901,25.1327586 201.265016,25.3275862 Z M198.862142,11.8195402 L198.147774,11.8195402 C196.783981,11.7545977 195.744901,11.3649425 195.095476,10.5856322 C194.70582,10.1310345 194.510993,9.67643678 194.381108,9.15689655 C195.744901,10.1310345 197.238579,10.066092 197.498349,10.066092 L199.641453,10.066092 C199.31674,10.5206897 199.05697,11.1051724 198.862142,11.8195402 Z M193.991453,14.0275862 C193.66674,13.637931 193.601797,13.3132184 193.536855,12.9885057 L198.147774,12.9885057 C198.277659,12.9885057 198.407545,12.9885057 198.53743,12.9885057 L198.667315,12.9885057 C198.667315,13.3132184 198.602372,13.637931 198.602372,13.9626437 C198.602372,14.4821839 198.667315,15.0666667 198.862142,15.5212644 C195.874786,15.5212644 194.575935,14.741954 193.991453,14.0275862 Z M221.981682,12.2741379 L221.851797,11.8195402 L219.708694,11.8195402 C219.838579,11.6896552 220.033407,11.5597701 220.163292,11.3649425 C221.592027,9.74137931 221.267315,7.53333333 221.267315,7.40344828 L221.007545,5.71494253 L220.098349,7.14367816 C218.994326,8.89712644 216.916165,8.76724138 216.851223,8.76724138 L212.565016,8.76724138 C211.460993,8.50747126 210.227085,8.50747126 208.798349,8.57241379 C208.213866,8.57241379 207.629384,8.63735632 206.979958,8.63735632 C206.330533,8.63735632 205.74605,8.63735632 205.161568,8.57241379 C203.797774,8.50747126 202.498924,8.44252874 201.459843,8.76724138 L197.303522,8.76724138 L197.238579,8.76724138 C197.173637,8.76724138 195.030533,8.89712644 193.991453,7.14367816 L193.082257,5.71494253 L192.822487,7.40344828 C192.822487,7.4683908 192.497774,9.67643678 193.92651,11.3649425 C194.056395,11.4948276 194.18628,11.6896552 194.381108,11.8195402 L192.432832,11.8195402 L192.302947,12.2741379 C192.302947,12.3390805 192.043177,13.5729885 193.017315,14.8068966 C194.056395,16.0408046 195.939728,16.7551724 198.732257,16.8201149 C198.667315,17.8591954 198.277659,24.7431034 200.940303,26.6913793 C200.875361,26.9511494 200.875361,27.2758621 200.875361,27.6005747 C200.875361,31.3672414 203.018464,33.2505747 207.174786,33.2505747 C211.331108,33.2505747 213.474211,31.3672414 213.474211,27.6005747 C213.474211,27.2758621 213.474211,26.9511494 213.409269,26.6913793 C216.071912,24.7431034 215.682257,17.7942529 215.617315,16.8201149 C218.409843,16.6902299 220.293177,16.0408046 221.332257,14.8068966 C222.306395,13.5729885 222.046625,12.3390805 221.981682,12.2741379 Z" id="Shape" fill="#FFFFFF"></path>
                    <path d="M158.2,76.891954 C158.2,76.891954 158.264943,76.891954 158.264943,76.9568966 L158.264943,76.9568966 L159.368966,83.3862069 L159.368966,83.3862069 L159.433908,83.3862069 C160.343103,83.3862069 161.122414,84.1005747 161.317241,84.9448276 C166.382759,84.1655172 167.681609,86.8281609 167.746552,86.958046 L167.746552,86.958046 L167.746552,87.087931 C167.681609,87.1528736 167.681609,87.1528736 167.616667,87.1528736 L167.616667,87.1528736 L161.252299,85.983908 C161.057471,86.5683908 160.602874,87.0229885 160.018391,87.2178161 L160.018391,87.2178161 L160.018391,107.35 L164.694253,107.35 L164.694253,97.7385057 L162.356322,97.7385057 C162.096552,97.7385057 161.836782,97.6086207 161.771839,97.3488506 C161.641954,97.0890805 161.706897,96.8293103 161.901724,96.6344828 L161.901724,96.6344828 L172.941954,86.1787356 C173.201724,85.9189655 173.591379,85.9189655 173.851149,86.1787356 L173.851149,86.1787356 L177.682759,89.9454023 L177.682759,89.7505747 C177.682759,89.4258621 178.007471,89.1011494 178.332184,89.1011494 L178.332184,89.1011494 L180.735057,89.1011494 C181.05977,89.1011494 181.384483,89.4258621 181.384483,89.7505747 L181.384483,89.7505747 L181.514368,93.7770115 L184.826437,96.6344828 C185.021264,96.8293103 185.086207,97.0890805 185.021264,97.3488506 C184.956322,97.6086207 184.696552,97.8034483 184.436782,97.8034483 L184.436782,97.8034483 L182.033908,97.8034483 L182.033908,100.725862 C182.813218,100.141379 183.722414,99.8816092 184.631609,99.8816092 C185.021264,99.8816092 185.281034,100.141379 185.41092,100.401149 C185.41092,100.725862 185.086207,101.050575 184.761494,101.050575 C183.852299,101.050575 183.008046,101.375287 182.358621,102.089655 C182.228736,102.21954 182.033908,102.284483 181.83908,102.284483 C181.57931,102.21954 181.449425,102.154598 181.31954,101.95977 C180.735057,101.050575 179.76092,100.466092 178.656897,100.466092 C176.968391,100.466092 175.539655,101.894828 175.539655,103.648276 C175.539655,104.037931 175.604598,104.427586 175.734483,104.817241 C175.799425,105.012069 175.799425,105.206897 175.66954,105.401724 C175.539655,105.596552 175.344828,105.726437 175.15,105.726437 C173.851149,105.856322 172.877011,106.895402 172.877011,108.194253 C172.877011,108.518966 172.552299,108.843678 172.227586,108.843678 C171.902874,108.843678 171.578161,108.518966 171.578161,108.194253 C171.578161,106.505747 172.682184,105.077011 174.240805,104.622414 C174.240805,104.297701 174.175862,104.037931 174.175862,103.713218 C174.175862,101.245402 176.124138,99.2321839 178.591954,99.2321839 C179.371264,99.2321839 180.150575,99.4270115 180.8,99.8166667 L180.8,99.8166667 L180.8,97.0241379 C180.8,96.8293103 180.864943,96.6994253 180.994828,96.5695402 C181.124713,96.4396552 181.254598,96.3747126 181.449425,96.3747126 L181.449425,96.3747126 L182.748276,96.3747126 L180.54023,94.4913793 C180.345402,94.3614943 180.28046,94.2316092 180.28046,94.0367816 L180.28046,94.0367816 L180.150575,90.3350575 L179.046552,90.3350575 L179.046552,91.4390805 C179.046552,91.6988506 178.916667,91.8936782 178.656897,92.0235632 C178.397126,92.1534483 178.137356,92.0885057 177.942529,91.8936782 L177.942529,91.8936782 L173.461494,87.4775862 L164.044828,96.3747126 L165.278736,96.3747126 C165.668391,96.3747126 165.928161,96.6344828 165.928161,97.0241379 L165.928161,97.0241379 L165.928161,107.934483 C165.928161,108.12931 165.863218,108.259195 165.733333,108.38908 C165.603448,108.518966 165.473563,108.583908 165.278736,108.583908 L165.278736,108.583908 L154.108621,108.583908 C153.783908,108.583908 153.459195,108.324138 153.459195,107.934483 C153.459195,107.60977 153.783908,107.285057 154.108621,107.285057 L154.108621,107.285057 L158.654598,107.285057 L158.654598,87.087931 C158.45977,87.0229885 158.264943,86.8931034 158.135057,86.7632184 C156.121839,90.0752874 154.043678,90.5298851 153.004598,90.5298851 C152.614943,90.5298851 152.420115,90.4649425 152.355172,90.4649425 C152.355172,90.4649425 152.29023,90.4649425 152.29023,90.4 C152.29023,90.3350575 152.29023,90.2701149 152.355172,90.2701149 L152.355172,90.2701149 L157.615517,85.983908 C157.550575,85.7890805 157.485632,85.5942529 157.485632,85.3344828 C157.485632,84.6850575 157.875287,84.0356322 158.394828,83.7109195 C155.927011,79.1 158.005172,76.9568966 158.070115,76.891954 L158.070115,76.891954 Z M159.433908,84.8149425 C159.044253,84.8149425 158.784483,85.1396552 158.784483,85.4643678 C158.784483,85.854023 159.109195,86.1137931 159.433908,86.1137931 C159.823563,86.1137931 160.083333,85.7890805 160.083333,85.4643678 C160.083333,85.0747126 159.823563,84.8149425 159.433908,84.8149425 Z" id="Path-2" fill="#FFFFFF"></path>
                    <g id="Group" transform="translate(190.277346, 80.618032)" fill="#FFFFFF">
                        <path d="M26.8212644,19.2392241 C26.8212644,18.9145115 26.5614943,18.6547414 26.2367816,18.6547414 C25.912069,18.6547414 25.6522989,18.9145115 25.6522989,19.2392241 C25.6522989,19.5639368 25.912069,19.8237069 26.2367816,19.8237069 C26.5614943,19.8237069 26.8212644,19.5639368 26.8212644,19.2392241 M22.0804598,5.08175287 C22.0804598,4.75704023 21.8206897,4.49727011 21.495977,4.49727011 C21.1712644,4.49727011 20.9114943,4.75704023 20.9114943,5.08175287 C20.9114943,5.40646552 21.1712644,5.66623563 21.495977,5.66623563 C21.8206897,5.6012931 22.0804598,5.40646552 22.0804598,5.08175287 M5.26034483,17.8104885 L1.55862069,17.8104885 C1.23390805,17.8104885 0.974137931,18.0702586 0.974137931,18.3949713 C0.974137931,18.7196839 1.23390805,18.979454 1.55862069,18.979454 L4.67586207,18.979454 L4.67586207,27.8116379 C4.67586207,28.1363506 4.93563218,28.3961207 5.26034483,28.3961207 C5.58505747,28.3961207 5.84482759,28.1363506 5.84482759,27.8116379 L5.84482759,18.3949713 C5.84482759,18.0702586 5.58505747,17.8104885 5.26034483,17.8104885" id="Shape"></path>
                        <path d="M30.9126437,19.1742816 C30.7827586,19.1093391 30.6528736,19.1093391 30.5229885,19.1093391 C30.5229885,19.1093391 30.458046,19.1093391 30.458046,19.1093391 C28.9643678,19.0443966 28.0551724,17.6156609 28.0551724,17.6156609 C27.9902299,17.5507184 27.9252874,17.4857759 27.8603448,17.4208333 L26.1068966,16.3817529 L27.3408046,15.0179598 C27.4706897,14.8880747 27.5356322,14.6932471 27.4706897,14.4984195 C27.4057471,14.303592 27.2758621,14.1737069 27.0810345,14.1087644 C25.4574713,13.5242816 23.8988506,13.9788793 22.9896552,14.3685345 L22.1454023,13.8489943 C20.3270115,12.7449713 18.054023,12.225431 16.95,12.0306034 L19.4827586,8.45876437 C19.9373563,8.65359195 20.4568966,8.71853448 20.5867816,8.71853448 L22.4701149,8.71853448 C22.7948276,9.04324713 23.1844828,9.23807471 23.6390805,9.23807471 C23.6390805,9.23807471 23.704023,9.23807471 23.704023,9.23807471 C24.4833333,9.23807471 25.3275862,8.78347701 25.7821839,8.0691092 C26.6264368,6.77025862 25.9770115,5.66623563 25.3275862,5.21163793 L20.0672414,0.925431034 C20.0672414,0.925431034 20.0672414,0.925431034 20.0022989,0.925431034 C18.4436782,-0.308477011 16.3005747,-0.308477011 14.741954,0.925431034 C13.8977011,1.57485632 13.4431034,2.54899425 13.3781609,3.58807471 L11.6896552,4.82198276 C8.11781609,3.91278736 4.80574713,4.88692529 4.09137931,5.1466954 L0.649425287,4.88692529 C0.324712644,4.88692529 0.0649425287,5.08175287 0,5.40646552 C0,5.73117816 0.194827586,5.99094828 0.51954023,6.0558908 L4.09137931,6.31566092 C4.09137931,6.31566092 4.09137931,6.31566092 4.15632184,6.31566092 C4.22126437,6.31566092 4.2862069,6.31566092 4.35114943,6.25071839 C4.35114943,6.25071839 7.92298851,4.88692529 11.6247126,5.99094828 C11.8195402,6.0558908 12.0143678,5.99094828 12.1442529,5.92600575 L13.5729885,4.88692529 C13.7028736,5.21163793 13.8977011,5.6012931 14.0925287,5.86106322 C14.5471264,6.51048851 15.2614943,6.90014368 16.0408046,6.96508621 C16.1706897,6.96508621 16.3005747,6.96508621 16.4304598,6.96508621 C17.0798851,6.96508621 17.7293103,6.77025862 18.2488506,6.31566092 C18.7683908,5.92600575 19.0931034,5.34152299 19.158046,4.6920977 C19.2229885,4.04267241 19.0931034,3.39324713 18.6385057,2.8737069 C18.4436782,2.61393678 18.054023,2.54899425 17.7942529,2.74382184 C17.5344828,2.93864943 17.4695402,3.3283046 17.6643678,3.58807471 C17.8591954,3.84784483 17.9890805,4.17255747 17.9241379,4.56221264 C17.8591954,4.88692529 17.7293103,5.21163793 17.4045977,5.40646552 C17.0149425,5.66623563 16.5603448,5.79612069 16.1057471,5.73117816 C15.6511494,5.66623563 15.1965517,5.40646552 14.9367816,5.08175287 C14.1574713,4.04267241 14.3522989,2.54899425 15.3264368,1.76968391 C16.4954023,0.860488506 18.054023,0.925431034 19.158046,1.83462644 C19.158046,1.83462644 19.158046,1.83462644 19.158046,1.83462644 L24.4183908,6.12083333 C24.4183908,6.12083333 24.4183908,6.12083333 24.4183908,6.12083333 C24.6132184,6.25071839 25.0678161,6.70531609 24.5482759,7.41968391 C24.2885057,7.80933908 23.7689655,8.13405172 23.3793103,8.0691092 C23.1195402,8.0691092 22.9896552,7.93922414 22.9247126,7.80933908 C22.7948276,7.61451149 22.6649425,7.48462644 22.4051724,7.48462644 L20.262069,7.48462644 C20.0022989,7.48462644 19.4827586,7.35474138 19.4178161,7.15991379 C19.3528736,6.83520115 19.0281609,6.64037356 18.7034483,6.70531609 C18.3787356,6.77025862 18.183908,7.09497126 18.2488506,7.41968391 C18.2488506,7.48462644 18.2488506,7.48462644 18.3137931,7.54956897 L13.3781609,14.5633621 C13.3132184,14.6283046 13.3132184,14.6932471 13.3132184,14.7581897 C13.3132184,14.8880747 12.5988506,17.875431 10.2609195,17.875431 L8.37758621,17.875431 L8.37758621,15.3426724 C8.37758621,15.0179598 8.11781609,14.7581897 7.79310345,14.7581897 C7.4683908,14.7581897 7.20862069,15.0179598 7.20862069,15.3426724 L7.20862069,27.8116379 C7.20862069,28.1363506 7.4683908,28.3961207 7.79310345,28.3961207 C8.11781609,28.3961207 8.37758621,28.1363506 8.37758621,27.8116379 L8.37758621,24.8892241 C9.4816092,24.8892241 10.5856322,24.8892241 11.6896552,24.8892241 C13.3132184,24.8892241 14.6770115,24.8892241 15.3913793,24.8892241 L15.3913793,27.8116379 C15.3913793,28.1363506 15.6511494,28.3961207 15.9758621,28.3961207 C16.3005747,28.3961207 16.5603448,28.1363506 16.5603448,27.8116379 L16.5603448,23.7202586 C16.5603448,23.395546 16.3005747,23.1357759 15.9758621,23.1357759 C15.6511494,23.1357759 15.3913793,23.395546 15.3913793,23.7202586 C14.2873563,23.7202586 11.2350575,23.7202586 8.37758621,23.7202586 L8.37758621,19.1093391 L10.2609195,19.1093391 C12.7936782,19.1093391 14.0925287,16.641523 14.4172414,15.2127874 L15.9109195,13.1346264 C15.9109195,13.1346264 15.9758621,13.1346264 15.9758621,13.1346264 C15.9758621,13.1346264 19.0931034,13.5242816 21.2362069,14.8880747 L21.6258621,15.1478448 C21.5609195,15.3426724 21.5609195,15.5375 21.6908046,15.6673851 C21.8856322,15.9271552 22.2103448,15.9920977 22.4701149,15.7972701 C22.4701149,15.7972701 23.833908,14.8880747 25.4574713,15.0179598 L24.4183908,16.1869253 C24.2885057,16.3168103 24.2885057,16.5116379 24.2885057,16.641523 C24.2885057,16.8363506 24.4183908,16.9662356 24.5482759,17.0311782 L26.7563218,18.3949713 C27.016092,18.7846264 27.9252874,19.8886494 29.4189655,20.2133621 C29.2890805,20.5380747 29.1591954,20.8627874 29.0293103,21.1875 C28.7695402,21.9018678 28.5097701,22.4863506 28.3149425,22.6162356 C28.1850575,22.6811782 27.9252874,22.6811782 27.2758621,22.291523 C27.016092,22.1616379 26.6264368,22.2265805 26.4965517,22.5512931 C26.4316092,22.6811782 26.4316092,22.7461207 26.4316092,22.8760057 C25.5873563,23.2656609 23.3143678,24.1099138 19.0931034,23.9150862 C20.1971264,23.2656609 20.3270115,21.5771552 20.3270115,21.3823276 C20.3270115,21.0576149 20.1321839,20.7978448 19.8074713,20.7329023 C19.4827586,20.7329023 19.2229885,20.9277299 19.158046,21.2524425 C19.158046,21.5771552 18.8982759,22.7461207 18.3137931,22.9409483 C18.054023,23.0058908 17.8591954,23.2656609 17.8591954,23.525431 L17.8591954,27.8116379 C17.8591954,28.1363506 18.1189655,28.3961207 18.4436782,28.3961207 C18.7683908,28.3961207 19.0281609,28.1363506 19.0281609,27.8116379 L19.0281609,25.0840517 C19.5477011,25.0840517 20.0022989,25.1489943 20.4568966,25.1489943 C25.0678161,25.1489943 27.0810345,23.8501437 27.3408046,23.7202586 C27.6655172,23.8501437 27.8603448,23.8501437 28.1201149,23.8501437 C28.3149425,23.8501437 28.5097701,23.7852011 28.6396552,23.7202586 C29.4189655,23.4604885 29.6787356,22.6162356 30.0683908,21.5771552 C30.2632184,21.1225575 30.458046,20.5380747 30.7178161,19.953592 C31.3672414,19.6938218 31.2373563,19.3041667 30.9126437,19.1742816" id="Path"></path>
                    </g>
                    <rect id="Rectangle" fill="#8ABD56" x="113" y="75.3333333" width="37.6666667" height="37.6666667"></rect>
                    <g id="Group" transform="translate(116.515198, 41.530747)" fill="#FFFFFF">
                        <path d="M10.9586837,22.2103448 C10.3742009,23.1844828 9.85466072,24.1586207 9.40006302,25.3275862 C8.94546531,24.0936782 8.36098256,23.1195402 7.7764998,22.1454023 C6.67247681,20.262069 5.69833888,18.6385057 5.95810899,15.6511494 C6.15293658,13.5729885 7.58167221,12.1442529 9.40006302,12.1442529 C11.2833963,12.1442529 12.7770745,13.637931 12.842017,15.6511494 C12.9719021,18.7034483 11.9977642,20.391954 10.9586837,22.2103448 M10.0494883,10.8454023 C10.5690285,9.80632184 11.8029366,7.92298851 14.3356952,7.20862069 C14.6604078,7.14367816 14.920178,6.75402299 14.7902929,6.42931034 C14.6604078,6.1045977 14.3356952,5.84482759 14.0109826,5.97471264 C12.1925918,6.49425287 10.8937412,7.4683908 10.0494883,8.50747126 L10.0494883,5.84482759 C10.0494883,5.45517241 9.78971819,5.1954023 9.40006302,5.1954023 C9.01040784,5.1954023 8.75063773,5.52011494 8.75063773,5.84482759 L8.75063773,8.70229885 C7.90638485,7.66321839 6.60753428,6.5591954 4.65925842,6.03965517 C4.33454577,5.97471264 3.9448906,6.16954023 3.87994807,6.49425287 C3.81500554,6.81896552 4.00983313,7.20862069 4.33454577,7.27356322 C6.93224692,7.98793103 8.16615497,9.87126437 8.62075267,10.9103448 C6.47764922,11.3 4.854086,13.1183908 4.65925842,15.5862069 C4.33454577,18.9632184 5.56845382,20.9114943 6.67247681,22.8597701 C7.71155727,24.6781609 8.75063773,26.3666667 8.75063773,29.2890805 C8.75063773,29.6787356 9.01040784,29.9385057 9.40006302,29.9385057 C9.78971819,29.9385057 10.0494883,29.6137931 10.0494883,29.2890805 C10.0494883,26.3666667 11.0236262,24.6781609 12.0627067,22.9247126 C13.1667297,21.0413793 14.3356952,19.0281609 14.1408676,15.6511494 C14.0109826,13.1183908 12.3224768,11.1701149 10.0494883,10.8454023" id="Shape"></path>
                        <path d="M18.1673044,8.70229885 C18.4270745,8.18275862 18.492017,7.59827586 18.2971895,7.07873563 C18.1673044,6.62413793 17.8425918,6.23448276 17.4529366,5.97471264 C17.5178791,5.13045977 17.0632814,4.22126437 16.154086,3.8316092 C16.0891435,3.05229885 15.5696032,2.40287356 14.8552354,2.07816092 C13.94604,1.68850575 12.9719021,1.88333333 12.2575343,2.46781609 C12.1276492,2.33793103 11.9328216,2.20804598 11.7379941,2.14310345 C11.6730515,2.14310345 11.6730515,2.14310345 11.608109,2.07816092 C11.3483389,0.909195402 10.1793734,0.129885057 8.88052279,0.259770115 C7.7764998,0.389655172 6.93224692,1.16896552 6.67247681,2.14310345 C6.47764922,2.20804598 6.28282164,2.33793103 6.15293658,2.46781609 C5.50351129,1.88333333 4.46443083,1.68850575 3.55523543,2.07816092 C2.77592508,2.40287356 2.32132738,3.11724138 2.25638485,3.8316092 C1.41213198,4.22126437 0.892591751,5.06551724 0.95753428,5.97471264 C0.567879108,6.23448276 0.308108993,6.62413793 0.113281407,7.07873563 C-0.0815461797,7.59827586 -0.016603651,8.24770115 0.243166464,8.70229885 C0.567879108,9.28678161 1.15236187,9.67643678 1.80178715,9.87126437 C1.80178715,9.87126437 1.80178715,9.87126437 1.80178715,9.87126437 C2.19144233,10.6505747 3.0356952,11.1051724 3.87994807,11.1051724 C4.20466072,11.1051724 4.52937336,11.0402299 4.854086,10.9103448 C4.91902853,10.9103448 4.98397106,10.8454023 5.04891359,10.8454023 C5.56845382,11.1051724 6.08799405,11.1051724 6.67247681,10.7804598 C6.99718945,10.6505747 7.12707451,10.2609195 6.99718945,9.9362069 C6.8673044,9.61149425 6.47764922,9.4816092 6.15293658,9.61149425 C5.76328141,9.80632184 5.69833888,9.74137931 5.37362623,9.54655172 C5.11385612,9.35172414 4.78914348,9.41666667 4.59431589,9.61149425 C4.52937336,9.67643678 4.3994883,9.74137931 4.33454577,9.80632184 C3.81500554,10.0011494 3.23052279,9.87126437 2.97075267,9.41666667 C2.97075267,9.35172414 2.90581014,9.28678161 2.90581014,9.22183908 C2.84086761,8.96206897 2.5810975,8.76724138 2.32132738,8.70229885 C1.93167221,8.70229885 1.60695957,8.50747126 1.47707451,8.18275862 C1.34718945,7.92298851 1.34718945,7.72816092 1.41213198,7.59827586 C1.47707451,7.33850575 1.6719021,7.20862069 1.93167221,7.07873563 L1.99661474,7.07873563 C2.1264998,7.0137931 2.32132738,6.88390805 2.38626991,6.75402299 C2.45121244,6.5591954 2.45121244,6.42931034 2.38626991,6.23448276 C2.25638485,5.84482759 2.45121244,5.39022989 2.84086761,5.1954023 C2.90581014,5.1954023 2.97075267,5.13045977 3.10063773,5.13045977 C3.29546531,5.06551724 3.42535037,5.00057471 3.4902929,4.87068966 C3.55523543,4.7408046 3.62017796,4.54597701 3.55523543,4.35114943 C3.4902929,3.96149425 3.68512049,3.63678161 4.07477566,3.44195402 C4.59431589,3.24712644 5.17879865,3.37701149 5.43856876,3.8316092 C5.43856876,3.8316092 5.43856876,3.89655172 5.50351129,3.89655172 C5.56845382,4.15632184 5.82822394,4.2862069 6.08799405,4.35114943 C6.34776417,4.35114943 6.60753428,4.22126437 6.67247681,3.96149425 C6.73741934,3.76666667 6.93224692,3.57183908 7.12707451,3.50689655 C7.19201704,3.50689655 7.25695957,3.44195402 7.3219021,3.44195402 C7.64661474,3.37701149 7.84144233,3.11724138 7.84144233,2.79252874 C7.84144233,2.27298851 8.29604003,1.8183908 8.94546531,1.75344828 C9.5948906,1.68850575 10.2443159,2.14310345 10.3092584,2.72758621 C10.3092584,2.79252874 10.3092584,2.79252874 10.3092584,2.79252874 C10.3092584,3.11724138 10.5690285,3.37701149 10.8287986,3.44195402 C10.8937412,3.44195402 11.0236262,3.50689655 11.0885688,3.50689655 C11.2833963,3.57183908 11.4782239,3.76666667 11.5431665,3.96149425 C11.6730515,4.22126437 11.8678791,4.35114943 12.1276492,4.35114943 C12.3874193,4.35114943 12.6471895,4.15632184 12.712132,3.89655172 C12.712132,3.89655172 12.712132,3.8316092 12.7770745,3.8316092 C13.0368446,3.37701149 13.6213274,3.18218391 14.1408676,3.44195402 C14.5305228,3.63678161 14.7253504,3.96149425 14.6604078,4.35114943 C14.5954653,4.54597701 14.6604078,4.67586207 14.7253504,4.87068966 C14.7902929,5.00057471 14.9851205,5.13045977 15.1150055,5.13045977 C15.1799481,5.13045977 15.3098331,5.1954023 15.3747757,5.1954023 C15.8293734,5.39022989 16.0242009,5.84482759 15.8943159,6.23448276 C15.8293734,6.42931034 15.8293734,6.5591954 15.8943159,6.75402299 C15.9592584,6.88390805 16.0891435,7.0137931 16.2839711,7.07873563 C16.2839711,7.07873563 16.3489136,7.07873563 16.3489136,7.07873563 C16.6086837,7.20862069 16.7385688,7.40344828 16.8684538,7.59827586 C16.9333963,7.72816092 16.9333963,7.92298851 16.8035113,8.18275862 C16.6736262,8.50747126 16.2839711,8.70229885 15.9592584,8.70229885 C15.6345458,8.70229885 15.4397182,8.89712644 15.3747757,9.22183908 C15.3747757,9.28678161 15.3098331,9.35172414 15.3098331,9.41666667 C15.050063,9.87126437 14.4655803,10.066092 13.94604,9.80632184 C13.8810975,9.74137931 13.7512124,9.67643678 13.6862699,9.61149425 C13.4264998,9.41666667 13.1017872,9.41666667 12.9069596,9.54655172 C12.7770745,9.67643678 12.6471895,9.74137931 12.6471895,9.74137931 C12.6471895,9.74137931 12.5822469,9.74137931 12.3224768,9.61149425 C11.9977642,9.4816092 11.608109,9.61149425 11.4782239,9.9362069 C11.3483389,10.2609195 11.4782239,10.6505747 11.8029366,10.7804598 C12.4523619,11.1051724 12.842017,11.0402299 13.2966147,10.8454023 C13.3615573,10.8454023 13.4264998,10.9103448 13.4914423,10.9103448 C14.5954653,11.4298851 15.9592584,10.9752874 16.5437412,9.9362069 C16.5437412,9.9362069 16.5437412,9.9362069 16.5437412,9.9362069 C17.258109,9.67643678 17.8425918,9.28678161 18.1673044,8.70229885 M23.2328216,12.2741379 C23.3627067,12.404023 23.5575343,12.4689655 23.6874193,12.4689655 C23.8822469,12.4689655 24.0770745,12.404023 24.2069596,12.2741379 L27.3891435,8.70229885 C27.6489136,8.44252874 27.5839711,7.98793103 27.3242009,7.79310345 C27.0644308,7.53333333 26.6098331,7.59827586 26.4150055,7.85804598 L23.6874193,10.8454023 L20.9598331,7.85804598 C20.700063,7.59827586 20.3104078,7.53333333 20.0506377,7.79310345 C19.7908676,8.05287356 19.7908676,8.44252874 19.9856952,8.70229885 L23.2328216,12.2741379 Z" id="Shape"></path>
                        <path d="M26.4799481,11.4948276 L23.7523619,14.4821839 L21.0247757,11.4948276 C20.7650055,11.2350575 20.3753504,11.1701149 20.1155803,11.4298851 C19.8558101,11.6896552 19.8558101,12.0793103 20.0506377,12.3390805 L23.2328216,15.9109195 C23.3627067,16.0408046 23.5575343,16.1057471 23.6874193,16.1057471 C23.8822469,16.1057471 24.0770745,16.0408046 24.2069596,15.9109195 L27.3891435,12.3390805 C27.6489136,12.0793103 27.5839711,11.6247126 27.3242009,11.4298851 C27.1293734,11.1701149 26.6747757,11.1701149 26.4799481,11.4948276 M23.2328216,5.45517241 C23.2328216,5.45517241 23.2328216,5.45517241 23.2328216,5.45517241 C23.2977642,5.52011494 23.2977642,5.52011494 23.2328216,5.45517241 C23.2977642,5.52011494 23.3627067,5.58505747 23.4925918,5.58505747 C23.4925918,5.58505747 23.4925918,5.58505747 23.4925918,5.58505747 C23.5575343,5.58505747 23.6224768,5.65 23.7523619,5.65 C23.7523619,5.65 23.7523619,5.65 23.7523619,5.65 C23.8173044,5.65 23.8822469,5.65 24.012132,5.58505747 C24.012132,5.58505747 24.012132,5.58505747 24.012132,5.58505747 C24.0770745,5.58505747 24.142017,5.52011494 24.2069596,5.45517241 C24.2069596,5.45517241 24.2069596,5.45517241 24.2069596,5.45517241 C24.2069596,5.45517241 24.2069596,5.45517241 24.2069596,5.45517241 L26.2851205,3.11724138 C26.5448906,2.85747126 26.5448906,2.40287356 26.220178,2.20804598 C25.9604078,1.94827586 25.5707527,2.01321839 25.3109826,2.27298851 L24.3368446,3.31206897 L24.3368446,0.649425287 C24.3368446,0.259770115 24.012132,0 23.6874193,0 C23.2977642,0 23.0379941,0.324712644 23.0379941,0.649425287 L23.0379941,3.31206897 L22.0638561,2.27298851 C21.804086,2.01321839 21.4144308,2.01321839 21.1546607,2.20804598 C20.8948906,2.46781609 20.8948906,2.85747126 21.0897182,3.11724138 L23.2328216,5.45517241 Z" id="Shape"></path>
                        <path d="M23.2328216,8.83218391 C23.3627067,8.96206897 23.5575343,9.02701149 23.6874193,9.02701149 C23.8822469,9.02701149 24.0770745,8.96206897 24.2069596,8.83218391 L26.8696032,5.84482759 C27.1293734,5.58505747 27.0644308,5.13045977 26.8046607,4.93563218 C26.5448906,4.67586207 26.0902929,4.7408046 25.8954653,5.00057471 L23.6874193,7.4683908 L21.4793734,5.00057471 C21.2196032,4.7408046 20.8299481,4.7408046 20.570178,4.93563218 C20.3104078,5.1954023 20.3104078,5.58505747 20.5052354,5.84482759 L23.2328216,8.83218391 Z M29.9868446,22.0155172 C27.7138561,22.0155172 25.6356952,23.1844828 24.4017872,24.8729885 L24.4017872,19.3528736 L27.454086,15.9758621 C27.7138561,15.716092 27.6489136,15.3264368 27.3891435,15.0666667 C27.1293734,14.8068966 26.6747757,14.8718391 26.4799481,15.1316092 L23.7523619,18.183908 L21.0247757,15.1316092 C20.7650055,14.8718391 20.3753504,14.8718391 20.1155803,15.0666667 C19.8558101,15.3264368 19.8558101,15.716092 20.0506377,15.9758621 L23.1029366,19.3528736 L23.1029366,24.8729885 C21.8690285,23.1195402 19.7908676,22.0155172 17.5178791,22.0155172 C17.1282239,22.0155172 16.8684538,22.3402299 16.8684538,22.6649425 C16.8684538,23.0545977 17.1931665,23.3143678 17.5178791,23.3143678 C20.570178,23.3143678 23.1029366,25.8471264 23.1029366,28.8994253 C23.1029366,29.2890805 23.4276492,29.5488506 23.7523619,29.5488506 C24.142017,29.5488506 24.4017872,29.2241379 24.4017872,28.8994253 C24.4017872,25.7821839 26.9345458,23.3143678 29.9868446,23.3143678 C30.3764998,23.3143678 30.6362699,22.9896552 30.6362699,22.6649425 C30.6362699,22.2752874 30.3115573,22.0155172 29.9868446,22.0155172" id="Shape"></path>
                    </g>
                    <g id="Group" transform="translate(156.918418, 3.571839)" fill="#FFFFFF">
                        <path d="M16.7855772,19.287931 C16.7855772,18.6385057 16.9804047,17.9890805 17.3051174,17.4045977 L23.5396001,17.4045977 C23.8643128,17.9890805 24.0591404,18.5735632 24.0591404,19.287931 C24.0591404,21.3011494 22.4355772,22.9247126 20.4223588,22.9247126 C18.4091404,22.9247126 16.7855772,21.3011494 16.7855772,19.287931 M25.1631634,19.287931 C25.1631634,18.2488506 24.8384507,17.2097701 24.253968,16.3655172 C24.1240829,16.1706897 23.9292553,16.1057471 23.7344277,16.1057471 L16.7855772,16.1057471 C16.5907496,16.1057471 16.395922,16.2356322 16.2660369,16.3655172 C15.6815542,17.2097701 15.3568415,18.2488506 15.3568415,19.287931 C15.3568415,21.8206897 17.2401749,23.8988506 19.6430484,24.2235632 L19.6430484,29.0293103 L17.6947726,29.0293103 C17.3051174,29.0293103 17.0453473,29.354023 17.0453473,29.6787356 C17.0453473,30.0683908 17.3700599,30.3281609 17.6947726,30.3281609 L22.9551174,30.3281609 C23.3447726,30.3281609 23.6045427,30.0034483 23.6045427,29.6787356 C23.6045427,29.2890805 23.27983,29.0293103 22.9551174,29.0293103 L21.0068415,29.0293103 L21.0068415,24.2235632 C23.27983,23.8988506 25.1631634,21.8206897 25.1631634,19.287931 M4.38155417,23.1195402 C3.73212888,23.1195402 3.21258865,23.6390805 3.21258865,24.3534483 C3.21258865,25.0028736 3.73212888,25.5873563 4.38155417,25.5873563 C5.03097945,25.5873563 5.55051968,25.0678161 5.55051968,24.3534483 C5.61546221,23.6390805 5.09592198,23.1195402 4.38155417,23.1195402 M7.30396796,25.3925287 C6.78442773,25.3925287 6.32983003,25.8471264 6.32983003,26.3666667 C6.32983003,26.8862069 6.78442773,27.3408046 7.30396796,27.3408046 C7.82350819,27.3408046 8.21316336,26.8862069 8.21316336,26.3666667 C8.21316336,25.7821839 7.82350819,25.3925287 7.30396796,25.3925287" id="Shape"></path>
                        <path d="M4.44649669,29.0942529 C4.64132428,28.8994253 4.77120934,28.5747126 4.77120934,28.25 C4.77120934,27.6005747 4.25166911,27.016092 3.60224382,27.016092 C2.95281853,27.016092 2.4332783,27.5356322 2.4332783,28.25 C2.4332783,28.5747126 2.56316336,28.8994253 2.75799095,29.0942529 L1.5240829,29.0942529 C1.00454267,26.6913793 1.84879554,23.7689655 3.60224382,21.6908046 L11.2005197,26.6264368 C10.8108645,26.7563218 10.4861519,27.0810345 10.4861519,27.5356322 C10.4861519,28.0551724 10.875807,28.5097701 11.3953473,28.5097701 C11.9148875,28.5097701 12.3045427,28.1201149 12.3045427,27.5356322 C12.3045427,27.4706897 12.3045427,27.4057471 12.3045427,27.3408046 L14.9022438,29.0293103 L4.44649669,29.0293103 L4.44649669,29.0942529 Z M6.00511738,15.5212644 C6.00511738,13.0534483 6.58960014,11.9494253 7.10914037,11.1051724 L7.1740829,11.0402299 C7.95339325,9.67643678 8.34304842,8.76724138 8.40799095,8.18275862 C8.47293348,7.66321839 8.47293348,5.00057471 8.47293348,2.79252874 C8.47293348,2.53275862 8.27810589,2.27298851 8.0832783,2.20804598 L8.0832783,1.29885057 L10.9407496,1.29885057 L10.9407496,2.27298851 C10.875807,2.27298851 10.8108645,2.33793103 10.8108645,2.40287356 C10.6809795,2.53275862 10.6160369,2.72758621 10.6160369,2.85747126 C10.6160369,4.2862069 10.6809795,7.66321839 10.745922,8.24770115 C10.875807,9.02701149 11.5901749,10.3258621 11.97983,11.1051724 L12.0447726,11.1701149 C12.5643128,12.0793103 13.1487955,13.1833333 13.1487955,15.6511494 L13.1487955,26.3666667 L6.00511738,21.6258621 L6.00511738,15.5212644 Z M17.5648875,29.1591954 L14.4476461,27.145977 C14.4476461,27.145977 14.4476461,27.145977 14.4476461,27.145977 L14.4476461,15.5212644 C14.4476461,12.7287356 13.7332783,11.3649425 13.1487955,10.3908046 L13.083853,10.3258621 C12.4993703,9.22183908 12.0447726,8.31264368 11.97983,7.92298851 C11.9148875,7.59827586 11.849945,5.77988506 11.849945,3.37701149 C12.0447726,3.24712644 12.1746576,3.05229885 12.1746576,2.79252874 L12.1746576,0.649425287 C12.1746576,0.259770115 11.849945,0 11.5252323,0 L7.36891049,0 C6.97925532,0 6.7194852,0.324712644 6.7194852,0.649425287 L6.7194852,2.85747126 C6.7194852,3.11724138 6.91431279,3.37701149 7.10914037,3.50689655 C7.10914037,6.29942529 7.10914037,7.79310345 7.04419784,8.05287356 C7.04419784,8.24770115 6.84937026,8.83218391 5.94017486,10.4557471 L5.87523233,10.5206897 C5.48557715,11.3 4.9010944,12.2741379 4.70626681,13.9626437 L4.64132428,15.3264368 C4.64132428,15.4563218 4.64132428,20.9114943 4.64132428,20.9114943 L3.79707141,20.391954 C3.53730129,20.1971264 3.14764612,20.262069 2.95281853,20.5218391 C1.78385302,21.6908046 0.939600143,23.1844828 0.485002442,24.6781609 L0.160289798,25.9770115 C-0.0994803171,27.3408046 -0.0345377884,28.7695402 0.290174855,30.0683908 C0.355117384,30.3281609 0.614887499,30.5229885 0.939600143,30.5229885 L17.1752323,30.5229885 C17.499945,30.5229885 17.7597151,30.3281609 17.8246576,30.0683908 C17.8896001,29.6137931 17.8246576,29.354023 17.5648875,29.1591954 Z" id="Shape"></path>
                    </g>
                    <g id="Group" transform="translate(192.846839, 39.771077)" fill="#FFFFFF">
                        <g transform="translate(13.443103, 17.871639)" id="Shape">
                            <path d="M2.07816092,2.27298851 C1.68850575,1.94827586 1.3637931,1.55862069 1.16896552,1.10402299 C1.62356322,1.23390805 2.07816092,1.49367816 2.46781609,1.8183908 C2.85747126,2.14310345 3.18218391,2.53275862 3.37701149,2.98735632 C2.92241379,2.92241379 2.46781609,2.66264368 2.07816092,2.27298851 M4.41609195,3.96149425 C4.48103448,3.89655172 4.54597701,3.76666667 4.54597701,3.63678161 C4.54597701,3.57183908 4.54597701,3.57183908 4.54597701,3.50689655 C4.41609195,2.66264368 3.89655172,1.75344828 3.11724138,1.10402299 C2.33793103,0.454597701 1.42873563,0.0649425287 0.51954023,0 C0.389655172,0 0.259770115,0.0649425287 0.129885057,0.194827586 C0,0.324712644 0,0.454597701 0,0.584482759 C0.129885057,1.42873563 0.649425287,2.33793103 1.42873563,2.98735632 C2.20804598,3.63678161 3.11724138,4.02643678 4.02643678,4.09137931 C4.22126437,4.09137931 4.35114943,4.09137931 4.41609195,3.96149425"></path>
                            <path d="M6.49425287,12.8586207 C4.15632184,12.8586207 2.27298851,10.9752874 2.27298851,8.63735632 C2.27298851,6.88390805 3.24712644,5.77988506 4.7408046,5.77988506 C5.1954023,5.77988506 5.71494253,5.90977011 6.23448276,6.1045977 C6.36436782,6.16954023 6.5591954,6.16954023 6.68908046,6.1045977 C7.20862069,5.90977011 7.72816092,5.84482759 8.18275862,5.84482759 C9.74137931,5.84482759 10.7155172,6.94885057 10.7155172,8.63735632 C10.7155172,10.9752874 8.83218391,12.8586207 6.49425287,12.8586207 M8.18275862,4.48103448 C7.85804598,4.48103448 7.4683908,4.54597701 7.14367816,4.61091954 C7.0137931,4.02643678 6.75402299,3.11724138 6.03965517,2.40287356 C5.77988506,2.14310345 5.39022989,2.14310345 5.13045977,2.40287356 C4.87068966,2.66264368 4.87068966,3.05229885 5.13045977,3.31206897 C5.45517241,3.70172414 5.71494253,4.15632184 5.77988506,4.54597701 C5.45517241,4.48103448 5.06551724,4.41609195 4.7408046,4.41609195 C2.53275862,4.41609195 0.974137931,6.1045977 0.974137931,8.57241379 C0.974137931,11.6247126 3.44195402,14.0925287 6.49425287,14.0925287 C9.54655172,14.0925287 12.0143678,11.6247126 12.0143678,8.57241379 C12.0143678,6.16954023 10.4557471,4.48103448 8.18275862,4.48103448"></path>
                        </g>
                        <path d="M25.6522989,8.32508678 C25.3275862,8.32508678 25.0678161,8.26014425 24.808046,8.06531666 C24.808046,8.06531666 24.7431034,8.00037413 24.7431034,8.00037413 C24.2885057,7.74060402 24.0287356,7.22106379 24.0287356,6.70152356 C24.0287356,6.70152356 24.0287356,6.63658103 24.0287356,6.63658103 C24.0287356,6.63658103 24.0287356,6.5716385 24.0287356,6.5716385 C24.0936782,5.6624431 24.808046,4.94807528 25.7172414,4.94807528 C26.6264368,4.94807528 27.4057471,5.72738563 27.4057471,6.63658103 C27.3408046,7.54577643 26.6264368,8.32508678 25.6522989,8.32508678 M23.3793103,12.3515236 C22.4701149,12.3515236 21.7557471,11.6371557 21.6908046,10.7279603 L21.6908046,10.6630178 L21.6908046,10.5980753 C21.7557471,9.68887988 22.4701149,8.97451206 23.3793103,8.97451206 C23.704023,8.97451206 23.9637931,9.03945459 24.2235632,9.23428218 C24.2235632,9.23428218 24.2885057,9.29922471 24.2885057,9.29922471 C24.7431034,9.62393735 25.0028736,10.1434776 25.0028736,10.7279603 C25.0678161,11.5722132 24.2885057,12.3515236 23.3793103,12.3515236 M21.1063218,16.3779603 C20.1971264,16.3779603 19.4178161,15.59865 19.4178161,14.6894546 C19.4178161,13.7802592 20.1971264,13.0009488 21.1063218,13.0009488 C22.0155172,13.0009488 22.7948276,13.7802592 22.7948276,14.6894546 C22.7948276,15.59865 22.0155172,16.3779603 21.1063218,16.3779603 M17.0798851,10.6630178 C17.0798851,9.75382241 17.8591954,8.97451206 18.7683908,8.97451206 C19.0931034,8.97451206 19.3528736,9.03945459 19.6126437,9.23428218 C19.6775862,9.23428218 19.6775862,9.29922471 19.7425287,9.29922471 C20.1321839,9.55899482 20.4568966,10.0785351 20.4568966,10.5980753 C20.4568966,10.5980753 20.4568966,10.6630178 20.4568966,10.6630178 C20.4568966,10.6630178 20.4568966,10.7279603 20.4568966,10.7279603 C20.391954,11.6371557 19.6775862,12.3515236 18.7683908,12.3515236 C17.8591954,12.3515236 17.0798851,11.5722132 17.0798851,10.6630178 M14.8068966,6.63658103 C14.8068966,5.72738563 15.5862069,4.94807528 16.4954023,4.94807528 C17.4045977,4.94807528 18.1189655,5.6624431 18.183908,6.5716385 C18.183908,6.5716385 18.183908,6.63658103 18.183908,6.63658103 C18.183908,6.63658103 18.183908,6.70152356 18.183908,6.70152356 C18.1189655,7.61071896 17.4045977,8.32508678 16.4954023,8.32508678 C15.5212644,8.32508678 14.8068966,7.54577643 14.8068966,6.63658103 M21.0413793,4.94807528 C21.9505747,4.94807528 22.6649425,5.6624431 22.7298851,6.5716385 C22.7298851,6.5716385 22.7298851,6.63658103 22.7298851,6.63658103 C22.7298851,6.63658103 22.7298851,6.70152356 22.7298851,6.70152356 C22.6649425,7.61071896 21.9505747,8.32508678 21.0413793,8.32508678 C20.7166667,8.32508678 20.4568966,8.26014425 20.1971264,8.06531666 C20.1321839,8.06531666 20.1321839,8.00037413 20.0672414,8.00037413 C19.6775862,7.74060402 19.3528736,7.22106379 19.3528736,6.70152356 C19.3528736,6.70152356 19.3528736,6.63658103 19.3528736,6.63658103 C19.3528736,6.63658103 19.3528736,6.5716385 19.3528736,6.5716385 C19.4178161,5.6624431 20.1971264,4.94807528 21.0413793,4.94807528 M28.6396552,6.63658103 C28.6396552,5.01301781 27.3408046,3.64922471 25.7172414,3.64922471 C24.808046,3.64922471 23.9637931,4.10382241 23.4442529,4.7532477 C22.9896552,4.16876494 22.2752874,3.71416724 21.495977,3.64922471 C21.495977,3.64922471 21.495977,3.64922471 21.495977,3.64922471 L21.495977,2.02566149 L22.5350575,2.28543161 C22.6,2.28543161 22.6,2.28543161 22.6649425,2.28543161 C22.9247126,2.28543161 23.2494253,2.09060402 23.3143678,1.76589138 C23.3793103,1.44117873 23.1844828,1.05152356 22.8597701,0.98658103 L18.6385057,0.0124430994 C18.3137931,-0.0524994293 17.9890805,0.142328157 17.8591954,0.467040801 C17.7942529,0.791753444 17.9890805,1.11646609 18.3137931,1.24635115 L20.1971264,1.70094885 L20.1971264,3.64922471 C20.1971264,3.71416724 20.1971264,3.77910977 20.262069,3.77910977 C19.6775862,3.97393735 19.2229885,4.29865 18.8333333,4.7532477 C18.3137931,4.10382241 17.4695402,3.64922471 16.5603448,3.64922471 C14.9367816,3.64922471 13.637931,4.94807528 13.637931,6.63658103 C13.637931,8.13025919 14.741954,9.36416724 16.1706897,9.55899482 C16.0408046,9.88370747 15.9758621,10.2733626 15.9758621,10.6630178 C15.9758621,12.156696 17.0798851,13.390604 18.5086207,13.5854316 C18.3787356,13.9101442 18.3137931,14.2997994 18.3137931,14.6894546 C18.3137931,16.3130178 19.6126437,17.6768109 21.2362069,17.6768109 C22.8597701,17.6768109 24.1586207,16.3130178 24.1586207,14.6894546 C24.1586207,14.2997994 24.0936782,13.9101442 23.9637931,13.5854316 C25.3925287,13.390604 26.4965517,12.156696 26.4965517,10.6630178 C26.4965517,10.2733626 26.4316092,9.88370747 26.3017241,9.55899482 C27.5356322,9.36416724 28.6396552,8.13025919 28.6396552,6.63658103 M4.09137931,25.4699144 C4.2862069,25.2750868 4.41609195,25.0802592 4.61091954,24.8854316 C4.93563218,24.560719 5.1954023,24.2360063 5.45517241,23.9762362 C5.58505747,24.1710638 5.71494253,24.3658914 5.90977011,24.6256615 C6.16954023,25.0153167 6.49425287,25.4699144 6.88390805,25.9894546 L6.88390805,30.7952017 C6.88390805,30.8601442 6.88390805,30.8601442 6.88390805,30.9250868 L4.15632184,30.9250868 L4.15632184,25.5997994 C4.09137931,25.5348569 4.09137931,25.4699144 4.09137931,25.4699144 M1.16896552,19.2354316 C1.16896552,16.4429029 2.07816092,12.4814086 3.50689655,10.3383052 C4.93563218,12.4814086 5.84482759,16.4429029 5.84482759,19.2354316 C5.84482759,21.7032477 5.13045977,22.482558 3.70172414,24.0411787 C3.63678161,24.1061213 3.57183908,24.1710638 3.50689655,24.2360063 C3.44195402,24.1710638 3.37701149,24.1061213 3.31206897,24.0411787 C1.88333333,22.482558 1.16896552,21.7032477 1.16896552,19.2354316 M7.4683908,3.84405229 C9.02701149,7.09117873 10.066092,13.390604 10.066092,17.6768109 C10.066092,21.0538224 9.35172414,22.0929029 8.05287356,23.8463511 C7.85804598,24.1061213 7.66321839,24.3658914 7.4683908,24.6256615 C7.27356322,24.3658914 7.07873563,24.0411787 6.88390805,23.8463511 C6.62413793,23.5216385 6.42931034,23.1969259 6.23448276,22.8722132 C6.75402299,21.9630178 7.07873563,20.9239374 7.07873563,19.2354316 C7.07873563,16.8975006 6.49425287,13.7153167 5.45517241,11.3124431 C5.90977011,8.45497184 6.5591954,5.6624431 7.4683908,3.84405229 M10.9103448,30.8601442 L9.61149425,30.8601442 L8.37758621,30.8601442 L8.11781609,30.8601442 C8.11781609,30.7952017 8.11781609,30.7952017 8.11781609,30.7302592 L8.11781609,25.9245121 C8.44252874,25.4049718 8.76724138,24.9503741 9.09195402,24.560719 C10.4557471,22.6773856 11.3649425,21.4434776 11.3649425,17.6118684 C11.3649425,13.260719 10.195977,5.46761551 8.05287356,2.15554655 C7.79310345,1.8308339 7.20862069,1.8308339 7.0137931,2.15554655 C5.90977011,3.77910977 5.13045977,6.5716385 4.54597701,9.49405229 C4.41609195,9.23428218 4.22126437,9.03945459 4.02643678,8.84462701 C3.89655172,8.71474195 3.76666667,8.64979942 3.57183908,8.64979942 C3.37701149,8.64979942 3.24712644,8.71474195 3.11724138,8.84462701 C1.16896552,10.9877305 0,15.9233626 0,19.2354316 C0,22.1578454 0.974137931,23.2618684 2.46781609,24.8854316 C2.59770115,25.0802592 2.79252874,25.2101442 2.98735632,25.4049718 C2.98735632,25.4699144 2.98735632,25.4699144 2.98735632,25.5348569 L2.98735632,30.8601442 L0.844252874,30.8601442 C0.51954023,30.8601442 0.194827586,31.1199144 0.194827586,31.5095695 C0.194827586,31.8342822 0.454597701,32.1589948 0.844252874,32.1589948 L11.0402299,32.1589948 C11.3649425,32.1589948 11.6896552,31.8992247 11.6896552,31.5095695 C11.5597701,31.1848569 11.2350575,30.8601442 10.9103448,30.8601442" id="Shape"></path>
                    </g>
                    <g id="Group" transform="translate(116.719581, 86.464824)" fill="#FFFFFF">
                        <path d="M22.8214241,12.221502 C21.7174012,11.3772492 21.0679759,10.0134561 21.0679759,8.58472043 C21.0679759,7.80541008 21.2628035,7.02609974 21.5875161,6.37667445 C21.7823437,6.05196181 21.6524586,5.66230663 21.327746,5.46747905 C21.0030333,5.27265146 20.6133782,5.40253652 20.4185506,5.72724916 C19.9639529,6.57150204 19.7041828,7.54563997 19.7041828,8.5197779 C19.7041828,10.0134561 20.223723,11.4421917 21.1978609,12.4812722 C20.1587805,12.6760997 19.1197,12.7410423 18.015677,12.7410423 C17.0415391,12.7410423 16.0674012,12.6760997 15.0932632,12.4812722 C15.4179759,12.1565595 15.677746,11.8318469 16.0024586,11.5071342 C16.2622287,11.2473641 16.1972862,10.7927664 15.9375161,10.5979388 C15.677746,10.3381687 15.2231483,10.4031112 15.0283207,10.6628813 C14.573723,11.2473641 14.0541828,11.7669043 13.5346425,12.1565595 C10.8719989,11.4421917 8.33924024,10.2082836 6.19613679,8.38989284 C9.57314828,5.59736411 13.6645276,4.10368594 17.9507345,4.10368594 C22.2369414,4.10368594 26.3283207,5.59736411 29.7702747,8.45483537 C27.7570563,10.2732262 25.3541828,11.5071342 22.8214241,12.221502 M31.3288954,8.00023767 C28.0168264,5.07782388 24.1202747,3.3243756 20.0288954,2.93472043 C19.5742977,2.4151802 18.0806195,0.921502037 14.1840678,0.0123066343 C13.8593552,-0.0526358945 13.4697,0.142191692 13.4047575,0.531846864 C13.339815,0.856559508 13.5346425,1.24621468 13.9242977,1.31115721 C15.8725736,1.76575491 17.1064816,2.35023767 17.885792,2.80483537 C13.2748724,2.8697779 8.923723,4.55828365 5.35188392,7.54563997 C3.79326323,6.05196181 2.42947012,4.36345606 1.32544714,2.4151802 C1.13061955,2.09046755 0.740964377,1.9605825 0.416251733,2.15541008 C0.0915390896,2.35023767 -0.0383459679,2.73989284 0.156481618,3.06460548 C1.32544714,5.1427664 2.75418277,6.89621468 4.31280346,8.45483537 C2.68924024,10.0134561 1.26050461,11.7669043 0.0915390896,13.8450653 C-0.103288497,14.1697779 0.0265965609,14.5594331 0.351309205,14.7542607 C0.481194262,14.8192032 0.546136791,14.8192032 0.676021848,14.8192032 C0.870849434,14.8192032 1.13061955,14.6893181 1.26050461,14.4944905 C2.3645276,12.4812722 3.7283207,10.7927664 5.28694139,9.29908824 C7.36510231,11.0525365 9.76797587,12.4163296 12.3007345,13.19564 C11.7162517,13.5852951 11.131769,13.8450653 10.5472862,14.1048354 C10.2225736,14.2347204 10.027746,14.6243756 10.157631,14.9490882 C10.2225736,15.2088584 10.4823437,15.4036859 10.7421138,15.4036859 C10.8070563,15.4036859 10.8719989,15.4036859 10.9369414,15.3387434 C11.9760218,14.9490882 12.9501598,14.3646055 13.9242977,13.6502377 C15.2880908,13.9749503 16.6518839,14.1048354 18.0806195,14.1048354 C22.8863667,14.1048354 27.4972862,12.3513871 31.2639529,8.9743756 C31.3288954,8.90943307 31.3938379,8.77954801 31.4587805,8.64966296 C31.5886655,8.45483537 31.523723,8.19506525 31.3288954,8.00023767" id="Shape"></path>
                        <path d="M25.2242977,9.10426066 C25.7438379,9.10426066 26.1334931,8.64966296 26.1334931,8.13012273 C26.1334931,7.6105825 25.7438379,7.1559848 25.2242977,7.1559848 C24.7047575,7.1559848 24.3151023,7.6105825 24.3151023,8.13012273 C24.3151023,8.71460548 24.7047575,9.10426066 25.2242977,9.10426066" id="Path"></path>
                    </g>
                    <g id="Group" transform="translate(118.224324, 4.367385)" fill="#FFFFFF">
                        <path d="M28.4736909,23.3468391 C28.0190932,20.4893678 24.6420817,15.4238506 24.187484,14.7744253 L23.2133461,12.0468391 C23.2133461,11.9818966 23.1484036,11.9818966 23.1484036,11.916954 L19.1219668,6.13706897 L19.641507,0.681896552 C19.641507,0.422126437 19.5765645,0.227298851 19.3817369,0.0974137931 C19.1869093,-0.0324712644 18.9271392,-0.0324712644 18.7323116,0.0974137931 C18.6024266,0.162356322 16.3294381,1.52614943 14.3811622,3.7341954 C12.9524266,3.53936782 7.49725415,3.21465517 0.288633461,7.95545977 C0.0288633461,8.15028736 -0.101021711,8.53994253 0.0938058748,8.79971264 C0.223690932,8.99454023 0.418518519,9.05948276 0.613346105,9.05948276 C0.743231162,9.05948276 0.87311622,9.05948276 0.938058748,8.9295977 C6.78288633,5.09798851 11.3938059,4.77327586 13.4070243,4.83821839 C13.0823116,5.29281609 12.757599,5.81235632 12.4978289,6.33189655 C12.3679438,6.6566092 12.4328863,7.04626437 12.757599,7.17614943 C13.0823116,7.37097701 13.4070243,7.24109195 13.6018519,6.91637931 C14.8357599,4.57844828 17.0438059,2.76005747 18.3426564,1.78591954 L17.9530013,6.20201149 C17.9530013,6.39683908 18.0179438,6.59166667 18.1478289,6.72155172 L22.2392082,12.5663793 L23.2133461,15.2939655 C23.2133461,15.358908 23.2782886,15.358908 23.2782886,15.4238506 C23.3432312,15.4887931 26.0058748,19.3853448 27.0449553,22.1778736 C26.8501277,22.112931 26.6553001,22.112931 26.5254151,22.112931 C25.8110473,22.112931 25.0966794,22.6324713 24.8369093,23.3468391 C24.5771392,23.9313218 24.6420817,24.5807471 25.0317369,24.9704023 C25.161622,25.1002874 25.3564496,25.1652299 25.4863346,25.1652299 C25.6162197,25.1652299 25.7461047,25.1002874 25.8759898,25.0353448 C26.1357599,24.7755747 26.1357599,24.3859195 25.9409323,24.1261494 C25.8759898,24.0612069 25.8759898,23.9313218 25.9409323,23.8014368 C26.0708174,23.5416667 26.3305875,23.3468391 26.5254151,23.3468391 C26.7851852,23.3468391 27.3047254,23.4117816 27.3047254,24.1261494 C27.3047254,24.8405172 26.7202427,26.529023 24.9667944,26.658908 C24.9667944,26.658908 24.9667944,26.658908 24.9667944,26.658908 C24.7719668,26.3341954 24.3173691,25.8146552 23.6030013,25.1002874 C23.3432312,24.8405172 22.953576,24.8405172 22.6938059,25.1002874 C22.4340358,25.3600575 22.4340358,25.7497126 22.6938059,26.0094828 C23.0185185,26.3341954 23.3432312,26.7238506 23.6030013,26.9836207 C23.0185185,27.3083333 22.2392082,27.0485632 21.6547254,26.529023 C20.8104725,25.8146552 20.2259898,24.5807471 21.3300128,23.1520115 C21.5248404,22.8922414 21.5248404,22.5025862 21.2001277,22.2428161 C20.9403576,22.0479885 20.5507024,22.0479885 20.3558748,22.3727011 C20.0961047,22.6974138 19.9662197,22.9571839 19.8363346,23.2818966 L15.7449553,20.0347701 C15.5501277,19.9048851 15.3553001,19.8399425 15.1604725,19.9048851 C15.1604725,19.9048851 13.2121967,20.5543103 11.5236909,19.1255747 C11.2639208,18.9307471 11.0690932,18.670977 10.8742656,18.4112069 C10.8742656,18.2813218 10.8093231,18.2163793 10.7443806,18.1514368 C9.96507024,16.5928161 10.2897829,14.3198276 11.7185185,12.6313218 C11.9133461,12.3715517 11.9133461,11.9818966 11.653576,11.7221264 C11.3938059,11.5272989 11.0041507,11.5272989 10.8093231,11.787069 C9.05587484,13.8002874 8.66621967,16.5278736 9.57541507,18.541092 L1.65242656,29.2566092 C1.45759898,29.5163793 1.52254151,29.9060345 1.78231162,30.1008621 C1.91219668,30.1658046 2.04208174,30.2307471 2.17196679,30.2307471 C2.36679438,30.2307471 2.56162197,30.1658046 2.69150702,29.970977 L10.3547254,19.6451149 C10.4846105,19.775 10.6144955,19.9048851 10.7443806,20.0997126 C12.4978289,21.6583333 14.4461047,21.3985632 15.2254151,21.2686782 L19.511622,24.6456897 C19.4466794,25.8146552 20.0961047,26.8537356 20.8754151,27.5031609 C21.5897829,28.0227011 22.3041507,28.3474138 23.0185185,28.3474138 C23.6030013,28.3474138 24.187484,28.1525862 24.5771392,27.762931 C24.7070243,27.8928161 24.8369093,27.9577586 25.0317369,27.9577586 L25.0966794,27.9577586 C26.5254151,27.8928161 28.8633461,25.4899425 28.4736909,23.3468391" id="Path"></path>
                        <circle id="Oval" cx="19.9662197" cy="13.6704023" r="1.03908046"></circle>
                    </g>
                </g>
            </g>
        </g>
    </g>
</svg>