<?xml version="1.0" encoding="UTF-8"?>
<svg width="86px" height="47px" viewBox="0 0 86 47" version="1.1" xmlns="http://www.w3.org/2000/svg" xmlns:xlink="http://www.w3.org/1999/xlink">
    <title>logo/unflux</title>
    <g id="logo/unflux" stroke="none" stroke-width="1" fill="none" fill-rule="evenodd">
        <g id="unflux" fill="#FFFFFF" fill-rule="nonzero">
            <path d="M50.9860574,0 C56.7774756,0 61.4723476,4.69487199 61.4723478,10.4862902 L61.4723478,10.4862902 L61.4723478,26.1712672 C61.4723478,29.0817086 63.8317267,31.4410875 66.7421681,31.4410875 C69.6526095,31.4410875 72.0119884,29.0817086 72.0119884,26.1712672 C72.0119884,23.2608258 69.6526095,20.9014469 66.7421681,20.9014469 C65.3016797,20.9014469 64.1339331,19.7337003 64.1339331,18.2932119 C64.1339331,16.8527234 65.3016797,15.6849768 66.7421681,15.6849768 C69.7566661,15.6782809 72.6268864,16.9750671 74.6142956,19.241661 C76.6049583,16.9760623 79.476452,15.6796769 82.492351,15.6849768 C83.9328394,15.6849769 85.100586,16.8527234 85.100586,18.2932119 C85.100586,19.7337003 83.9328394,20.9014468 82.492351,20.9014469 C79.5819096,20.9014469 77.2225308,23.2608259 77.2225308,26.1712672 C77.2225308,29.0817086 79.5819096,31.4410875 82.492351,31.4410875 C83.9328394,31.4410875 85.100586,32.6088341 85.100586,34.0493226 C85.100586,35.489811 83.9328394,36.6575576 82.492351,36.6575576 C79.4767841,36.6613089 76.6059001,35.3651988 74.6142956,33.1008735 C71.7420139,36.4018271 67.1204696,37.569521 63.0249447,36.0290752 C58.9294198,34.4886294 56.222993,30.5646728 56.2380943,26.1890506 L56.2380943,26.1890506 L56.2380943,10.4862902 C56.2380943,7.57584877 53.8787154,5.21646984 50.968274,5.21646984 C48.0578326,5.21646984 45.6984536,7.57584877 45.6984536,10.4862902 L45.6984536,10.4862902 L45.6984536,13.0945252 C45.6984536,14.5350136 46.8662002,15.7027602 48.3066887,15.7027602 L48.4716375,15.7078916 C49.8352763,15.7929904 50.9149237,16.9259102 50.9149237,18.3109953 C50.9149237,19.7514837 49.7471771,20.9192303 48.3066887,20.9192303 C46.8731499,20.9290047 45.7162037,22.0938933 45.716237,23.5274653 L45.716237,23.5274653 L45.716237,44.5533964 C45.716237,45.9938848 44.5484904,47.1616314 43.108002,47.1616314 C41.6675136,47.1616314 40.499767,45.9938848 40.499767,44.5533964 L40.499767,44.5533964 L40.499767,10.4862902 C40.499767,4.69487199 45.1946392,0 50.9860574,0 Z M26.2394496,15.7027602 C32.0308679,15.7027602 36.72574,20.3976324 36.72574,26.1890506 L36.72574,26.1890506 L36.72574,39.3250707 C36.72574,40.7655591 35.5579934,41.9333057 34.117505,41.9333057 C32.6770166,41.9333057 31.50927,40.7655591 31.50927,39.3250707 L31.50927,39.3250707 L31.50927,26.1890506 C31.5092699,23.2786093 29.149891,20.9192304 26.2394496,20.9192304 C23.3290083,20.9192304 20.9696294,23.2786093 20.9696293,26.1890506 C21.06011,29.9938129 19.0820244,33.5489273 15.8012569,35.4779082 C12.5204894,37.4068891 8.45211621,37.4068891 5.17134872,35.4779082 C1.89058124,33.5489273 -0.0875043156,29.9938129 0.00297632962,26.1890506 L0.00297632962,26.1890506 L0.00297632962,18.3109953 C0.00297632962,16.8705068 1.17072293,15.7027602 2.61121136,15.7027602 C4.0516998,15.7027602 5.2194464,16.8705068 5.2194464,18.3109953 L5.2194464,18.3109953 L5.2194464,26.1890506 C5.15489682,28.1128554 6.14439721,29.9188043 7.80053437,30.8998248 C9.45667154,31.8808453 11.5159341,31.8808453 13.1720713,30.8998248 C14.8282084,29.9188043 15.8177088,28.1128554 15.7531592,26.1890506 C15.7531592,20.3976324 20.4480314,15.7027602 26.2394496,15.7027602 Z" id="Path-2"></path>
        </g>
    </g>
</svg>