<svg width="27" height="27" viewBox="0 0 27 27" xmlns="http://www.w3.org/2000/svg"><path d="M13.2862154,1.00068472 C13.0149216,0.990681153 12.7938675,0.7605991 12.8049202,0.490502778 C12.8049202,0.210402889 13.0350175,-0.00967559564 13.3163591,0.000327971838 C13.5876528,0.000327971838 13.8097117,0.230410024 13.7996638,0.510509913 C13.7996638,0.780606235 13.5776049,1.00068472 13.307316,1.00068472 L13.2862154,1.00068472 Z M9.81968469,0.890645478 C9.7593972,0.620549156 9.93021175,0.360456401 10.2015055,0.300434996 C10.4727992,0.240413591 10.7440929,0.410474239 10.8043804,0.680570561 C10.8546199,0.950666883 10.6838054,1.21075964 10.4125117,1.27078104 L10.4225596,1.27078104 C10.3823679,1.28078461 10.3421763,1.29078818 10.3130373,1.29078818 C10.0809305,1.29078818 9.86992426,1.1307311 9.81968469,0.890645478 L9.81968469,0.890645478 Z M16.1508759,1.40082742 C15.8785774,1.33080245 15.7178108,1.06070612 15.7881462,0.790609803 C15.8685295,0.520513481 16.1398232,0.370459969 16.4111169,0.440484941 C16.6723627,0.510509913 16.8331293,0.780606235 16.7627939,1.05070256 C16.7025064,1.27078104 16.5015481,1.42083455 16.280494,1.42083455 C16.2312592,1.42083455 16.1910676,1.42083455 16.1508759,1.40082742 L16.1508759,1.40082742 Z M7.01631641,1.9910379 C6.89574143,1.75095228 6.99622058,1.45084526 7.24741845,1.33080245 C7.49861633,1.20075607 7.80105857,1.31079531 7.92062876,1.55088093 C8.04120374,1.80097012 7.94072459,2.10107714 7.68952671,2.22111995 C7.61919131,2.26113422 7.54986069,2.27113779 7.46847258,2.27113779 C7.28761011,2.27113779 7.10674764,2.17110212 7.01631641,1.9910379 L7.01631641,1.9910379 Z M18.8236213,2.48121271 C18.5824713,2.34116276 18.4920401,2.04105574 18.622663,1.80097012 C18.762329,1.5608845 19.0637665,1.47085239 19.3049164,1.60089877 C19.5561143,1.73094515 19.6364976,2.04105574 19.5058747,2.28114136 C19.4164483,2.451202 19.2456337,2.54123411 19.0637665,2.54123411 C18.9833831,2.54123411 18.9029998,2.52122698 18.8236213,2.48121271 L18.8236213,2.48121271 Z M4.56462516,3.73165864 C4.3938106,3.52158373 4.41390643,3.20146957 4.63496056,3.03140892 L4.62491265,3.03140892 C4.84596678,2.8513447 5.15745214,2.88135541 5.33831461,3.09143032 C5.52018187,3.30150524 5.48903333,3.6216194 5.27802712,3.79168005 C5.17754797,3.87170859 5.06702091,3.91172286 4.95649384,3.91172286 C4.80577512,3.91172286 4.66510431,3.85170145 4.56462516,3.73165864 L4.56462516,3.73165864 Z M21.1637807,4.15180848 C20.9638272,3.97174426 20.9527745,3.6516301 21.1346417,3.45155875 C21.3245473,3.24148384 21.6370375,3.23148027 21.8480437,3.42154805 C22.049002,3.60161227 22.068093,3.92172642 21.8771826,4.12179777 C21.7767035,4.23183702 21.6460806,4.28185485 21.5064146,4.28185485 C21.3858396,4.28185485 21.2642598,4.24184058 21.1637807,4.15180848 L21.1637807,4.15180848 Z M2.59523382,5.99246489 C2.37417969,5.83240781 2.32394012,5.52229722 2.49475467,5.29221517 C2.65552131,5.07213669 2.96700668,5.02211885 3.19810872,5.19217949 C3.41916285,5.35223657 3.46940243,5.66234717 3.29858787,5.89242922 C3.19810872,6.0224756 3.04739,6.09250057 2.89667127,6.09250057 C2.78614421,6.09250057 2.68566506,6.06248987 2.59523382,5.99246489 L2.59523382,5.99246489 Z M23.0427408,6.34258976 C22.8930269,6.10250414 22.9523096,5.79239354 23.1844164,5.64234003 C23.4145136,5.49228652 23.7270038,5.55230792 23.8767177,5.78238998 C24.0374844,6.01247203 23.9782017,6.32258262 23.7460948,6.47263613 C23.6556636,6.53265754 23.5561892,6.56266824 23.4647532,6.56266824 C23.3049914,6.56266824 23.1442247,6.4826397 23.0427408,6.34258976 L23.0427408,6.34258976 Z M1.21866947,8.66341741 C0.967471598,8.55337817 0.846896619,8.26327471 0.947375768,8.00318196 C1.05790283,7.75309277 1.34929237,7.63304996 1.61053816,7.73308564 C1.86173603,7.84312488 1.98231101,8.13322833 1.88183186,8.39332109 C1.80144854,8.58338887 1.61053816,8.69342811 1.40957986,8.69342811 C1.34929237,8.69342811 1.28900488,8.68342455 1.21866947,8.66341741 L1.21866947,8.66341741 Z M24.3499745,8.90350303 C24.2585385,8.64341028 24.3891614,8.35330682 24.651412,8.26327471 C24.911653,8.16323904 25.2030425,8.30328898 25.2934737,8.56338174 C25.3939529,8.81347092 25.2532821,9.10357438 24.9920363,9.20361006 C24.9428015,9.22361719 24.8815092,9.23362076 24.8212217,9.23362076 C24.6202634,9.23362076 24.4193051,9.10357438 24.3499745,8.90350303 L24.3499745,8.90350303 Z M0.52536334,11.5744555 C0.254069636,11.5344413 0.0631592511,11.2743485 0.103350911,11.0042522 C0.143542571,10.7341559 0.40478836,10.5440881 0.676082064,10.5841024 C0.957423683,10.6241166 1.13828615,10.8842094 1.09809449,11.1543057 C1.05790283,11.4043949 0.846896619,11.5744555 0.605746659,11.5744555 L0.52536334,11.5744555 Z M25.0020842,11.7045019 C24.9719405,11.424402 25.1728988,11.1743128 25.4451973,11.1543057 C25.7255341,11.124295 25.976732,11.3143628 25.9968278,11.5944627 C26.0279763,11.864559 25.8260132,12.1146482 25.5547195,12.1446589 L25.494432,12.1446589 C25.2432342,12.1446589 25.0322279,11.9545911 25.0020842,11.7045019 L25.0020842,11.7045019 Z M0.00287176132,14.1153617 C-0.0272719836,13.8352618 0.183734231,13.5951762 0.455027935,13.575169 C0.736369554,13.5451583 0.977519513,13.7552333 0.998620135,14.0253296 C1.02775909,14.3054295 0.816752874,14.5455151 0.54545917,14.5655222 L0.50526751,14.5655222 C0.245026512,14.5655222 0.0229675913,14.3754544 0.00287176132,14.1153617 L0.00287176132,14.1153617 Z M25.4050056,15.1357256 C25.1226592,15.0957113 24.9317488,14.8456221 24.9719405,14.5755258 C25.0020842,14.2954259 25.2532821,14.1053581 25.5346237,14.1453724 C25.8059174,14.1753831 26.0068757,14.4254723 25.966684,14.7055722 C25.9264924,14.9556614 25.7154862,15.1357256 25.4642883,15.1357256 L25.4050056,15.1357256 Z M0.635890404,17.1564462 L0.635890404,17.1564462 C0.54545917,16.8963534 0.686129979,16.6162536 0.947375768,16.5262215 C1.20862156,16.4361893 1.50101588,16.5762393 1.59044233,16.836332 C1.67082565,17.0964248 1.53015484,17.3865283 1.26991384,17.4765604 C1.21866947,17.4965675 1.1684299,17.4965675 1.10814241,17.4965675 C0.897136194,17.4965675 0.706225809,17.3665211 0.635890404,17.1564462 L0.635890404,17.1564462 Z M24.5398801,18.0067494 C24.2786343,17.9067138 24.1490162,17.6166103 24.2585385,17.3565176 C24.3499745,17.0964248 24.6403593,16.9663784 24.9026098,17.0764177 C25.1628508,17.1664498 25.2934737,17.4565532 25.1939994,17.716646 C25.1136161,17.9167173 24.9217009,18.0367601 24.7207426,18.0367601 C24.6604551,18.0367601 24.6011724,18.0267566 24.5398801,18.0067494 L24.5398801,18.0067494 Z M1.98231101,19.9674487 C1.83159229,19.7373666 1.90192769,19.427256 2.14307765,19.2772025 C2.37417969,19.127149 2.68566506,19.197174 2.83638378,19.4372596 L2.83638378,19.427256 C2.98710251,19.6673416 2.9167671,19.9774522 2.67561714,20.1275057 C2.59523382,20.1775236 2.50580738,20.1975307 2.41437135,20.1975307 C2.2435568,20.1975307 2.08279016,20.1175022 1.98231101,19.9674487 L1.98231101,19.9674487 Z M23.0136018,20.5876698 C22.7915429,20.4276128 22.7312554,20.1175022 22.8930269,19.8874201 C23.0537935,19.6573381 23.3642741,19.6073202 23.5853282,19.7673773 C23.8164302,19.9274344 23.8767177,20.237545 23.7159511,20.4576235 C23.6154719,20.5976734 23.4547053,20.677702 23.3049914,20.677702 C23.2035074,20.677702 23.1040331,20.6476913 23.0136018,20.5876698 L23.0136018,20.5876698 Z M3.96175026,22.3783084 C3.76179675,22.1882406 3.76179675,21.8681265 3.95170234,21.6680551 C4.14261273,21.4679838 4.46414601,21.4679838 4.66510431,21.6580516 C4.86606261,21.8481194 4.86606261,22.1682335 4.67515222,22.3683049 C4.57467307,22.4683405 4.44405018,22.5183584 4.31342728,22.5183584 C4.1928523,22.5183584 4.06222941,22.4683405 3.96175026,22.3783084 L3.96175026,22.3783084 Z M20.9236355,22.7284333 C20.7317203,22.5283619 20.752821,22.2082478 20.9638272,22.0281836 C21.1748334,21.8381158 21.485314,21.8681265 21.6772291,22.0782014 C21.8570868,22.2782728 21.8379958,22.5983869 21.6259848,22.7784511 C21.5355535,22.8584797 21.4149786,22.8984939 21.2954084,22.8984939 C21.1537328,22.8984939 21.013062,22.8484761 20.9236355,22.7284333 L20.9236355,22.7284333 Z M6.46368109,24.2489755 C6.22253113,24.1089256 6.14214781,23.8088186 6.28281862,23.568733 C6.41344151,23.3286473 6.72492688,23.2486188 6.96607683,23.3886687 C7.20722679,23.5287187 7.28761011,23.8288257 7.1469393,24.0689113 C7.05650807,24.2289684 6.88569352,24.3190005 6.71487896,24.3190005 C6.62444773,24.3190005 6.5450692,24.2989934 6.46368109,24.2489755 L6.46368109,24.2489755 Z M18.3714651,24.3290041 C18.2408422,24.0789149 18.3312735,23.7788079 18.5824713,23.6487615 C18.8236213,23.5287187 19.1341019,23.6187508 19.2546768,23.8588364 C19.3852997,24.1089256 19.2948685,24.4090326 19.0436706,24.539079 C18.9733352,24.5790933 18.8929519,24.5890968 18.8125686,24.5890968 C18.6317061,24.5890968 18.4608916,24.4990647 18.3714651,24.3290041 L18.3714651,24.3290041 Z M9.33738477,25.4794143 C9.06609106,25.3993858 8.91537234,25.1292895 8.99575566,24.8591932 C9.07613898,24.5991004 9.34743268,24.4390433 9.61872639,24.5190719 C9.87997218,24.5991004 10.0417436,24.8792003 9.9603555,25.1392931 C9.89002009,25.3593715 9.68906179,25.4994215 9.47805558,25.4994215 C9.427816,25.4994215 9.37757643,25.4894179 9.33738477,25.4794143 L9.33738477,25.4794143 Z M12.8697293,25.0196504 C13.1309751,25.0996789 13.2917417,25.3787785 13.2113584,25.6398716 C13.141023,25.8599501 12.9400647,26 12.7290585,26 C12.6788189,26 12.6285793,25.9899964 12.5883877,25.9799929 C12.317094,25.8999643 12.1663752,25.6288676 12.2467585,25.3597717 C12.3271419,25.0996789 12.5984356,24.9396218 12.8697293,25.0196504 Z M16.4915002,25.0292538 C16.5517877,25.2993501 16.3910211,25.5694465 16.1197274,25.6394714 C16.0795357,25.649475 16.0393441,25.649475 15.9991524,25.649475 C15.7690551,25.649475 15.5680968,25.4994215 15.5068046,25.2693394 C15.4465171,24.9992431 15.6082885,24.7291468 15.8785774,24.6591218 C16.1508759,24.5991004 16.4211648,24.7591575 16.4915002,25.0292538 Z" transform="translate(.382 .393)" fill="#D8AB92" fill-rule="evenodd"/></svg>